<?xml version="1.0" encoding="UTF-8" standalone="no"?>
<!-- Created with Inkscape (http://www.inkscape.org/) -->

<svg
   xmlns:dc="http://purl.org/dc/elements/1.1/"
   xmlns:cc="http://creativecommons.org/ns#"
   xmlns:rdf="http://www.w3.org/1999/02/22-rdf-syntax-ns#"
   xmlns:svg="http://www.w3.org/2000/svg"
   xmlns="http://www.w3.org/2000/svg"
   xmlns:sodipodi="http://sodipodi.sourceforge.net/DTD/sodipodi-0.dtd"
   xmlns:inkscape="http://www.inkscape.org/namespaces/inkscape"
   width="700"
   height="335"
   viewBox="0 0 185.20832 88.63542"
   version="1.1"
   id="svg5822"
   inkscape:version="0.92.3 (2405546, 2018-03-11)"
   sodipodi:docname="Logo3.svg">
  <defs
     id="defs5816" />
  <sodipodi:namedview
     id="base"
     pagecolor="#ffffff"
     bordercolor="#666666"
     borderopacity="1.0"
     inkscape:pageopacity="0.0"
     inkscape:pageshadow="2"
     inkscape:zoom="1.4"
     inkscape:cx="353.62861"
     inkscape:cy="154.90557"
     inkscape:document-units="mm"
     inkscape:current-layer="layer1"
     showgrid="false"
     units="px"
     inkscape:window-width="1360"
     inkscape:window-height="705"
     inkscape:window-x="-8"
     inkscape:window-y="-8"
     inkscape:window-maximized="1" />
  <metadata
     id="metadata5819">
    <rdf:RDF>
      <cc:Work
         rdf:about="">
        <dc:format>image/svg+xml</dc:format>
        <dc:type
           rdf:resource="http://purl.org/dc/dcmitype/StillImage" />
        <dc:title></dc:title>
      </cc:Work>
    </rdf:RDF>
  </metadata>
  <g
     inkscape:label="Layer 1"
     inkscape:groupmode="layer"
     id="layer1"
     transform="translate(0,-208.36455)">
    <path
       class="cls-2"
       d="m 87.035561,223.65909 -0.49661,-0.17294 c 0.2483,-0.14665 0.53386,-0.0405 0.81692,0.0212 z"
       id="path4464"
       inkscape:connector-curvature="0"
       style="fill:#231f20;fill-rule:evenodd;stroke-width:0.15846951" />
    <path
       class="cls-2"
       d="m 78.414471,218.20478 c -0.0571,-0.0769 0.11666,-0.16182 -0.16139,-0.23161 0.27314,-0.18204 0.60089,-0.10113 0.86906,-0.31251 0.15644,0.22452 0.51895,0.26195 0.66048,0.40455 l -0.42458,0.20227 c -0.23342,-0.14766 -0.54132,-0.2933 -0.94357,-0.0627 z"
       id="path4466"
       inkscape:connector-curvature="0"
       style="fill:#231f20;fill-rule:evenodd;stroke-width:0.15846951" />
    <path
       class="cls-2"
       d="m 78.414471,217.68696 c -0.58846,-0.33072 0.54875,-0.2397 0.60091,-0.49355 0.55867,0.14058 -0.43454,0.33072 -0.60091,0.49355 z"
       id="path4468"
       inkscape:connector-curvature="0"
       style="fill:#231f20;fill-rule:evenodd;stroke-width:0.15846951" />
    <path
       class="cls-2"
       d="m 80.440641,217.33702 c -0.13653,-0.0738 0.16387,-0.16283 0.30043,-0.24677 0.0398,0.17699 0.30293,0.11428 0.62325,0.21643 -0.28059,0.13552 -0.61827,0.009 -0.92368,0.0303 z"
       id="path4470"
       inkscape:connector-curvature="0"
       style="fill:#231f20;fill-rule:evenodd;stroke-width:0.15846951" />
    <path
       class="cls-2"
       d="M 91.909741,219.47303"
       id="path4472"
       inkscape:connector-curvature="0"
       style="fill:#231f20;fill-rule:evenodd;stroke-width:0.15846951" />
    <path
       class="cls-2"
       d="m 91.507471,218.01767 c -0.0944,-0.10821 0.16142,-0.22654 0.2806,-0.34083 a 0.92120354,0.37521801 0 0 1 0.60586,0.12339 c -0.3228,-0.0253 -0.6133,0.0283 -0.88646,0.21744 z"
       id="path4476"
       inkscape:connector-curvature="0"
       style="fill:#231f20;fill-rule:evenodd;stroke-width:0.15846951" />
    <path
       class="cls-2"
       d="m 87.139841,216.50264 c -0.24831,-0.0718 -0.13411,-0.15373 -0.39233,-0.22452 0.57607,-0.18104 1.04537,-0.0455 0.39233,0.22452 z"
       id="path4478"
       inkscape:connector-curvature="0"
       style="fill:#231f20;fill-rule:evenodd;stroke-width:0.15846951" />
    <path
       class="cls-2"
       d="M 76.755811,212.19927"
       id="path4480"
       inkscape:connector-curvature="0"
       style="fill:#231f20;fill-rule:evenodd;stroke-width:0.15846951" />
    <path
       class="cls-2"
       d="M 92.441111,214.48193"
       id="path4482"
       inkscape:connector-curvature="0"
       style="fill:#231f20;fill-rule:evenodd;stroke-width:0.15846951" />
    <path
       class="cls-2"
       d="m 95.875141,214.79646 c -0.13909,-0.3823 -0.83927,-0.39645 -1.28621,-0.62098 0.658,-0.12035 0.92367,0.0587 1.3309,-0.32768 a 0.8640939,0.35195652 0 0 1 -0.36997,0.48546 l 0.7449,0.25992 z"
       id="path4484"
       inkscape:connector-curvature="0"
       style="fill:#231f20;fill-rule:evenodd;stroke-width:0.15846951" />
    <path
       class="cls-2"
       d="m 96.711921,214.91075 c -0.14405,0.0526 -0.31784,-0.0364 -0.4817,-0.0789 a 1.0602531,0.43185469 0 0 1 0.65799,-0.21036 c 0.41468,0.0809 -0.59592,0.20834 -0.17629,0.28925 z"
       id="path4486"
       inkscape:connector-curvature="0"
       style="fill:#231f20;fill-rule:evenodd;stroke-width:0.15846951" />
    <path
       class="cls-2"
       d="m 86.228561,220.74837 a 0.49660568,0.20227386 0 0 0 0.0371,0.18812 c -0.18375,0.0556 -0.40224,-0.0668 -0.60585,-0.12238 0.19118,-0.20935 0.45438,-0.0556 0.67538,-0.11732 0.12161,0.0597 -0.0371,0.0759 -0.10676,0.0516 z"
       id="path4504"
       inkscape:connector-curvature="0"
       style="fill:#231f20;fill-rule:evenodd;stroke-width:0.15846951" />
    <path
       class="cls-2"
       d="M 86.692891,220.7332"
       id="path4506"
       inkscape:connector-curvature="0"
       style="fill:#231f20;fill-rule:evenodd;stroke-width:0.15846951" />
    <path
       class="cls-2"
       d="m 88.679321,220.19414 c 0.42708,-0.16688 0.72504,-0.0698 0.86905,-0.31251"
       id="path4508"
       inkscape:connector-curvature="0"
       style="fill:#231f20;fill-rule:evenodd;stroke-width:0.15846951" />
    <path
       class="cls-2"
       d="m 88.863061,218.7671 c -0.38238,0.22857 -0.8492,0.0212 -1.28124,-0.005 0.24831,-0.087 0.30789,-0.16789 0.0695,-0.23868 0.50653,0.10923 0.4221,0.2488 1.21171,0.24374 z"
       id="path4510"
       inkscape:connector-curvature="0"
       style="fill:#231f20;fill-rule:evenodd;stroke-width:0.15846951" />
    <path
       class="cls-2"
       d="m 90.449721,219.14232 c -0.27065,0.0394 -0.15893,-0.0789 -0.60586,-0.12238 -0.30294,0.10114 0.62822,0.1689 0.0546,0.28217 -0.5562,0.0192 -0.072,-0.23767 -0.76725,-0.35398 0.41217,-0.0354 1.20178,-0.0617 1.31849,0.19419 z"
       id="path4512"
       inkscape:connector-curvature="0"
       style="fill:#231f20;fill-rule:evenodd;stroke-width:0.15846951" />
    <path
       class="cls-2"
       d="m 79.278581,214.3909 a 0.77222184,0.31453585 0 0 1 -0.19367,0.19621 c -0.18873,-0.10114 -0.89638,-0.19216 -0.4122,-0.31858 0.0795,0.0445 0.0173,0.0941 0.14405,0.13754 0.32778,0.086 0.57855,-0.21542 0.92371,-0.0303 -0.13412,0.10215 -0.29549,0.0617 -0.46184,0.0152 z"
       id="path4516"
       inkscape:connector-curvature="0"
       style="fill:#231f20;fill-rule:evenodd;stroke-width:0.15846951" />
    <path
       class="cls-2"
       d="m 89.513621,217.94081 c -0.28307,0.11934 -0.45441,-0.13148 -0.49661,-0.17294 0.79456,0.0728 0.18622,-0.40455 1.01308,-0.17497 -0.35509,0.0961 -0.56118,0.16586 -0.51647,0.34791 z"
       id="path4518"
       inkscape:connector-curvature="0"
       style="fill:#231f20;fill-rule:evenodd;stroke-width:0.15846951" />
    <path
       class="cls-2"
       d="m 78.238181,213.23997 c -0.51398,-0.0546 -0.92864,0.40454 -1.48981,0.0961 0.1589,-0.10114 0.65799,-0.21138 0.17629,-0.29027 0.36004,0.09 0.72505,0.22149 1.31352,0.19419 z"
       id="path4520"
       inkscape:connector-curvature="0"
       style="fill:#231f20;fill-rule:evenodd;stroke-width:0.15846951" />
    <path
       class="cls-2"
       d="m 93.526171,214.68319 a 0.38735243,0.15777361 0 0 1 0.17632,-0.29026 c -0.70022,-0.20228 -0.71512,0.38937 -1.24153,0.18305"
       id="path4522"
       inkscape:connector-curvature="0"
       style="fill:#231f20;fill-rule:evenodd;stroke-width:0.15846951" />
    <path
       class="cls-2"
       d="m 80.145176,214.69936 c 0.0571,0.0769 -0.1167,0.16182 0.161398,0.23161 -0.248304,0.1072 -0.573581,-0.16283 -0.856645,-0.20936 0.186229,-0.24677 0.491638,0.11732 0.695247,-0.0222 z"
       id="path4548"
       inkscape:connector-curvature="0"
       style="fill:#231f20;fill-rule:evenodd;stroke-width:0.15846951" />
    <path
       class="cls-2"
       d="m 78.583352,216.16686 c -0.183744,-0.1517 -0.03725,-0.31453 0.369971,-0.48546 0.206092,0.1507 -0.09682,0.31859 -0.369971,0.48546 z"
       id="path4552"
       inkscape:connector-curvature="0"
       style="fill:#231f20;fill-rule:evenodd;stroke-width:0.15846951" />
    <path
       class="cls-2"
       d="m 79.909289,215.22325 c 0.09686,-0.17699 -0.233404,-0.33982 0.248303,-0.52894 a 1.1521252,0.46927536 0 0 1 -0.248303,0.52894 z"
       id="path4556"
       inkscape:connector-curvature="0"
       style="fill:#231f20;fill-rule:evenodd;stroke-width:0.15846951" />
    <path
       class="cls-2"
       d="m 81.1806,213.99747 c -0.556198,-0.11226 0.332726,-0.3469 0.513987,-0.34892 0.02732,0.16283 -0.300446,0.12743 -0.513987,0.34892 z"
       id="path4568"
       inkscape:connector-curvature="0"
       style="fill:#231f20;fill-rule:evenodd;stroke-width:0.15846951" />
    <path
       class="cls-2"
       d="m 87.678684,215.112 c 0.0149,0.18609 0.526402,0.28319 0.536336,0.36106 -0.394802,0.21643 -1.258895,-0.23868 -0.536336,-0.36106 z"
       id="path4574"
       inkscape:connector-curvature="0"
       style="fill:#231f20;fill-rule:evenodd;stroke-width:0.15846951" />
    <path
       class="cls-2"
       d="M 82.144016,212.40254"
       id="path4584"
       inkscape:connector-curvature="0"
       style="fill:#231f20;fill-rule:evenodd;stroke-width:0.15846951" />
    <path
       class="cls-2"
       d="m 81.423943,219.95849 c -0.193676,-0.26801 0.670418,-0.0779 0.869061,-0.31251 0.178777,0.19721 -0.625724,0.30948 -0.869061,0.31251 z"
       id="path4650"
       inkscape:connector-curvature="0"
       style="fill:#231f20;fill-rule:evenodd;stroke-width:0.15846951" />
    <path
       class="cls-2"
       d="m 75.0525,214.76511 c -0.394803,-0.12945 -0.04965,-0.28217 0.263201,-0.43489 0.16388,0.13856 0.06703,0.2842 -0.263201,0.43489 z"
       id="path4660"
       inkscape:connector-curvature="0"
       style="fill:#231f20;fill-rule:evenodd;stroke-width:0.15846951" />
    <path
       class="cls-2"
       d="m 84.535178,219.80881 a 0.45191117,0.18406921 0 0 1 0.06953,-0.23868 0.77470486,0.31554722 0 0 1 -0.479226,-0.0789 l 0.317828,-0.15272 0.623238,0.21643 c -0.06703,0.0516 -0.148983,0.0314 -0.230919,0.007 0.0149,0.12339 0.166362,0.2306 -0.300447,0.24678 z"
       id="path4666"
       inkscape:connector-curvature="0"
       style="fill:#231f20;fill-rule:evenodd;stroke-width:0.15846951" />
    <path
       class="cls-2"
       d="m 74.349795,215.92515 a 0.92368658,0.37622938 0 0 0 -0.392319,-0.22351 c 0.320312,0.0506 0.556199,-0.32971 0.906306,-0.1244 -0.417149,0.1244 -0.260717,0.22958 -0.513987,0.34791 z"
       id="path4676"
       inkscape:connector-curvature="0"
       style="fill:#231f20;fill-rule:evenodd;stroke-width:0.15846951" />
    <path
       class="cls-2"
       d="m 76.286558,215.72085 c -0.439496,-0.11226 -0.173813,-0.24677 0.156431,-0.38432 0.176295,0.12036 0.04966,0.2488 -0.156431,0.38432 z"
       id="path4692"
       inkscape:connector-curvature="0"
       style="fill:#231f20;fill-rule:evenodd;stroke-width:0.15846951" />
    <path
       class="cls-2"
       d="m 84.61215,218.43335 c -0.362521,-0.10114 -0.101799,-0.21846 0.04965,-0.33376 0.533851,0.1153 0.399767,0.32364 -0.04965,0.33376 z"
       id="path4698"
       inkscape:connector-curvature="0"
       style="fill:#231f20;fill-rule:evenodd;stroke-width:0.15846951" />
    <path
       class="cls-2"
       d="m 82.042218,217.19037 c -0.129111,-0.17699 0.06953,-0.19013 0.407217,-0.29734 0.327759,0.10114 0.218506,0.21441 0.412182,0.31858 -0.253269,0.0931 -0.581029,-0.18002 -0.819399,-0.0212 z"
       id="path4710"
       inkscape:connector-curvature="0"
       style="fill:#231f20;fill-rule:evenodd;stroke-width:0.15846951" />
    <path
       class="cls-2"
       d="m 86.817082,218.40806 -0.374938,-0.12945 c 0.168846,-0.1244 0.367488,-0.10114 0.54875,-0.1598 0.19616,0.088 0.104279,0.18609 -0.173812,0.28925 z"
       id="path4716"
       inkscape:connector-curvature="0"
       style="fill:#231f20;fill-rule:evenodd;stroke-width:0.15846951" />
    <path
       class="cls-2"
       d="m 82.536341,216.7484 c 0.665451,-0.091 1.288691,0.0172 1.460019,0.33173 -0.466809,-0.0121 -0.958447,-0.14563 -1.460019,-0.33173 z"
       id="path4722"
       inkscape:connector-curvature="0"
       style="fill:#231f20;fill-rule:evenodd;stroke-width:0.15846951" />
    <path
       class="cls-2"
       d="m 86.188874,217.57672 c 0.206092,-0.14058 0.459361,-0.0314 0.655521,-0.21037 0.32031,0.084 -0.168847,0.19418 0.05462,0.28217 -0.216022,0.0779 -0.454394,0.0405 -0.710146,-0.0718 z"
       id="path4728"
       inkscape:connector-curvature="0"
       style="fill:#231f20;fill-rule:evenodd;stroke-width:0.15846951" />
    <path
       class="cls-2"
       d="M 89.600556,217.18026"
       id="path4744"
       inkscape:connector-curvature="0"
       style="fill:#231f20;fill-rule:evenodd;stroke-width:0.15846951" />
    <path
       class="cls-2"
       d="m 88.957451,216.87078 c -0.362522,-0.10114 -0.263201,-0.21239 0.04965,-0.33375 0.474258,0.15474 0.469293,0.0354 0.675385,-0.11631 0.593443,0.28622 -0.481709,0.2397 -0.725047,0.45006 z"
       id="path4746"
       inkscape:connector-curvature="0"
       style="fill:#231f20;fill-rule:evenodd;stroke-width:0.15846951" />
    <path
       class="cls-2"
       d="m 80.487811,221.1246 c 0.33023,0.12237 0.42957,0 0.4966,0.17294 a 0.35010701,0.14260307 0 1 1 -0.4966,-0.17294 z"
       id="path4794"
       inkscape:connector-curvature="0"
       style="fill:#231f20;fill-rule:evenodd;stroke-width:0.15846951" />
    <path
       class="cls-2"
       d="m 72.768071,218.53347 c 0.24832,-0.14665 0.52144,-0.10721 0.81693,0.0202 -0.24087,0.14766 -0.52144,0.1072 -0.81693,-0.0202 z"
       id="path4798"
       inkscape:connector-curvature="0"
       style="fill:#231f20;fill-rule:evenodd;stroke-width:0.15846951" />
    <path
       class="cls-2"
       d="m 89.672541,222.29273 c 0.52888,-0.10114 0.54625,-0.0313 0.96091,0.15777 -0.49411,0.088 -0.36748,-0.0526 -0.96091,-0.15777 z"
       id="path4804"
       inkscape:connector-curvature="0"
       style="fill:#231f20;fill-rule:evenodd;stroke-width:0.15846951" />
    <path
       class="cls-2"
       d="m 85.513451,220.05963 c -0.22347,-0.088 0.26569,-0.20228 -0.0571,-0.28319 0.18125,-0.0637 0.40969,0.11125 0.58847,0.0283 0.2632,0.1153 -0.3948,0.24981 -0.53137,0.25487 z"
       id="path4806"
       inkscape:connector-curvature="0"
       style="fill:#231f20;fill-rule:evenodd;stroke-width:0.15846951" />
    <path
       class="cls-2"
       d="m 91.485141,222.04393 c -0.1887,-0.21643 -0.66793,-0.20227 -0.76726,-0.35398 0.24086,-0.14867 1.06522,0.20531 0.76726,0.35398 z"
       id="path4808"
       inkscape:connector-curvature="0"
       style="fill:#231f20;fill-rule:evenodd;stroke-width:0.15846951" />
    <path
       class="cls-2"
       d="m 71.263361,212.66247 c -0.2334,-0.11934 0.47178,-0.26801 0.61827,-0.39949 0.3079,0.0688 0.24832,0.14969 0.39232,0.22352 a 1.3358694,0.54411668 0 0 0 -1.01059,0.17597 z"
       id="path4810"
       inkscape:connector-curvature="0"
       style="fill:#231f20;fill-rule:evenodd;stroke-width:0.15846951" />
    <path
       class="cls-2"
       d="m 80.316481,217.29252 c -0.37245,-0.13249 0.4817,-0.54917 0.86906,-0.31251 -0.82437,-0.0374 -0.25327,0.26295 -0.86906,0.31251 z"
       id="path4812"
       inkscape:connector-curvature="0"
       style="fill:#231f20;fill-rule:evenodd;stroke-width:0.15846951" />
    <path
       class="cls-2"
       d="m 74.213201,214.6488 c 0.4966,0 0.94356,-0.33476 1.47491,-0.19014 -0.29051,0.10114 -0.59592,0.12238 -0.86905,0.31252 a 0.92120354,0.37521801 0 0 1 -0.60586,-0.12238 z"
       id="path4814"
       inkscape:connector-curvature="0"
       style="fill:#231f20;fill-rule:evenodd;stroke-width:0.15846951" />
    <path
       class="cls-2"
       d="m 85.997641,218.38581 a 1.3433184,0.54715079 0 0 0 1.11985,-0.22554 c 0.12917,0.0587 0.24832,0.0657 0.35508,0.0354 0.12657,0.0273 0.0769,0.0607 0.0173,0.0941 -0.11171,0.0354 -0.0496,0.0647 0.0198,0.0941 -0.21353,0.091 -0.4966,-0.10822 -0.69276,0.0222 -0.0223,0.11125 0.28306,0.21238 0.18126,0.32566 -0.82188,0.13856 -0.67538,-0.12946 -1.00066,-0.34589 z"
       id="path4816"
       inkscape:connector-curvature="0"
       style="fill:#231f20;fill-rule:evenodd;stroke-width:0.15846951" />
    <path
       class="cls-2"
       d="m 87.939381,218.79643 -0.49662,-0.17295 c 0.16885,-0.1244 0.3675,-0.10114 0.54876,-0.15979 0.0894,0.1072 0.2334,0.21339 -0.0521,0.33274 z"
       id="path4818"
       inkscape:connector-curvature="0"
       style="fill:#231f20;fill-rule:evenodd;stroke-width:0.15846951" />
    <path
       class="cls-2"
       d="m 76.594431,214.33528 c -0.29052,0.0142 -0.21603,0.0627 -0.31784,0.15271 0.20112,0.0435 0.36998,-0.092 0.54875,-0.15979 0.2061,0.0647 0.42459,0.18912 0.60586,0.12237 0.0546,0.31858 -0.99321,0.0384 -1.35076,0.23363 -0.4395,-0.11226 -0.0845,-0.24981 -0.0744,-0.37623 -0.31286,-0.0101 -0.60586,0.0748 -0.94354,-0.0637"
       id="path4820"
       inkscape:connector-curvature="0"
       style="fill:#231f20;fill-rule:evenodd;stroke-width:0.15846951" />
    <path
       class="cls-2"
       d="m 89.416781,219.22221 c -0.0745,-0.25689 -0.17381,-0.267 -0.55372,-0.45511 0.29549,-0.0395 0.57855,0 0.60587,0.12237 0.37492,-0.28015 0.8045,-0.43185 1.38303,-0.66143 -0.0471,0.42073 -1.13721,0.52793 -1.43518,0.99417 z"
       id="path4822"
       inkscape:connector-curvature="0"
       style="fill:#231f20;fill-rule:evenodd;stroke-width:0.15846951" />
    <path
       class="cls-2"
       d="m 87.782931,218.04296 c -0.49659,0.11833 -0.17132,-0.42781 -0.87401,-0.30342 -0.24831,-0.21946 0.51895,-0.0344 0.65552,-0.21137 -0.0868,0.36308 0.57605,0.12541 0.8194,0.0212 0.36997,0.17496 -0.32279,0.3115 -0.62076,0.39949 -0.10428,0.0354 -0.0421,0.0647 0.0198,0.0941 z"
       id="path4824"
       inkscape:connector-curvature="0"
       style="fill:#231f20;fill-rule:evenodd;stroke-width:0.15846951" />
    <path
       class="cls-2"
       d="m 85.299911,217.17722 c -0.10427,-0.20227 0.22099,-0.33577 0.49662,-0.44298 0.19615,0.10114 -0.31288,0.23161 0.18125,0.32566 -0.22099,0.10114 -0.4842,-0.0576 -0.67787,0.11732 z"
       id="path4826"
       inkscape:connector-curvature="0"
       style="fill:#231f20;fill-rule:evenodd;stroke-width:0.15846951" />
    <path
       class="cls-2"
       d="m 79.459831,214.71454 q -0.66049,-0.16789 -0.0745,-0.37623 0.66296,0.16789 0.0745,0.37623 z"
       id="path4828"
       inkscape:connector-curvature="0"
       style="fill:#231f20;fill-rule:evenodd;stroke-width:0.15846951" />
    <path
       class="cls-2"
       d="m 80.204741,214.35955 c -0.3352,-0.0324 -0.0993,-0.29734 -0.4966,-0.17295 -0.18374,-0.35802 0.97583,0.002 0.4966,0.17295 z"
       id="path4830"
       inkscape:connector-curvature="0"
       style="fill:#231f20;fill-rule:evenodd;stroke-width:0.15846951" />
    <path
       class="cls-2"
       d="m 91.182211,215.18179 c 0.47425,-0.11125 0.24831,-0.14665 0.65552,-0.21137 0.16636,0.1426 -0.21106,0.41971 -0.65552,0.21137 z"
       id="path4834"
       inkscape:connector-curvature="0"
       style="fill:#231f20;fill-rule:evenodd;stroke-width:0.15846951" />
    <path
       class="cls-2"
       d="m 87.845031,213.58889 -0.37495,-0.12643 c 0.30046,-0.0485 0.56613,-0.27408 0.90632,-0.12439 z"
       id="path4836"
       inkscape:connector-curvature="0"
       style="fill:#231f20;fill-rule:evenodd;stroke-width:0.15846951" />
    <path
       class="cls-2"
       d="m 90.859421,212.34996 c -0.38487,0.009 -0.72753,0.23969 -1.13723,0.13148 0.28804,-0.0799 0.75981,-0.39444 0.1763,-0.29027 -0.10676,-0.20227 0.83429,-0.0526 1.09998,-0.3206 0.70766,0.3297 -1.00563,0.19519 -0.13908,0.47939 z"
       id="path4838"
       inkscape:connector-curvature="0"
       style="fill:#231f20;fill-rule:evenodd;stroke-width:0.15846951" />
    <path
       class="cls-2"
       d="m 82.071981,217.37747 c -0.14401,0.0516 -0.1614,0.10114 -0.087,0.14463 -0.61083,0.091 -0.36996,-0.23565 -0.64312,-0.31049 0.41965,-0.0445 0.23342,0.14159 0.73003,0.16586 z"
       id="path4850"
       inkscape:connector-curvature="0"
       style="fill:#231f20;fill-rule:evenodd;stroke-width:0.15846951" />
    <path
       class="cls-2"
       d="m 85.707161,217.49782 c 0.285548,0.16486 0.116702,0.39039 0.481708,0.0789 0.511502,0.15676 0.05463,0.34589 -0.0149,0.52187 0.528884,0.0101 0.464327,0.25183 0.856646,0.20935 -0.422116,0.3115 -2.011256,-0.51074 -1.323456,-0.81011 z"
       id="path4856"
       inkscape:connector-curvature="0"
       style="fill:#231f20;fill-rule:evenodd;stroke-width:0.15846951" />
    <path
       class="cls-2"
       d="m 73.962444,221.05482 c 0.297963,0.10113 0.183743,0.21542 0.643104,0.31049 0.347623,0.10113 0,-0.14665 0.424598,-0.20228 a 1.0677023,0.4348888 0 0 0 0.516469,0.267 c 0.233403,-0.19721 0.176295,-0.38533 0.119179,-0.57243 a 0.72256128,0.29430847 0 0 1 0.712628,0.0718 c -0.700213,0.22856 -0.144017,0.41567 -0.456875,0.63109 -0.764775,-0.21036 -2.435852,0.0809 -1.95911,-0.50568 z"
       id="path4860"
       inkscape:connector-curvature="0"
       style="fill:#231f20;fill-rule:evenodd;stroke-width:0.15846951" />
    <path
       class="cls-2"
       d="m 80.877677,218.36558 a 0.44942814,0.18305784 0 0 1 0.568615,-0.0657 1.1695063,0.47635494 0 0 0 -0.161399,-0.23161 c 0.692766,-0.09 0.255753,0.59974 -0.407216,0.29734 z"
       id="path4882"
       inkscape:connector-curvature="0"
       style="fill:#231f20;fill-rule:evenodd;stroke-width:0.15846951" />
    <path
       class="cls-2"
       d="m 91.144999,221.48869 c -0.397285,-0.27104 0.568614,-0.10113 0.869061,-0.31251 0.248303,0.10114 0,0.22149 -0.283066,0.34083 -0.0298,-0.13653 -0.325277,-0.24273 -0.585995,-0.0283 z"
       id="path4888"
       inkscape:connector-curvature="0"
       style="fill:#231f20;fill-rule:evenodd;stroke-width:0.15846951" />
    <path
       class="cls-2"
       d="m 80.562333,216.76459 c -0.121668,-0.0587 0.03724,-0.0748 0.106768,-0.0506 0.404734,-0.10721 0.09932,-0.19216 0.407217,-0.29734 0,0.27307 0.744909,0.0314 0.744909,0.25992 a 2.9548037,1.2035295 0 0 1 -1.258894,0.088 z"
       id="path4892"
       inkscape:connector-curvature="0"
       style="fill:#231f20;fill-rule:evenodd;stroke-width:0.15846951" />
    <path
       class="cls-2"
       d="m 89.220653,216.43488 c -0.595927,-0.0607 -0.918721,-0.0951 -1.211719,-0.24475 0.451912,0.1335 0.819401,-0.16688 1.281244,0.006 0.337691,-0.19014 -0.74491,-0.0344 -0.394802,-0.22453 -0.163879,-0.0425 -0.300447,0.0556 -0.441979,0.10923 0,-0.0951 -0.427081,-0.17598 -0.0571,-0.28217"
       id="path4906"
       inkscape:connector-curvature="0"
       style="fill:#231f20;fill-rule:evenodd;stroke-width:0.15846951" />
    <path
       class="cls-2"
       d="m 75.102121,214.43237 c -0.0993,0.0506 0.0695,0.092 0.14404,0.13755 -0.28555,0.12439 -0.57108,0.25284 -0.9063,0.12439 0.4817,-0.11023 0.38983,-0.25082 0.97584,-0.36409 0.11926,0.0678 -0.0868,0.14463 -0.21355,0.10215 z"
       id="path4924"
       inkscape:connector-curvature="0"
       style="fill:#231f20;fill-rule:evenodd;stroke-width:0.15846951" />
    <path
       class="cls-2"
       d="m 75.876831,213.65362 c -0.2632,0.23463 -0.62822,-0.0465 -0.92371,0.0303 -0.28801,-0.18003 0.5736,-0.39747 -0.34263,-0.55727 -0.2483,-0.20834 0.55369,0.13856 0.71262,0.0718 0.31781,-0.15474 0.0845,-0.47636 0.7623,-0.26195 -0.65306,0.1062 -0.10429,0.29634 -0.84922,0.40455 -0.22097,0.11024 0.48172,0.20228 0.64064,0.31252 z"
       id="path4926"
       inkscape:connector-curvature="0"
       style="fill:#231f20;fill-rule:evenodd;stroke-width:0.15846951" />
    <path
       class="cls-2"
       d="m 90.064841,220.14863 c -0.13154,-0.0668 0.0845,-0.14463 0.21356,-0.10114 0.10428,-0.0667 -0.13653,-0.12136 -0.26817,-0.18104 a 12.583988,5.1256196 0 0 0 0.97582,-0.36308 c 0.50406,0.0374 -0.60834,0.52591 -0.92121,0.64526 z"
       id="path4928"
       inkscape:connector-curvature="0"
       style="fill:#231f20;fill-rule:evenodd;stroke-width:0.15846951" />
    <path
       class="cls-2"
       d="m 75.434851,212.52695 c 0.13906,0.087 -0.18624,0.0475 -0.31784,0.15272 -0.56117,-0.28521 -0.46431,-0.13755 -1.10493,-0.29532 0.19616,-0.23869 1.09004,0.10113 0.9063,-0.1244 0.40969,-0.13047 0.14149,0.39443 0.51647,0.267 z"
       id="path4930"
       inkscape:connector-curvature="0"
       style="fill:#231f20;fill-rule:evenodd;stroke-width:0.15846951" />
    <path
       class="cls-2"
       d="m 84.105581,217.64245 c 0.21851,0.30948 -0.96093,-0.14462 -0.51896,-0.267 0.57111,0.0516 0.11667,0.36511 0.51896,0.267 z"
       id="path4932"
       inkscape:connector-curvature="0"
       style="fill:#231f20;fill-rule:evenodd;stroke-width:0.15846951" />
    <path
       class="cls-2"
       d="m 78.280401,214.04299 c 0.44197,-0.0941 0.7449,0.092 0.9808,0.25284 -0.12162,0.0759 -0.84673,-0.11934 -0.56862,0.0657 -0.3228,-0.0647 -0.78711,-0.23261 -0.5562,-0.45512 -0.58104,-0.0637 -0.74491,0.0516 -0.88645,0.21846 a 0.44694512,0.18204647 0 0 0 0.586,0.0283 c -0.1614,0.3651 -0.82684,-0.0263 -1.51216,0"
       id="path4934"
       inkscape:connector-curvature="0"
       style="fill:#231f20;fill-rule:evenodd;stroke-width:0.15846951" />
    <path
       class="cls-2"
       d="M 78.831631,213.88319"
       id="path4936"
       inkscape:connector-curvature="0"
       style="fill:#231f20;fill-rule:evenodd;stroke-width:0.15846951" />
    <path
       class="cls-2"
       d="m 86.680481,217.13171 c 0.0496,0.18508 0.12917,0.29633 -0.38736,0.3914 -0.2483,-0.0556 -0.15145,-0.12136 -0.0371,-0.18811 a 0.77222184,0.31453585 0 0 1 -0.48171,-0.0789 c 0.32775,-0.10114 0.68781,-0.0546 1.01308,-0.17497 0.12162,0.0587 -0.0371,0.0748 -0.10676,0.0506 z"
       id="path4938"
       inkscape:connector-curvature="0"
       style="fill:#231f20;fill-rule:evenodd;stroke-width:0.15846951" />
    <path
       class="cls-2"
       d="m 88.875481,215.8766 a 1.1645403,0.4743322 0 0 0 0.1614,0.23161 c -0.47674,0.10113 -0.31286,-0.20228 -0.74491,-0.25993 0.21354,-0.091 0.4966,0.10822 0.69277,-0.0222 0.11926,0.0576 -0.0398,0.0738 -0.10923,0.0506 z"
       id="path4940"
       inkscape:connector-curvature="0"
       style="fill:#231f20;fill-rule:evenodd;stroke-width:0.15846951" />
    <path
       class="cls-2"
       d="m 88.334181,212.52998 c 0.30542,0.17092 0.53136,-0.0566 0.83677,0.1153 l -0.4246,0.20227 c -0.12917,-0.0587 0.0894,-0.12945 0.19368,-0.1962 -0.39977,-0.0627 -0.74491,0.12743 -1.17446,-0.0566"
       id="path4942"
       inkscape:connector-curvature="0"
       style="fill:#231f20;fill-rule:evenodd;stroke-width:0.15846951" />
    <path
       class="cls-2"
       d="m 72.452721,219.30211 c 0.27563,-0.18103 0.6009,-0.10114 0.86907,-0.31251 -0.4966,-0.15778 -0.86907,0.31554 -1.38802,0.0455 0.39233,-0.18104 0.82686,-0.13856 1.22414,-0.27712 0.37991,0.0951 0.58599,0.52592 1.08757,0.20228 0.12408,0.12237 0.10923,0.24879 0.30541,0.36915 -0.0769,0.13552 -0.72753,0.0404 -0.4246,0.20227 -0.51399,0.14564 -1.10742,-0.11631 -1.67357,-0.22958 z"
       id="path4960"
       inkscape:connector-curvature="0"
       style="fill:#231f20;fill-rule:evenodd;stroke-width:0.15846951" />
    <path
       class="cls-2"
       d="m 87.929451,222.30183 -0.49661,-0.17294 c 0.44694,-0.24273 0.4544,-0.36814 1.0826,-0.41365 0.24831,0.087 -0.13155,0.19317 0.28554,0.27509 -0.27313,0.1335 -0.56115,0.30543 -0.87153,0.3115 z"
       id="path4962"
       inkscape:connector-curvature="0"
       style="fill:#231f20;fill-rule:evenodd;stroke-width:0.15846951" />
    <path
       class="cls-2"
       d="m 89.158551,220.27201 c -0.80203,-0.11833 -0.70768,-0.50568 -1.14221,-0.48343 -0.30045,-0.14159 0.32777,-0.16182 0.46185,-0.0152 a 1.4749189,0.60075336 0 0 0 -0.0745,-0.37623 c 0.45936,-0.15575 1.01804,0.20227 1.24152,0.33881 -0.98328,0.17294 0.13651,0.27307 -0.48667,0.53602 z"
       id="path4964"
       inkscape:connector-curvature="0"
       style="fill:#231f20;fill-rule:evenodd;stroke-width:0.15846951" />
    <path
       style="fill:#ffffff;stroke-width:0.15846951"
       inkscape:connector-curvature="0"
       class="cls-4"
       d="m 82.293004,219.64598 c 0,0 4.203766,-2.51932 -2.731332,-4.82726 -6.935099,-2.30795 -6.396282,-4.2073 -6.396282,-4.2073 0,0 -3.595425,2.61843 0.377421,4.52082 3.972846,1.90239 9.269145,2.70238 8.750193,4.51374 z"
       id="path5090" />
    <path
       class="cls-2"
       d="m 168.05939,260.87657 c 0.5264,0.10114 0.99322,-0.0799 1.48982,-0.1517 0.0323,0.22654 0.55868,0.11428 0.94851,0.3297 a 0.99321137,0.40454772 0 0 1 -0.32775,0.26802 c 0.3079,0.0657 0.57607,-0.0728 0.9088,0.12439 -1.11489,0.09 -2.41601,-0.0324 -3.01938,-0.57041 z"
       id="path4418"
       inkscape:connector-curvature="0"
       style="fill:#231f20;fill-rule:evenodd;stroke-width:0.15846951" />
    <path
       class="cls-3"
       d="m 188.62383,241.80114 c -0.44199,0.0182 -0.49661,-0.14261 -0.7449,-0.25993"
       id="path4474"
       inkscape:connector-curvature="0"
       style="fill:#ffffff;fill-rule:evenodd;stroke-width:0.15846951" />
    <path
       class="cls-2"
       d="M 187.39226,241.46233"
       id="path4514"
       inkscape:connector-curvature="0"
       style="fill:#231f20;fill-rule:evenodd;stroke-width:0.15846951" />
    <path
       class="cls-2"
       d="M 183.78937,242.05398"
       id="path4526"
       inkscape:connector-curvature="0"
       style="fill:#231f20;fill-rule:evenodd;stroke-width:0.15846951" />
    <path
       class="cls-2"
       d="m 185.47534,241.7627 c -0.35505,0.16385 -0.76227,0.0708 -1.09996,0.3196"
       id="path4528"
       inkscape:connector-curvature="0"
       style="fill:#231f20;fill-rule:evenodd;stroke-width:0.15846951" />
    <path
       class="cls-2"
       d="m 169.29594,264.67629 -0.37493,-0.13249 0.42458,-0.20228 c 0.36254,0.10114 0.2657,0.2134 -0.0496,0.33477 z"
       id="path4536"
       inkscape:connector-curvature="0"
       style="fill:#231f20;fill-rule:evenodd;stroke-width:0.15846951" />
    <path
       class="cls-2"
       d="m 173.41776,259.61438 c -0.37742,0 -0.31534,0.34387 -0.90629,0.1244 0.2483,-0.24778 0.7449,-0.21036 0.2632,-0.43489 0.15393,-0.21542 0.25078,0.23464 0.64309,0.31049 z"
       id="path4544"
       inkscape:connector-curvature="0"
       style="fill:#231f20;fill-rule:evenodd;stroke-width:0.15846951" />
    <path
       class="cls-1"
       d="m 27.996851,249.31039 c -0.294925,1.38724 0.02499,2.60503 0.949755,3.62164 l 0.867279,0.95308 0.272429,-1.04707 a 23.069076,12.217755 0 0 1 1.227185,-2.62754 17.995379,9.5306435 0 0 1 2.049474,-2.08217 c 0.832286,-0.62876 1.624583,-1.08147 2.356894,-1.34884 l 0.162459,-0.0674 0.06747,-0.0939 c 0.08748,-0.12302 0.124961,-0.17473 -0.569854,-1.15957 L 35.130006,245.088 c -0.06747,-0.0796 -0.139964,-0.17472 -0.217442,-0.29123 -0.16246,-0.229 -0.249937,-0.35739 -0.249937,-0.35739 v 0 c -0.444888,-0.67509 -0.81979,-1.19133 -1.117214,-1.53945 a 11.089652,5.8732592 0 0 0 -1.714559,-1.45609 c -1.59459,-0.97425 -3.784028,-1.7433 -6.498331,-2.28602 a 25.513448,13.512334 0 0 0 -3.524093,-0.54404 14.463785,7.6602547 0 0 0 -4.921237,-0.19592 9.0776687,4.8076802 0 0 0 -1.139706,0.11254 11.127142,5.8931145 0 0 0 -4.138937,1.07748 c -1.6495777,0.69892 -3.0792103,1.80553 -4.2489095,3.28677 -1.1272102,1.42561 -1.8395277,2.28601 -2.1219558,2.56003 a 11.854456,6.2783114 0 0 1 -2.3468968,1.68771 c -1.0572284,0.5189 -1.3521525,0.59434 -1.4021395,0.6036 l 0.06748,-0.006 0.019996,0.11516 0.057482,0.52155 h 0.027488 q 0.3724041,-0.0145 0.7298125,-0.037 c 2.6393214,-0.17076 4.7312841,-0.6976 6.2184022,-1.56595 a 24.123804,12.776357 0 0 0 2.5493449,-1.74596 7.6955237,4.0756739 0 0 0 1.249678,1.0325 9.5100575,5.0366804 0 0 0 2.446873,1.07749 12.22686,6.4755428 0 0 0 1.909509,0.49373 8.7302578,4.6236859 0 0 0 1.222186,0.19458 l 8.350354,1.12647 q 0.42239,0.0622 0.794795,0.13238 a 5.6810408,3.008771 0 0 1 0.864778,0.22636 z m -4.548831,-3.97906 -1.842027,-0.27135 -4.268902,-0.64729 c -0.324918,-0.057 -0.644835,-0.11653 -0.954756,-0.17869 -1.462124,-0.29121 -2.584335,-0.63934 -3.339143,-1.03645 l 0.42989,-0.42757 a 3.3466405,1.7724349 0 0 1 0.874775,-0.57979 5.081195,2.6910831 0 0 1 1.264677,-0.42888 5.3636225,2.8406612 0 0 1 1.367147,-0.18 8.7477534,4.6329516 0 0 1 1.809535,-0.006 c 0.499872,0.0212 1.074725,0.0634 1.722059,0.1244 l 0.852282,0.0873 0.84728,0.0965 a 33.803819,17.903048 0 0 1 5.368622,0.76377 14.543765,7.7026133 0 0 1 2.324401,0.57448 c 0.807293,0.2515 1.499616,0.73598 2.036979,1.43885 a 17.388036,9.2089843 0 0 0 -2.904255,2.48062 q -0.177455,-0.11915 -0.3924,-0.26473 a 8.1978944,4.3417375 0 0 0 -3.336641,-1.2403 l -0.249936,-0.0502 c -0.46488,-0.0808 -1.004743,-0.17209 -1.609587,-0.25945 z m -3.479106,-12.779 c -0.347412,-0.54403 -0.179954,-1.1344 0.499871,-1.7539 a 4.6363092,2.4554644 0 0 1 0.467381,-0.35076 3.4241207,1.8134696 0 0 1 1.549602,-0.56392 35.490886,18.796546 0 0 1 4.478846,-0.57184 l 0.58735,-0.0608 0.419894,1.10927 a 16.830677,8.9137991 0 0 0 1.312163,1.9379 c 0.807292,0.9266 1.662073,1.6427 2.546844,2.14306 a 15.820937,8.379024 0 0 0 1.284672,0.64994 12.14688,6.4331842 0 0 0 3.4991,1.11721 10.347342,5.48012 0 0 0 5.036206,0.32562 c 0.212447,-0.0131 0.427391,-0.0305 0.644837,-0.0516 l 0.354907,-2.79168 -11.996918,-5.40336 a 2.4318756,1.2879605 0 0 0 -1.674571,-0.32828 3.3041515,1.7499319 0 0 0 -0.377402,0.0112 1.8245315,0.96630135 0 0 0 -0.414894,0.0502 l -0.872276,0.17341 0.339913,-2.66065 0.297423,-0.17868 0.172454,-0.0172 0.292427,-0.0543 a 4.8437559,2.5653315 0 0 1 0.499871,-0.0702 c 0.197449,-0.02 0.379904,-0.037 0.559857,-0.0502 a 4.3288883,2.2926493 0 0 1 1.549601,0.0543 3.8265173,2.0265855 0 0 1 1.617085,0.43681 l 14.8012,6.65426 a 2.3818883,1.2614866 0 0 0 1.90201,0.3362 2.9317471,1.5527005 0 0 0 0.584852,-0.0727 l 0.854778,-0.15352 -0.349909,2.81417 -0.43489,0.02 h -0.04249 q -0.379903,0.0451 -0.749806,0.0688 a 5.4760934,2.9002277 0 0 1 -4.08895,-0.55728 c -0.474878,4.809 -0.499872,4.81165 -0.907268,4.90431 a 13.554019,7.1784277 0 0 1 -2.689309,0.32827 12.779219,6.7680805 0 0 1 -1.847026,0.0477 c -2.221929,-0.0226 -4.498844,-0.44343 -6.748267,-1.25222 a 12.866695,6.8144101 0 0 1 -1.027235,-0.41564 c -2.071968,-0.93321 -3.604075,-2.27676 -4.55633,-3.99227 l -0.157459,-0.3124 -0.144964,-0.3402 c -0.11747,-0.26473 -0.224944,-0.48579 -0.31242,-0.63803 a 3.5240949,1.8664177 0 0 0 -0.959753,-0.85244 l -0.16246,-0.0727 a 0.95725414,0.50697729 0 0 0 -0.68732,-0.0674 l -0.132467,0.01 a 1.3496534,0.71479826 0 0 0 -0.792296,0.22106 l -0.04249,0.0265 a 1.1647009,0.61684441 0 0 0 -0.284926,0.51889 0.84228368,0.44608706 0 0 0 0.287427,0.26472 1.4421297,0.76377519 0 0 0 0.42239,0.1324 l 0.812291,0.16412 -0.732311,0.4395 -0.249936,0.0212 h -0.104965 -0.06747 a 3.3291449,1.763169 0 0 1 -0.452381,0 4.271403,2.262204 0 0 1 -0.574854,-0.0291 3.1466918,1.6665389 0 0 1 -0.694822,-0.0979 4.9512284,2.6222506 0 0 1 -1.284669,-0.41037 3.4991014,1.8531807 0 0 1 -1.062228,-0.81538 z m 18.610218,-9.98731 a 3.7990243,2.0120248 0 0 1 -0.514866,-1.00072 3.5165969,1.8624466 0 0 1 0.449885,-0.97159 4.8287598,2.5573894 0 0 1 1.814533,-0.93454 7.4730807,3.9578646 0 0 1 2.749294,-0.51624 4.6862965,2.4819384 0 0 1 3.786527,0.63803 l 15.37855,5.34245 -7.428091,-6.61849 a 2.5318497,1.3409086 0 0 0 -1.397141,-0.60097 1.9345032,1.0245442 0 0 0 -0.734812,-0.0662 l -0.97225,0.0383 2.061971,-2.6474 0.437386,0.0556 0.127468,-0.01 0.712316,0.02 h 0.03749 l 0.542361,0.057 a 3.9239923,2.0782097 0 0 1 1.424635,0.30976 3.8040231,2.0146722 0 0 1 1.249677,0.68832 l 10.114903,9.03822 a 2.3818883,1.2614866 0 0 0 1.394643,0.59038 2.3094068,1.2230992 0 0 0 0.794795,0.0796 l 0.93726,-0.0146 -2.031978,2.55208 -0.419894,0.0159 -0.04249,0.0112 a 5.0986904,2.7003491 0 0 1 -1.317162,0.18002 6.8482411,3.6269395 0 0 1 -2.784286,-0.15356 19.514989,10.335453 0 0 1 -3.589078,-0.88026 c -2.09696,-0.64462 -5.391113,-1.77639 -9.812478,-3.37145 l 5.09869,4.55353 a 2.394385,1.2681051 0 0 0 2.189437,0.67507 h 0.902268 l -2.049473,2.59976 -0.419892,-0.0543 h -0.04748 c -2.02698,-0.10978 -3.541591,-0.59965 -4.498846,-1.45607 l -9.165145,-8.19106 c -0.472379,-0.42227 -0.979749,-0.68966 -1.499615,-0.79422 a 1.514611,0.80216251 0 0 0 -0.777302,-0.0608 1.8420269,0.97556725 0 0 0 -1.572094,0.82467 l -0.332415,0.77437 z m 46.785485,3.80565 c -0.122469,0.007 -0.264931,0.0157 -1.837029,-0.14032 -1.072223,-0.0979 -1.74955,-0.16681 -2.051972,-0.21047 -5.053702,-0.75716 -8.59779,-2.14175 -10.542293,-4.11539 a 13.106634,6.9414852 0 0 1 -1.299665,-1.94318 c -0.05499,-0.15886 -0.09749,-0.323 -0.122469,-0.48714 a 12.196868,6.4596583 0 0 1 0.617341,-2.54016 c 0.469881,-0.79422 1.394643,-1.69302 2.749296,-2.67389 a 32.809076,17.376217 0 0 1 2.87926,-1.64404 c 1.499614,-0.78098 2.629324,-1.22309 3.474106,-1.34751 a 3.099204,1.6413886 0 0 1 0.384902,-0.049 c 0.08998,-0.009 0.184953,-0.0172 0.279928,-0.0226 a 5.9984594,3.1768811 0 0 1 2.269417,0.10342 c 0.392398,0.0502 1.294667,0.21576 2.749294,0.503 1.049732,0.20916 1.634581,0.229 1.942001,0.20916 h 0.07248 a 0.72231449,0.38254944 0 0 0 0.329916,-0.0728 l 0.859779,-0.3627 0.262431,1.31709 c 0.03998,1.37927 -1.142204,1.77771 -2.139449,1.87435 l -0.182453,0.0145 a 4.3413849,2.2992679 0 0 1 -1.28717,-0.0305 15.855928,8.3975557 0 0 1 -2.169444,-0.40769 8.395344,4.44631 0 0 0 -2.206932,-0.3455 6.2483951,3.3092512 0 0 0 -1.264675,0.0131 c -0.12496,0.007 -0.249936,0.0186 -0.372404,0.0305 a 7.7879999,4.1246508 0 0 0 -2.591836,0.5374 4.7487804,2.515031 0 0 0 -1.657073,0.87101 5.4136097,2.8671352 0 0 0 -0.719815,1.20325 10.267363,5.4377616 0 0 0 0.122468,1.36077 8.7477534,4.6329516 0 0 0 0.454883,0.85246 12.80921,6.783965 0 0 0 2.409381,1.9167 c 2.331901,1.35946 5.701037,2.27149 10.022426,2.71228 l 1.589591,-0.92527 -0.499869,-1.42034 c 0,0 -0.04748,-0.11516 -0.677327,-0.3415 -0.562356,-0.20254 -1.304666,-0.45271 -2.204434,-0.74526 l -0.622342,-0.2012 3.998975,-2.31383 2.076967,0.68834 c 0.999742,0.36532 1.449628,0.62874 1.539603,0.88953 l 1.012242,2.94654 -7.410597,4.27026 z m 18.852653,-13.07155 -1.26717,-0.19061 c -0.95225,-0.15885 -2.15195,-0.52949 -3.689055,-1.13839 -1.574591,-0.62082 -2.694305,-1.5805 -3.331641,-2.85125 l 1.162202,-0.16812 a 0.31491912,0.16678626 0 0 0 -0.03499,-0.0437 c 0.03,0.0226 0.234939,0.15885 1.424643,0.58905 a 11.879449,6.2915485 0 0 0 3.631561,0.83259 c 0.56986,0.0847 2.31191,0.26476 5.18619,0.52155 3.0142,0.27534 5.15616,0.64333 6.5533,1.12779 1.45963,0.50566 2.54684,1.55006 3.32415,3.19144 l -1.04473,0.27931 c -0.54237,-0.34019 -2.39689,-0.88952 -8.12292,-1.59903 -0.56485,0.47916 -0.95725,1.13838 -1.16719,1.96304 q -0.0674,0.26475 -0.11494,0.52949 l -0.11245,1.21779 0.40241,0.0728 a 12.996661,6.8832426 0 0 0 2.39687,0.36931 2.5193531,1.3342902 0 0 0 0.30743,0.0132 2.0419755,1.0814633 0 0 0 0.22743,-0.007 1.0372336,0.5493357 0 0 0 0.8148,-0.25417 1.2621759,0.66846875 0 0 0 0.22993,-0.27929 l 0.22495,-0.87895 0.88228,0.75452 c 0.56485,0.48183 0.79728,0.9372 0.69232,1.3515 a 2.8792605,1.5249029 0 0 1 -0.89227,0.89218 3.8290165,2.0279093 0 0 1 -2.20944,0.57712 4.0114698,2.1245393 0 0 1 -1.01973,0 5.5460756,2.9372914 0 0 1 -0.83978,-0.0979 c -0.58486,-0.0913 -1.05724,-0.16811 -1.41964,-0.22766 -0.0401,0.32561 -0.1274,0.75714 -0.24994,1.28265 l -0.1,0.38916 a 4.6563042,2.4660541 0 0 1 -1.1697,1.22311 c 0.27743,0.0132 0.55486,0.029 0.83728,0.049 2.57435,0.18002 5.40362,0.69097 8.40283,1.50372 l 0.93228,0.25282 -0.88227,0.30049 c -4.79629,1.63345 -4.94123,1.64271 -5.14369,1.65595 h -0.0774 l -0.19245,-0.0132 -0.0975,-0.0277 a 25.833367,13.681768 0 0 0 -8.932706,-1.48915 37.310417,19.7602 0 0 0 -5.698544,-0.16283 l -1.772043,0.0186 1.384644,-0.58639 c 1.662072,-0.70421 3.846511,-1.20986 6.498339,-1.50505 a 4.2838998,2.2688226 0 0 0 0.18995,-0.41962 4.5113414,2.3892794 0 0 0 0.04,-0.30446 l 0.20243,-4.57602 a 8.7477534,4.6329516 0 0 1 0.0825,-0.67376 12.229359,6.4768665 0 0 1 0.48238,-1.09736 9.4975609,5.0300618 0 0 1 1.43214,-1.5024 7.7005223,4.0783211 0 0 1 1.63707,-0.86835 z m 17.82043,15.22255 c 0.19246,0.13237 0.66982,0.42756 1.41463,0.86437 1.10723,0.66186 1.2122,0.69231 1.33467,0.72672 l 0.18244,0.0502 0.20246,-0.0186 c 7.95295,-0.74259 13.11663,-1.72081 15.77344,-3.00613 a 10.764735,5.701178 0 0 0 2.42937,-1.63344 l 0.11494,-0.11516 a 12.549277,6.6463002 0 0 0 1.20469,-2.08881 c 0.33741,-1.34221 -0.20995,-2.71489 -1.62458,-4.08097 a 14.221347,7.5318559 0 0 0 -3.74905,-2.37073 21.33452,11.299107 0 0 0 -2.46186,-0.91071 2.1669435,1.1476483 0 0 0 -0.40989,-0.0913 c -0.30243,-0.0396 -0.93976,-0.0582 -3.42663,0.10191 a 31.779339,16.830852 0 0 0 -3.95898,0.35079 c -2.27191,0.32564 -4.09395,0.73068 -5.41112,1.20457 a 12.651751,6.700572 0 0 0 -3.4991,1.80289 c -0.16745,0.13236 -0.3249,0.274 -0.47486,0.42356 a 13.381563,7.0870924 0 0 0 -1.26968,1.9988 14.021399,7.4259597 0 0 0 0.49987,3.58325 20.322282,10.763009 0 0 0 3.12919,3.20865 z m 2.84177,-8.19106 a 8.1604042,4.3218822 0 0 1 0.61734,-0.79421 9.9474452,5.2683279 0 0 1 1.47213,-1.09073 5.2636482,2.7877131 0 0 1 1.9695,-0.70156 4.7687752,2.5256205 0 0 1 1.1222,-0.14959 4.4638537,2.3641291 0 0 1 1.18469,0.007 7.9129677,4.1908357 0 0 1 2.63184,0.43021 c 0.21743,0.0608 0.42488,0.13238 0.57983,0.18134 a 5.8285032,3.0868696 0 0 1 0.92977,0.46065 c 2.13695,1.50637 3.18418,3.02069 3.1142,4.50057 a 9.4475737,5.0035878 0 0 1 -1.11471,2.24236 11.776975,6.2372768 0 0 1 -1.35965,1.05897 c -1.02975,0.64861 -3.29666,1.15161 -6.74827,1.49444 -2.88426,-1.75389 -4.47635,-3.56075 -4.74878,-5.37288 a 12.351827,6.5417278 0 0 1 0.34991,-2.26751 z m 26.71812,2.7202 -1.4996,-0.0344 1.1847,-0.54669 a 3.796525,2.0107011 0 0 1 1.76454,-0.44743 c 0.10241,-0.0112 0.20996,-0.0212 0.31492,-0.0279 a 3.4991014,1.8531807 0 0 1 1.56961,0.0873 4.8262605,2.5560656 0 0 1 2.05946,0.77703 c 1.86452,1.18205 2.17942,2.33235 0.94727,3.42309 l -7.16566,8.97203 10.96466,-5.0605 a 2.5393477,1.3448797 0 0 0 0.86479,-0.83526 1.9220063,1.0179257 0 0 0 0,-0.3971 l -0.24994,-0.50037 5.26615,0.59699 -0.0174,0.23827 0.0451,0.0662 0.09,0.3733 v 0.02 c 0,0.0822 0,0.18003 0,0.29519 a 3.9239923,2.0782097 0 0 1 -0.31991,0.79423 3.831516,2.0292328 0 0 1 -1.04973,0.777 l -14.97116,6.89516 a 2.3843875,1.2628102 0 0 0 -0.84727,0.83259 2.3294018,1.2336889 0 0 0 0,0.42889 l 0.19494,0.48579 -5.09618,-0.59831 -0.11244,-0.21707 -0.03,-0.02 c -0.69732,-0.57583 -0.96225,-1.29327 -0.7873,-2.13247 a 19.817411,10.495621 0 0 1 0.99974,-2.02925 c 0.82229,-1.21118 2.3319,-3.13057 4.49886,-5.7197 l -7.55058,3.4853 a 2.366892,1.2535443 0 0 0 -0.86227,1.26149 l 0.15995,0.4699 -5.20865,-0.60227 0.035,-0.23297 v -0.0186 c -0.15997,-1.07618 0.47486,-1.95246 1.88952,-2.60506 l 13.56401,-6.24654 c 0.69981,-0.32298 1.1072,-0.63405 1.20717,-0.9266 a 1.5820937,0.8379024 0 0 0 -0.4174,-0.77036 1.884516,0.99807016 0 0 0 -1.43712,-0.31109 z m 32.56665,24.56921 -1.12222,-0.14031 a 14.518771,7.6893762 0 0 1 -3.37412,-0.7042 c -0.81231,-0.23431 -1.82704,-0.56654 -3.02674,-0.98749 a 4.586322,2.4289903 0 0 1 -1.79703,-1.15957 5.4985877,2.9121411 0 0 1 -0.34742,-0.80744 14.686228,7.778064 0 0 1 0.17247,-1.75126 c 0.0649,-0.23032 0.16744,-0.51492 0.30742,-0.8432 l 0.10252,-0.26475 c -1.43214,0.36138 -2.44688,1.04971 -3.07171,2.09939 a 21.172063,11.213067 0 0 0 -0.62235,1.50904 l -0.0924,0.38386 -0.12504,0.39711 c -0.0851,0.3243 -0.15248,0.57316 -0.19994,0.73597 -0.0524,0.19326 -0.15,0.54007 -0.29743,1.03911 l -0.19996,0.62478 -0.17745,0.61024 c -0.49987,1.65859 -0.49987,1.65859 -0.83479,1.73008 l -0.135,0.029 h -0.14499 c -0.0774,0 -0.22492,-0.01 -2.17444,-0.23034 -1.46961,-0.16017 -2.92925,-0.32826 -4.33638,-0.49771 -6.42084,-0.79421 -6.89822,-1.03247 -7.13066,-1.14895 a 4.298896,2.2767649 0 0 1 -1.02223,-0.81011 5.6285545,2.9809735 0 0 1 -0.31993,-1.34887 15.246085,8.0745728 0 0 1 0.34241,-1.09999 l 0.23245,-0.52154 c 0.075,-0.19061 0.1374,-0.35871 0.18494,-0.49506 a 5.1811693,2.744031 0 0 0 -0.23743,-1.50373 3.1791835,1.683747 0 0 0 -1.87202,-0.99541 l 0.21494,-0.61686 c 2.20444,0 4.04897,0.25548 5.48359,0.76511 a 5.4336046,2.8777249 0 0 1 2.09197,1.33959 6.7757599,3.5885521 0 0 1 0.37739,1.64139 24.72865,13.096694 0 0 1 -0.47987,1.46268 l -0.28744,0.68701 c -0.0824,0.24884 -0.14999,0.48579 -0.19994,0.70023 a 0.74980744,0.39711015 0 0 0 0.0373,0.19062 c 0.15245,0.20649 0.82479,0.3521 1.88951,0.41034 a 6.7157753,3.5567832 0 0 0 1.47462,0 l 0.21745,-0.0159 a 3.399127,1.8002326 0 0 0 0.44238,-0.0437 q 0.17246,-0.59303 0.39491,-1.29724 l 0.41989,-1.36341 q 0.56234,-1.81612 0.85977,-2.79301 c 0.3674,-1.2006 1.13221,-2.1338 2.26943,-2.77977 a 6.1134299,3.2377713 0 0 1 2.20942,-0.77038 8.6977663,4.6064778 0 0 1 1.76706,-0.25283 l 0.3974,-0.0291 a 16.553249,8.7668682 0 0 1 1.76954,-0.0582 h 1.05222 1.09221 l 0.24994,0.0265 4.93374,1.64536 -0.025,0.19061 a 26.870598,14.231103 0 0 1 -0.52986,1.76449 l -0.32491,0.84851 c -0.10496,0.30974 -0.18745,0.59169 -0.24993,0.83393 a 4.2913981,2.2727938 0 0 0 0.29492,1.09073 l 0.0625,0.0822 a 6.7657624,3.5832572 0 0 0 1.1472,0.95042 c 0.19494,0.1139 0.41489,0.23297 0.64982,0.35342 a 5.248652,2.7797709 0 0 0 0.55235,0.26472 c 0.54237,0.24888 0.58236,0.26476 0.64485,0.35212 z m -61.03432,15.32448 h 0.0131 c 0,0 0.0132,0 -0.0131,0 z"
       id="path4546"
       inkscape:connector-curvature="0"
       style="fill:#231f20;stroke-width:0.18189012" />
    <path
       class="cls-2"
       d="m 84.113171,253.27209 a 2.4408169,0.99417602 0 0 1 -0.849195,0.40454 c -0.263201,-0.28723 -0.906305,-0.20227 -1.388012,0.0455 -0.07697,-0.31757 1.477402,-0.57143 2.237207,-0.45006 z"
       id="path4554"
       inkscape:connector-curvature="0"
       style="fill:#231f20;fill-rule:evenodd;stroke-width:0.15846951" />
    <path
       class="cls-2"
       d="m 81.086359,253.89104 c -0.347623,0.005 -0.653035,0.2306 -1.030456,0.0809 0.320311,-0.14867 0.643106,-0.27104 1.030456,-0.0809 z"
       id="path4560"
       inkscape:connector-curvature="0"
       style="fill:#231f20;fill-rule:evenodd;stroke-width:0.15846951" />
    <path
       class="cls-2"
       d="m 78.65051,253.30748 c -0.230922,0.20228 -0.556199,-0.0728 -0.799536,0.0738 -0.216023,-0.17496 0.551232,-0.27408 0.799536,-0.0738 z"
       id="path4562"
       inkscape:connector-curvature="0"
       style="fill:#231f20;fill-rule:evenodd;stroke-width:0.15846951" />
    <path
       class="cls-2"
       d="m 81.396739,227.06346 c 0.248303,-0.14665 0.521435,-0.1072 0.819399,0.0202 -0.243337,0.14665 -0.521435,0.1072 -0.819399,-0.0202 z"
       id="path4580"
       inkscape:connector-curvature="0"
       style="fill:#231f20;fill-rule:evenodd;stroke-width:0.15846951" />
    <path
       class="cls-2"
       d="m 90.248736,224.16892 c 0.04717,-0.14968 0.369969,-0.43286 0.725044,-0.45006 0.07697,0.24577 -0.305413,0.2306 -0.725044,0.45006 z"
       id="path4628"
       inkscape:connector-curvature="0"
       style="fill:#231f20;fill-rule:evenodd;stroke-width:0.15846951" />
    <path
       class="cls-2"
       d="m 82.260832,228.75953 c 0.744909,-0.0283 0.469293,-0.22655 0.511504,-0.3732 0.744909,-0.11428 0.0447,0.43287 0.824365,0.29532 a 1.1570913,0.47129809 0 0 1 -0.662968,0.39848 c -0.06207,-0.2579 -0.558681,-0.11327 -0.672901,-0.3206 z"
       id="path4750"
       inkscape:connector-curvature="0"
       style="fill:#231f20;fill-rule:evenodd;stroke-width:0.15846951" />
    <path
       class="cls-2"
       d="m 14.588377,247.48806 c 0.305413,-0.0819 0.866577,0.21846 0.874027,0.30342 -0.54875,0.11731 -0.494124,-0.23869 -0.874027,-0.30342 z"
       id="path4752"
       inkscape:connector-curvature="0"
       style="fill:#231f20;fill-rule:evenodd;stroke-width:0.15846951" />
    <path
       class="cls-2"
       d="m 84.577497,226.64577 c -0.141533,-0.24981 0.394802,-0.091 0.78712,-0.2751 0.161398,0.27004 -0.292996,0.19318 -0.78712,0.2751 z"
       id="path4770"
       inkscape:connector-curvature="0"
       style="fill:#231f20;fill-rule:evenodd;stroke-width:0.15846951" />
    <path
       class="cls-2"
       d="m 86.124424,226.24526 c -0.744909,-0.10113 0.521436,-0.28318 0.451912,-0.43488 0.248303,0.007 0.414665,0.086 0.551231,0.19721 -0.685316,-0.0435 -0.01986,0.089 0.09436,0.27206 -0.531367,0.22048 -1.030456,-0.20733 -1.097498,-0.0344 z"
       id="path4782"
       inkscape:connector-curvature="0"
       style="fill:#231f20;fill-rule:evenodd;stroke-width:0.15846951" />
    <path
       class="cls-2"
       d="m 71.005265,272.9149 a 0.7771879,0.31655859 0 0 1 0.481708,0.0789 0.77470486,0.31554722 0 0 0 -0.444462,0.10923"
       id="path4840"
       inkscape:connector-curvature="0"
       style="fill:#231f20;fill-rule:evenodd;stroke-width:0.15846951" />
    <path
       class="cls-2"
       d="m 72.226913,274.3915 -0.424596,0.20227 c -0.402252,-0.32667 -0.600893,-0.46826 0.424596,-0.20227 z"
       id="path4842"
       inkscape:connector-curvature="0"
       style="fill:#231f20;fill-rule:evenodd;stroke-width:0.15846951" />
    <path
       class="cls-2"
       d="M 92.99993,239.33238"
       id="path4854"
       inkscape:connector-curvature="0"
       style="fill:#231f20;fill-rule:evenodd;stroke-width:0.15846951" />
    <path
       class="cls-2"
       d="m 91.631782,223.50749 c 0.307894,-0.25082 -0.248303,-0.178 -0.429564,-0.41264"
       id="path4872"
       inkscape:connector-curvature="0"
       style="fill:#231f20;fill-rule:evenodd;stroke-width:0.15846951" />
    <path
       class="cls-2"
       d="m 90.452343,222.83594 c 0.213541,-0.091 0.496606,0.10821 0.692766,-0.0222 0.01739,0.13754 0,0.37926 -0.389836,0.3914 -0.744909,-0.24779 0.715113,-0.27307 -0.30293,-0.36915 z"
       id="path4874"
       inkscape:connector-curvature="0"
       style="fill:#231f20;fill-rule:evenodd;stroke-width:0.15846951" />
    <path
       class="cls-2"
       d="m 75.303387,276.42233 c 0.121668,0.0597 -0.03725,0.0748 -0.106769,0.0506 -0.285549,0.088 -0.02483,0.15878 0.161398,0.2316 -0.9361,0.2933 -0.178778,-0.2225 -0.993212,-0.3469 0.290514,-0.0748 0.648071,0.16991 0.938586,0.0647 z"
       id="path4948"
       inkscape:connector-curvature="0"
       style="fill:#231f20;fill-rule:evenodd;stroke-width:0.15846951" />
    <path
       class="cls-2"
       d="m 154.9217,272.03501 -0.40721,-0.14058 c 0.38238,0.0222 0.68281,-0.38533 1.11983,-0.088 -0.46928,0.0607 -0.50653,0.003 -0.71262,0.22857 z"
       id="path4968"
       inkscape:connector-curvature="0"
       style="fill:#231f20;fill-rule:evenodd;stroke-width:0.15846951" />
    <path
       class="cls-2"
       d="m 153.4145,269.50962 c -0.13156,-0.1335 -0.63565,-0.25284 -0.58351,-0.39241 0.48419,-0.23666 1.03046,0.27105 0.58351,0.39241 z"
       id="path4970"
       inkscape:connector-curvature="0"
       style="fill:#231f20;fill-rule:evenodd;stroke-width:0.15846951" />
    <path
       class="cls-2"
       d="m 155.02102,269.97283 c -0.10676,-0.1335 0.34266,-0.28622 0.42212,-0.42579 0.6307,0.22149 -0.067,0.24677 -0.42212,0.42579 z"
       id="path4972"
       inkscape:connector-curvature="0"
       style="fill:#231f20;fill-rule:evenodd;stroke-width:0.15846951" />
    <path
       class="cls-2"
       d="m 158.1968,270.69191 -0.27064,-0.0941 c 0.85168,-0.37825 1.82751,-0.14462 2.80333,0.11429 -0.80699,0.178 -1.74556,-0.31049 -2.53269,-0.0202 z"
       id="path4974"
       inkscape:connector-curvature="0"
       style="fill:#231f20;fill-rule:evenodd;stroke-width:0.15846951" />
    <path
       class="cls-2"
       d="m 154.84224,269.05147 c 0.30045,-0.24677 0.92617,0.14766 0.92865,0.22756 -0.21354,0.0617 -1.08507,-0.0516 -0.92865,-0.22756 z"
       id="path4976"
       inkscape:connector-curvature="0"
       style="fill:#231f20;fill-rule:evenodd;stroke-width:0.15846951" />
    <path
       class="cls-2"
       d="m 158.90694,269.79381 c -0.35754,-0.0668 -0.17877,0.54817 -0.96588,0.23768 -0.19864,-0.17092 0.82436,-0.15373 0.55868,-0.37826 1.18688,0.14969 0.69276,0.31555 1.37559,0.57244 -0.28555,0.25689 -0.69277,-0.089 -0.9932,0.13552 0.21848,-0.1962 -0.008,-0.37724 0.0249,-0.56738 z"
       id="path4978"
       inkscape:connector-curvature="0"
       style="fill:#231f20;fill-rule:evenodd;stroke-width:0.15846951" />
    <path
       class="cls-2"
       d="M 156.44131,273.32349"
       id="path4982"
       inkscape:connector-curvature="0"
       style="fill:#231f20;fill-rule:evenodd;stroke-width:0.15846951" />
    <path
       class="cls-2"
       d="m 156.68712,272.64689 c -0.54625,-0.11934 0.20114,-0.28116 -0.0795,-0.40455 0.41963,-0.0839 0.75484,0.34993 0.0795,0.40455 z"
       id="path4984"
       inkscape:connector-curvature="0"
       style="fill:#231f20;fill-rule:evenodd;stroke-width:0.15846951" />
    <path
       class="cls-2"
       d="m 124.23892,251.13304 c 0.55867,0.0738 -0.0348,0.31555 -0.44943,0.30948 0.0645,-0.11732 -0.14651,-0.15171 -0.0621,-0.27408 0.22843,0.0202 0.45689,0.0394 0.51151,-0.0354 z"
       id="path5000"
       inkscape:connector-curvature="0"
       style="fill:#231f20;fill-rule:evenodd;stroke-width:0.15846951" />
    <path
       class="cls-2"
       d="m 124.08994,251.52849 0.4966,0.0303 c 0.0621,0.19519 -0.293,0.15676 -0.28803,0.31959 -0.66546,-0.0303 -0.37493,-0.1952 -0.20857,-0.34993 z"
       id="path5002"
       inkscape:connector-curvature="0"
       style="fill:#231f20;fill-rule:evenodd;stroke-width:0.15846951" />
    <path
       class="cls-2"
       d="m 123.06692,251.59827 c -0.0769,0.19722 -0.4966,0.20227 -0.63814,0.3651 -0.18623,-0.0222 -0.0894,-0.12844 -0.087,-0.20834 0.0224,-0.12339 -0.53137,-0.0748 -0.5984,-0.17294 0.33023,-0.0668 1.05032,-0.1244 1.32345,0.0162 z"
       id="path5004"
       inkscape:connector-curvature="0"
       style="fill:#231f20;fill-rule:evenodd;stroke-width:0.15846951" />
    <path
       class="cls-2"
       d="m 94.045287,251.11484 c -0.01739,0.17698 -0.307897,0.20227 -0.722563,0.15676 0.01986,-0.17901 0.310379,-0.20329 0.722563,-0.15676 z"
       id="path5010"
       inkscape:connector-curvature="0"
       style="fill:#231f20;fill-rule:evenodd;stroke-width:0.15846951" />
    <path
       class="cls-2"
       d="m 103.10835,252.16059 c 0.7449,0.18913 -0.37992,0.31353 -0.0398,0.53805 -0.74739,-0.0607 0.0771,-0.36713 0.0398,-0.53805 z"
       id="path5014"
       inkscape:connector-curvature="0"
       style="fill:#231f20;fill-rule:evenodd;stroke-width:0.15846951" />
    <path
       class="cls-2"
       d="m 101.09957,252.64099 c 0.39976,0 0.3079,0.1426 0.78465,0.11732 -0.11667,0.34387 -0.84672,0.0809 -0.78465,-0.11732 z"
       id="path5016"
       inkscape:connector-curvature="0"
       style="fill:#231f20;fill-rule:evenodd;stroke-width:0.15846951" />
    <path
       class="cls-2"
       d="m 95.065809,252.80079 c -0.543783,-0.009 -0.86906,0.10113 -1.241514,0.19216 -0.322792,-0.0405 -0.248302,-0.20228 -0.571095,-0.23869 0.516468,-0.10821 1.569273,-0.32161 1.812609,0.0465 z"
       id="path5018"
       inkscape:connector-curvature="0"
       style="fill:#231f20;fill-rule:evenodd;stroke-width:0.15846951" />
    <path
       class="cls-2"
       d="m 125.76101,255.78433 c -0.0546,-0.0688 -0.10675,-0.13856 -0.29796,-0.16587 -0.46184,-0.0111 0.19367,0.13856 -0.10923,0.28723 -0.5438,-0.008 -0.27562,-0.25689 -0.39233,-0.3914 0.34267,-0.10821 0.56613,0.10114 1.24153,0.0779 -0.0595,0.0809 0,0.13046 0.12161,0.15474 -0.10923,0.20227 -0.42213,0.28621 -0.99322,0.23059 0.0919,-0.09 0.34762,-0.0931 0.42956,-0.19317 z"
       id="path5020"
       inkscape:connector-curvature="0"
       style="fill:#231f20;fill-rule:evenodd;stroke-width:0.15846951" />
    <path
       class="cls-2"
       d="m 135.18162,257.55625 0.5264,0.0334 c -0.32775,0.21138 -0.12917,0.23767 -0.19119,0.50569 -0.59593,-0.13452 -0.64558,-0.0364 -1.20427,-0.14969 0.12917,-0.2225 0.92369,-0.0698 0.86906,-0.38937 z"
       id="path5022"
       inkscape:connector-curvature="0"
       style="fill:#231f20;fill-rule:evenodd;stroke-width:0.15846951" />
    <path
       class="cls-2"
       d="m 145.3521,258.78708 c 0.16388,0.14969 0.26071,0.48647 -0.0422,0.58457 -0.41467,-0.20935 -0.0422,-0.28419 0.0422,-0.58457 z"
       id="path5024"
       inkscape:connector-curvature="0"
       style="fill:#231f20;fill-rule:evenodd;stroke-width:0.15846951" />
    <path
       class="cls-2"
       d="m 94.472367,254.79015 c -0.168846,0.14665 -0.60586,0.1426 -0.774706,0.28925 -0.618274,-0.16586 0.886441,-0.26498 -0.223471,-0.28419 a 0.66048556,0.26902423 0 0 1 0.998177,-0.005 z"
       id="path5026"
       inkscape:connector-curvature="0"
       style="fill:#231f20;fill-rule:evenodd;stroke-width:0.15846951" />
    <path
       class="cls-2"
       d="m 132.00086,260.21918 c -0.24831,0.18508 -0.51151,-0.13451 -1.05777,-0.0668 0.4966,-0.22958 0.4842,-0.41365 0.47674,-0.77774 0.20112,0.0243 0.32032,0 0.3799,-0.0496 0.4842,0.34083 -0.85415,0.69178 0.20113,0.89405 z"
       id="path5028"
       inkscape:connector-curvature="0"
       style="fill:#231f20;fill-rule:evenodd;stroke-width:0.15846951" />
    <path
       class="cls-2"
       d="m 139.67093,259.97038 c 0.082,-0.10113 1.51217,-0.0748 1.20428,0.14969 -0.4544,-0.14463 -0.77967,0.0354 -1.20428,-0.14969 z"
       id="path5030"
       inkscape:connector-curvature="0"
       style="fill:#231f20;fill-rule:evenodd;stroke-width:0.15846951" />
    <path
       class="cls-2"
       d="M 149.45904,261.25078"
       id="path5032"
       inkscape:connector-curvature="0"
       style="fill:#231f20;fill-rule:evenodd;stroke-width:0.15846951" />
    <path
       class="cls-2"
       d="m 127.88152,260.61968 c 0.11666,-0.20227 0.0944,-0.36712 -0.18871,-0.45309 0.29796,-0.20227 0.65303,0.0931 0.85417,0.12743 -0.21107,0.1153 -0.14155,0.38533 -0.66546,0.32566 z"
       id="path5034"
       inkscape:connector-curvature="0"
       style="fill:#231f20;fill-rule:evenodd;stroke-width:0.15846951" />
    <path
       class="cls-2"
       d="m 142.41468,261.7595 0.13656,-0.35803 c -0.62571,-0.088 -0.7449,0.11226 -1.2862,0.0657 0.22596,-0.13552 0.46929,-0.26093 0.69276,-0.39646 0.3948,0.22756 0.41467,-0.0607 0.90879,-0.0162 -0.33521,0.26903 0.52392,0.18306 0.18872,0.45208 l 1.05529,0.0668 c -0.0695,0.12743 0.15891,0.16485 0.067,0.29734 -0.43453,0 -0.33273,-0.15474 -0.85417,-0.12743 0.4246,-0.24779 -0.50654,-0.10519 -0.90879,0.0162 z"
       id="path5036"
       inkscape:connector-curvature="0"
       style="fill:#231f20;fill-rule:evenodd;stroke-width:0.15846951" />
    <path
       class="cls-2"
       d="m 115.89594,259.4202 c -0.22347,0.19317 0.1763,0.20227 0.0398,0.37016 -0.55621,-0.20227 -0.63567,0.11429 -1.05529,-0.0668 0.17629,-0.19216 0.34018,-0.3914 1.01555,-0.30341 z"
       id="path5038"
       inkscape:connector-curvature="0"
       style="fill:#231f20;fill-rule:evenodd;stroke-width:0.15846951" />
    <path
       class="cls-2"
       d="m 125.93482,260.05534 0.35259,0.0222 c -0.12409,0.24374 0.62573,0.0233 0.79705,0.27105 -0.36251,0.29633 -0.60834,-0.14058 -1.40787,-0.089 -0.005,-0.11935 0.21354,-0.11328 0.25823,-0.2043 z"
       id="path5040"
       inkscape:connector-curvature="0"
       style="fill:#231f20;fill-rule:evenodd;stroke-width:0.15846951" />
    <path
       class="cls-2"
       d="m 140.90003,261.004 c 0.1614,0.0576 0.11914,0.17598 0.47178,0.17699 0,0.11935 -0.21354,0.11328 -0.24831,0.20228 l -0.35259,-0.0222 c -0.29298,-0.15474 0.14652,-0.12238 0.12917,-0.35702 z"
       id="path5042"
       inkscape:connector-curvature="0"
       style="fill:#231f20;fill-rule:evenodd;stroke-width:0.15846951" />
    <path
       class="cls-2"
       d="m 124.7678,260.27582 c 0.35011,-0.18104 0.83678,0.12642 0.79705,0.27105 -0.56364,-0.001 -0.38984,-0.22352 -0.79705,-0.27105 z"
       id="path5044"
       inkscape:connector-curvature="0"
       style="fill:#231f20;fill-rule:evenodd;stroke-width:0.15846951" />
    <path
       class="cls-2"
       d="m 138.67772,261.15571 c 0.86906,0 0.37742,0.39646 1.09501,0.43691 a 0.84671269,0.34487693 0 0 0 -0.24829,0.20227 c -0.59592,-0.12035 -0.46681,-0.45511 -0.84672,-0.63918 z"
       id="path5046"
       inkscape:connector-curvature="0"
       style="fill:#231f20;fill-rule:evenodd;stroke-width:0.15846951" />
    <path
       class="cls-2"
       d="m 134.81662,261.35192 c 0.27313,-0.0152 -0.0348,-0.10114 0.082,-0.21543 0.47177,0.008 0.53881,0.13654 0.41714,0.32061 l -1.40787,-0.089 c 0.0496,-0.18003 -0.24831,-0.24273 0.13656,-0.35904 0.2781,0.10822 0.42708,0.25588 0.77223,0.34286 z"
       id="path5048"
       inkscape:connector-curvature="0"
       style="fill:#231f20;fill-rule:evenodd;stroke-width:0.15846951" />
    <path
       class="cls-2"
       d="m 139.28358,261.92941 c 0.13656,-0.15575 0.87899,0.0253 1.2589,0.006 -0.23588,0.24475 -1.09005,0.14766 -1.2589,-0.006 z"
       id="path5050"
       inkscape:connector-curvature="0"
       style="fill:#231f20;fill-rule:evenodd;stroke-width:0.15846951" />
    <path
       class="cls-2"
       d="m 139.37793,262.15494 c 0.0323,0.27914 -0.34514,0.32971 -0.3948,0.56232 -0.78711,-0.27509 0.14651,-0.46927 -0.9212,-0.42578 0.15147,-0.27611 0.84176,-0.26094 1.316,-0.13654 z"
       id="path5052"
       inkscape:connector-curvature="0"
       style="fill:#231f20;fill-rule:evenodd;stroke-width:0.15846951" />
    <path
       class="cls-2"
       d="m 122.82856,261.10514 c -0.24831,0.33679 -0.96591,-0.11428 -1.46251,0.0546 0.24086,-0.33275 1.05032,0.089 1.46251,-0.0546 z"
       id="path5054"
       inkscape:connector-curvature="0"
       style="fill:#231f20;fill-rule:evenodd;stroke-width:0.15846951" />
    <path
       class="cls-2"
       d="m 139.6759,262.31878 c 0.37991,0.0546 0,0.38938 -0.16388,0.42984 -0.38238,-0.0526 0.005,-0.38635 0.16388,-0.42984 z"
       id="path5056"
       inkscape:connector-curvature="0"
       style="fill:#231f20;fill-rule:evenodd;stroke-width:0.15846951" />
    <path
       class="cls-2"
       d="m 101.61605,254.76992 c 0.21354,-0.18609 0.18374,0.16789 0.62323,0.1062 0.0497,0.18811 -0.37245,0.11226 -0.42459,0.24374 -0.63566,-0.0384 0.0969,-0.33375 -0.19864,-0.34994 z"
       id="path5070"
       inkscape:connector-curvature="0"
       style="fill:#231f20;fill-rule:evenodd;stroke-width:0.15846951" />
    <path
       class="cls-2"
       d="m 145.97037,260.00174 c -0.66793,-0.11226 -0.61827,0.23868 -1.51712,0.20227 0.067,-0.22351 0.34515,-0.32869 0.54378,-0.4804 0.0645,0.29937 0.47923,0.10316 0.97334,0.27813 z"
       id="path5072"
       inkscape:connector-curvature="0"
       style="fill:#231f20;fill-rule:evenodd;stroke-width:0.15846951" />
    <path
       class="cls-2"
       d="m 147.02567,260.06849 c -0.072,0.13451 -0.6009,0.0131 -0.61083,0.18204 -0.20857,-0.12338 -0.53386,-0.35094 -0.18871,-0.45309 1.04038,0.0566 -0.28555,0.41871 0.79954,0.27105 z"
       id="path5074"
       inkscape:connector-curvature="0"
       style="fill:#231f20;fill-rule:evenodd;stroke-width:0.15846951" />
    <path
       class="cls-2"
       d="m 140.35377,262.43711 c 0.20609,-0.1163 0.4966,-0.18204 0.66546,-0.32465 a 0.99321137,0.40454772 0 0 0 0.67787,0.11631 c 0.12408,-0.18508 -0.6605,-0.10113 -0.41716,-0.3206 0.65552,0.23969 0.13409,-0.0809 0.73001,-0.0273 -0.0595,0.26498 0.13656,0.29026 -0.19119,0.50569 -0.2483,-0.0101 -0.49661,-0.0192 -0.49661,-0.10114 -0.19865,0.006 -0.17381,0.13552 -0.40721,0.12136 -0.0969,0.17699 0.18374,0.24172 0.41962,0.32061 -0.29796,0.0951 -0.7449,0.1072 -1.2862,0.0657 0.0323,-0.28116 0.51398,0.0718 0.78464,-0.17092 a 0.49660568,0.20227386 0 0 0 -0.47923,-0.18509 z"
       id="path5076"
       inkscape:connector-curvature="0"
       style="fill:#231f20;fill-rule:evenodd;stroke-width:0.15846951" />
    <path
       class="cls-2"
       d="m 135.5938,259.79036 c 0.29548,0.2933 0,0.49861 0.40226,0.83337 -0.76974,-0.0819 -1.02798,0.12238 -1.0702,0.44601 -0.40224,-0.0708 -0.78463,-0.14867 -0.7722,-0.34285 0.92616,0.2579 -0.62574,-0.3469 0.6108,-0.18104 0,-0.086 -0.29794,-0.0809 -0.4966,-0.10113 0.19367,-0.13249 0.71513,-0.21846 0.9361,-0.088 0.11914,-0.0779 0.26073,-0.29027 0.38984,-0.56637 z"
       id="path5078"
       inkscape:connector-curvature="0"
       style="fill:#231f20;fill-rule:evenodd;stroke-width:0.15846951" />
    <path
       class="cls-1"
       d="m 174.91549,250.17426 -2.01043,0.22917 a 82.137389,30.800629 0 0 1 -11.2867,23.58076 l 1.78841,0.40968 a 84.252556,31.593795 0 0 0 11.50872,-24.21961 z"
       id="path5080"
       inkscape:connector-curvature="0"
       style="fill:#231f20;stroke-width:0.152742" />
    <path
       class="cls-1"
       d="m 14.497049,256.04942 a 105.71042,31.596359 0 0 1 2.565243,-6.93899 l -2.584479,-0.23481 a 108.2949,32.368848 0 0 0 15.032316,24.89505 l 2.299097,-0.41979 A 104.8703,31.345252 0 0 1 14.497049,256.04942 Z"
       id="path5082"
       inkscape:connector-curvature="0"
       style="fill:#231f20;stroke-width:0.17530648" />
    <path
       class="cls-1"
       d="m 33.861421,272.93109 4.739285,-0.86258 A 97.29322,29.080496 0 0 1 24.732364,249.83308 l -5.332495,-0.48497 a 102.86942,30.747196 0 0 0 14.461552,23.58586 z"
       id="path5084"
       inkscape:connector-curvature="0"
       style="fill:#231f20;stroke-width:0.17530648" />
    <path
       class="cls-1"
       d="m 169.04888,257.20716 a 75.19325,28.03048 0 0 1 -12.36176,15.43973 l 3.68657,0.83684 c 6.94664,-3.95826 12.99284,-10.99238 12.99284,-16.2803 a 80.134463,29.872462 0 0 0 -1.9281,-6.5255 l -4.14803,0.47049 a 75.826801,28.266656 0 0 1 1.75848,6.05874 z"
       id="path5086"
       inkscape:connector-curvature="0"
       style="fill:#231f20;stroke-width:0.15229127" />
    <path
       class="cls-1"
       d="m 57.083204,277.22636 a 14.828,6.7298371 0 0 0 -2.015609,-2.60021 22.077941,10.020295 0 0 0 -1.778632,-1.17011 2.3124805,1.0495426 0 0 0 -0.335935,-0.143 c -0.260411,-0.0839 -0.888012,-0.20684 -3.416637,-0.48223 a 37.08823,16.832867 0 0 0 -3.856737,-0.35456 l -0.260416,-0.013 c -2.440083,-0.10401 -4.497358,-0.0662 -6.109325,0.11231 a 13.171765,5.9781377 0 0 0 -4.664021,0.9278 c -0.260415,0.0828 -0.50781,0.17611 -0.755203,0.27539 a 13.939987,6.3268033 0 0 0 -2.604145,1.46085 14.583211,6.6187369 0 0 0 -1.986961,3.07299 21.174303,9.6101697 0 0 0 0.854158,3.21363 c 0.09637,0.14655 0.354164,0.45976 0.781244,0.95735 0.622389,0.7387 0.705723,0.78006 0.802075,0.82734 l 0.143229,0.0733 0.210934,0.0177 c 1.859361,0.15602 3.617158,0.28011 5.22652,0.36875 5.544224,0.30494 9.549399,0.21511 12.239482,-0.27183 a 11.226469,5.0952456 0 0 0 3.484345,-0.96563 l 0.192706,-0.078 a 13.09364,5.9426802 0 0 0 2.604146,-1.54713 c 1.273427,-1.06727 1.68488,-2.30711 1.244782,-3.68167 z m -19.468589,5.04679 c -1.606756,-1.94426 -1.916651,-3.71949 -0.927075,-5.27844 a 12.882703,5.8469449 0 0 1 1.885402,-1.84852 8.5936778,3.9003271 0 0 1 1.151031,-0.56378 10.328038,4.687484 0 0 1 2.18748,-0.66778 5.4687041,2.4820263 0 0 1 2.403627,-0.2612 5.2082896,2.3638346 0 0 1 0.656247,0.0166 4.6457943,2.1085404 0 0 1 1.692693,0.24703 8.2212852,3.731313 0 0 1 2.281231,0.79897 c 0.164061,0.0839 0.322912,0.17374 0.4401,0.2482 a 5.86193,2.6604959 0 0 1 0.591141,0.53895 c 1.041656,1.61332 1.028637,3.0529 -0.05989,4.27972 a 9.8306467,4.4617378 0 0 1 -2.630184,1.69015 12.325416,5.5940146 0 0 1 -2.062485,0.66542 c -1.218738,0.31321 -3.234348,0.39476 -5.989531,0.24347 -0.513018,-0.0296 -1.057285,-0.0662 -1.61978,-0.10868 z m 39.244463,-0.34157 c 1.104158,0.65951 1.505196,1.70669 1.229154,3.20417 l -1.210924,0.0792 c -0.322914,-0.37821 -1.72134,-1.10982 -6.55203,-2.45248 l -0.114575,-0.0261 a 14.898313,6.761749 0 0 0 -1.929672,1.3604 c -0.187499,0.16902 -0.367185,0.34629 -0.536455,0.52831 l -0.971345,1.10628 0.260413,0.0555 a 11.635319,5.2808065 0 0 1 5.046833,2.24565 l 0.497392,0.41367 -6.531197,0.0497 -0.08855,-0.23639 a 4.4270463,2.0092594 0 0 0 -0.585933,-0.75053 c -0.210937,0.23639 -0.43229,0.45386 -0.658849,0.65952 -1.427074,1.29183 -3.195287,2.1109 -5.255165,2.43239 -2.013004,0.31084 -3.726532,0.4314 -5.093709,0.35458 a 5.5233912,2.5068466 0 0 1 -1.041656,-0.10167 l 0.312498,-0.55079 h 0.07552 a 2.2239396,1.0093574 0 0 0 1.197906,-0.12882 4.0702784,1.8473367 0 0 0 1.302073,-0.47277 6.9296294,3.145082 0 0 0 0.890617,-0.62523 10.296789,4.673301 0 0 0 0.440101,-0.45976 l 1.8229,-2.63451 a 33.012743,14.983166 0 0 0 -3.429658,-0.57086 l 0.153646,-0.55549 a 34.286169,15.561123 0 0 1 4.078091,-0.0236 13.351451,6.05969 0 0 1 0.809889,-0.91834 10.937408,4.9640528 0 0 1 0.619787,-0.48932 13.559783,6.1542434 0 0 1 4.140591,-1.89934 13.8853,6.3019831 0 0 1 -3.325492,-1.73387 c -1.109367,-0.84152 -1.580718,-1.85916 -1.398428,-3.02334 l 1.252593,0.0366 a 0.33072638,0.1501035 0 0 0 0,-0.0425 c 0.01299,0.0236 0.130201,0.16901 1.04166,0.71506 a 12.354062,5.6070157 0 0 0 3.046849,1.2611 c 0.486975,0.15483 2.083315,0.56732 4.747354,1.22921 2.781229,0.69141 4.669233,1.33437 5.757765,1.96197 z m 41.814762,6.39299 a 13.078015,5.9355887 0 0 0 -1.08855,-1.89107 c -1.08853,-1.10391 -2.99474,-2.00926 -5.65618,-2.69713 a 14.999875,6.8078437 0 0 0 -5.22914,-0.84153 c -0.17707,-0.0118 -0.35416,-0.0224 -0.53384,-0.0308 a 22.002419,9.9860192 0 0 0 -3.12498,-0.0804 2.1978982,0.99753825 0 0 0 -0.45572,0.0319 c -0.30989,0.0449 -0.90364,0.19147 -2.934877,0.92898 a 33.333053,15.128542 0 0 0 -3.148411,1.24929 c -1.67707,0.8108 -2.86456,1.57076 -3.552054,2.25864 a 13.184785,5.9840474 0 0 0 -1.24478,2.24565 c 0,0.13947 0,0.2872 0.01562,0.43967 a 13.942592,6.3279852 0 0 0 0.932283,1.83315 14.604044,6.6281922 0 0 0 4.140591,2.60022 21.169092,9.6078057 0 0 0 6.098908,1.65468 c 0.30991,0.0555 1.01562,0.15602 2.15103,0.30613 a 15.549349,7.0572283 0 0 0 1.74476,0.21629 l 0.12237,0.006 0.28124,-0.008 0.16146,-0.065 c 6.28641,-2.53994 9.84366,-4.57048 10.87751,-6.20152 a 11.174385,5.0716072 0 0 0 0.46354,-1.83789 z M 97.877131,286.1262 a 4.7421479,2.1522714 0 0 1 1.89842,-0.6796 8.2395142,3.7395864 0 0 1 2.786439,-0.3274 c 0.26042,-0.007 0.5052,-0.01 0.70051,-0.006 l 0.33593,0.0201 a 5.0129788,2.2751909 0 0 1 0.96615,0.0981 c 3.45049,0.61342 5.94527,1.50458 7.4114,2.64631 a 9.8358549,4.4641016 0 0 1 1.32812,1.97971 12.320209,5.5916508 0 0 1 -0.10405,1.14646 c -0.24481,0.74934 -1.73437,1.69369 -4.42706,2.80943 -4.36715,-0.61579 -7.64838,-1.59324 -9.755137,-2.90516 a 12.867079,5.8398534 0 0 1 -2.059876,-1.80951 8.5936778,3.9003271 0 0 1 -0.27604,-0.75761 10.385329,4.7134862 0 0 1 0.177082,-1.19493 5.4869331,2.4902998 0 0 1 1.018219,-1.0188 z m 45.749619,2.74205 0.98959,0.0247 -3.55207,2.9548 -0.5078,-0.0839 a 4.6874607,2.1274511 0 0 0 -1.04167,-0.1123 c -1.7109,-0.0945 -3.96612,0.15718 -6.70046,0.74815 a 43.595989,19.786477 0 0 0 -4.97912,1.29184 l -1.49738,0.4444 0.55987,-0.77179 c 0.76304,-1.05309 0.41406,-2.29174 -1.04165,-3.68168 -0.95834,-0.9148 -2.40621,-1.91233 -4.30465,-2.96424 a 12.114481,5.4982794 0 0 1 -0.94792,-0.74692 14.583211,6.6187369 0 0 1 -1.21872,-1.84498 c -0.69009,-1.95961 0.87239,-3.56229 4.59632,-4.75957 a 3.3411176,1.5163999 0 0 1 1.27342,-0.47278 5.5676617,2.5269393 0 0 1 2.7552,-0.18792 c 0.15104,0 0.30205,0.0105 0.45571,0.0189 1.69271,0.0934 3.28383,0.44085 4.73694,1.03299 a 4.1978813,1.9052507 0 0 1 1.0026,0.60278 4.8541259,2.2030939 0 0 1 0.43749,0.97508 c 0,0.32503 -0.27864,0.9869 -2.58592,2.95479 l -0.099,0.0744 -0.086,0.0603 -0.0886,0.0532 -1.10936,-0.25766 c 0.48957,-0.7517 0.49217,-1.36748 0,-1.83079 -0.44271,-0.42195 -1.28126,-0.73042 -2.5703,-0.94553 a 5.8827631,2.6699511 0 0 0 -1.30207,-0.14065 7.2473351,3.2892759 0 0 0 -3.10934,0.16311 l -0.22136,0.0273 c 0.0755,0.51531 0.49999,1.14763 1.27081,1.88397 0.27866,0.26474 0.60156,0.54486 0.96616,0.82735 2.78903,2.17591 4.33326,3.41455 4.7213,3.78213 l 0.0365,0.0354 a 11.005116,4.9947826 0 0 1 0.78125,2.53048 23.765426,10.786178 0 0 1 3.36194,-0.93489 18.489427,8.3916128 0 0 1 9.01817,-0.75052 z m 23.80188,-9.13858 a 11.585841,5.2583501 0 0 0 -0.47397,-1.51641 c -0.74479,-1.10036 -2.21872,-2.14753 -4.38015,-3.11198 a 26.588319,12.067376 0 0 0 -2.92446,-1.11929 c -1.99738,-0.67722 -3.90621,-1.0909 -5.70828,-1.228 q -0.26042,-0.0201 -0.53645,-0.0343 a 11.494695,5.216983 0 0 0 -4.263,0.1182 c -2.12498,0.25528 -4.36975,0.88406 -6.664,1.86978 -2.2031,0.94554 -3.56767,1.51167 -4.05985,1.68423 a 12.398335,5.6271083 0 0 1 -3.57811,0.93017 c -1.42186,0.22103 -1.76039,0.22575 -1.8229,0.22456 l 0.0677,0.007 -0.0728,0.0968 -0.36198,0.43732 0.0391,0.006 a 13.817594,6.2712533 0 0 0 2.96613,0.32857 9.2395058,4.1934426 0 0 0 4.92965,-0.30731 25.169061,11.42323 0 0 0 3.82549,-0.92425 7.9895163,3.6261223 0 0 0 0.35936,1.08026 9.9139792,4.4995591 0 0 0 1.47133,1.34739 12.778539,5.7996683 0 0 0 1.42707,0.76942 9.2629431,4.2040799 0 0 0 1.0078,0.39241 l 7.05725,2.51867 c 0.23958,0.0887 0.45572,0.17728 0.64843,0.26356 a 5.9270336,2.6900438 0 0 1 0.66145,0.34512 c -1.38541,1.07555 -2.05208,2.12745 -1.98178,3.13918 l 0.0652,0.94552 1.09375,-0.80252 a 24.012818,10.898459 0 0 1 3.26297,-1.90998 18.726406,8.4991673 0 0 1 3.61196,-1.30837 c 1.30208,-0.35459 2.41144,-0.57324 3.32027,-0.65007 l 0.21355,-0.0236 0.13797,-0.065 c 0.17968,-0.0839 0.26043,-0.11819 0.375,-1.05426 l 0.0573,-0.35458 c 0,-0.078 0,-0.16902 0.0234,-0.27893 0.0285,-0.21866 0.0418,-0.34039 0.0389,-0.34039 v 0 c 0.13026,-0.64297 0.17447,-1.13702 0.16924,-1.47504 z m -7.84888,2.32246 a 8.5181575,3.8660515 0 0 0 -2.1901,-1.65469 l -0.20574,-0.0922 c -0.36716,-0.16428 -0.80988,-0.34275 -1.30205,-0.5283 l -1.53908,-0.57443 -3.55983,-1.33675 q -0.39844,-0.16428 -0.78126,-0.32974 c -1.16145,-0.51768 -1.9505,-1.01646 -2.34373,-1.48567 l 0.7526,-0.26712 a 3.4661169,1.5731319 0 0 1 1.30208,-0.30493 5.2890181,2.400474 0 0 1 1.54685,-0.1088 c 0.14322,0 0.28646,0.007 0.4323,0.0153 a 7.7082687,3.4984752 0 0 1 2.74217,0.43967 c 0.45311,0.11231 0.97394,0.25767 1.54163,0.43141 l 0.7422,0.23637 0.73176,0.23638 a 35.132517,15.945246 0 0 1 4.50517,1.65469 15.202997,6.9000332 0 0 1 1.75781,0.91836 c 0.5703,0.36047 0.83593,0.88643 0.78124,1.56485 a 18.104014,8.2166892 0 0 0 -4.74216,1.46794 q -0.0677,-0.12765 -0.17186,-0.28248 z m -30.36434,-28.8766 h 0.0136 c 0,0 0.0157,0.006 -0.0136,0 z"
       id="path5088"
       inkscape:connector-curvature="0"
       style="fill:#231f20;stroke-width:0.175439" />
    <path
       class="cls-1"
       d="m 149.10644,261.90311 a 0.86657692,0.35296789 0 0 0 -0.11431,-0.48242 c -1.42774,-0.50569 -4.95117,-1.78507 -5.99652,-2.11275 -0.36748,-0.1153 -1.33089,0.23868 -1.76791,0.30341 h -0.0117 l -14.89072,-5.55343 c 0,0 0.77222,-0.5603 0.27314,-0.92237 -0.40723,-0.29532 -4.74756,-1.80833 -6.3367,-2.3575 a 0.56861351,0.23160357 0 0 0 -0.88892,0.0839 l -0.35755,0.26599 -15.47425,-6.63964 c 0,0 -1.9169,6.23206 -18.414135,8.48741 l 22.441615,4.78479 -0.77222,0.29735 a 0.83678058,0.34083145 0 0 0 0.10185,0.52894 l 5.77055,1.22376 a 2.0683627,0.84247063 0 0 0 2.1801,0.0394 l 1.18937,-0.40455 c 0,0 13.40835,3.3709 16.88458,4.31349 l -0.4966,0.22756 a 1.132261,0.4611844 0 0 0 0.3675,0.60076 l 5.36582,1.29859 c 0.61331,0.16688 2.06339,0.34286 2.3961,0.26701 0.12658,-0.0283 0.3377,-0.0627 0.58601,-0.11328 1.02796,-0.21137 2.19748,-0.31959 3.84124,-0.33678 v 0 a 3.1335819,1.2763481 0 0 0 2.8679,-0.43489 l 4.11437,-1.97116 -3.3347,-1.14689 z"
       id="path5092"
       inkscape:connector-curvature="0"
       style="fill:#231f20;stroke-width:0.15846951" />
    <path
       class="cls-1"
       d="m 81.20803,235.34455 q -0.114213,0.10114 -0.216025,0.21239 c -3.344639,3.47102 -11.421931,4.44497 -11.70003,9.19638 a 20.653831,8.4125698 0 0 0 7.357214,6.68313 l 0.310378,0.10114 c 4.543941,1.47559 10.607497,1.90339 16.169481,1.22072 6.510505,-0.79999 17.338992,-3.26571 11.603182,-10.675 -0.0844,-0.11024 -0.16883,-0.22149 -0.24829,-0.33274 -0.38238,-0.55524 -2.48302,-3.12615 -11.342477,-8.10006 -6.480703,-3.64093 -6.187706,-6.94507 -4.402409,-10.55971 0,0 -5.822702,2.28165 -6.048657,6.86821 -0.193677,3.91906 -1.194337,5.11955 -1.482367,5.38554 z m 11.886255,15.3182 c -1.544443,0.50569 -2.798373,0.67155 -4.427239,0.82326 -6.746389,0.62806 -12.335685,-1.09633 -14.788917,-3.56407 -3.540799,-3.56103 5.648889,-7.98982 5.648889,-7.98982 0,0 -0.568615,1.36839 1.263862,2.55776 0,0 -0.0447,-1.16611 3.399266,-3.72285 3.443961,-2.55674 2.483027,-4.31754 1.959109,-4.93751 0,0 6.972345,2.93297 4.742585,7.01385 0,0 -1.77785,2.55977 -0.82685,3.99491 a 9.5447612,3.8877036 0 0 1 2.185067,-2.7307 c 0,0 -0.677867,0.84652 1.489816,2.49808 2.167684,1.65157 4.675537,4.30136 -0.648071,6.05709 z"
       id="path5094"
       inkscape:connector-curvature="0"
       style="fill:#231f20;stroke-width:0.15846951" />
    <path
       class="cls-1"
       d="m 81.396739,227.06346 c 0,0 -0.98803,1.88908 1.89181,3.41406 2.879839,1.525 2.314978,2.37648 2.314978,2.37648 0,0 1.629483,-1.63665 0,-2.87899 -1.629485,-1.24233 -3.111529,-1.53779 -4.206788,-2.91155 z"
       id="path5096"
       inkscape:connector-curvature="0"
       style="fill:#231f20;stroke-width:0.14924255" />
  </g>
</svg>
