<?xml version="1.0" encoding="UTF-8" standalone="no"?>
<!-- Created with Inkscape (http://www.inkscape.org/) -->

<svg
   xmlns:dc="http://purl.org/dc/elements/1.1/"
   xmlns:cc="http://creativecommons.org/ns#"
   xmlns:rdf="http://www.w3.org/1999/02/22-rdf-syntax-ns#"
   xmlns:svg="http://www.w3.org/2000/svg"
   xmlns="http://www.w3.org/2000/svg"
   xmlns:sodipodi="http://sodipodi.sourceforge.net/DTD/sodipodi-0.dtd"
   xmlns:inkscape="http://www.inkscape.org/namespaces/inkscape"
   width="500"
   height="300"
   viewBox="0 0 132.29166 79.375002"
   version="1.1"
   id="svg5822"
   inkscape:version="0.92.3 (2405546, 2018-03-11)"
   sodipodi:docname="Logo2.svg">
  <defs
     id="defs5816" />
  <sodipodi:namedview
     id="base"
     pagecolor="#ffffff"
     bordercolor="#666666"
     borderopacity="1.0"
     inkscape:pageopacity="0.0"
     inkscape:pageshadow="2"
     inkscape:zoom="1.4"
     inkscape:cx="353.62861"
     inkscape:cy="154.90557"
     inkscape:document-units="mm"
     inkscape:current-layer="layer1"
     showgrid="false"
     units="px"
     inkscape:window-width="1360"
     inkscape:window-height="705"
     inkscape:window-x="-8"
     inkscape:window-y="-8"
     inkscape:window-maximized="1" />
  <metadata
     id="metadata5819">
    <rdf:RDF>
      <cc:Work
         rdf:about="">
        <dc:format>image/svg+xml</dc:format>
        <dc:type
           rdf:resource="http://purl.org/dc/dcmitype/StillImage" />
        <dc:title></dc:title>
      </cc:Work>
    </rdf:RDF>
  </metadata>
  <g
     inkscape:label="Layer 1"
     inkscape:groupmode="layer"
     id="layer1"
     transform="translate(0,-217.62498)">
    <path
       class="cls-2"
       d="m 114.67436,269.94801 c 0.34972,0.10114 0.65986,-0.0799 0.98978,-0.1517 0.0215,0.22654 0.37117,0.11428 0.63016,0.3297 a 0.65985348,0.40454772 0 0 1 -0.21775,0.26802 c 0.20456,0.0657 0.38272,-0.0728 0.60377,0.12439 -0.74069,0.09 -1.6051,-0.0324 -2.00596,-0.57041 z"
       id="path4418"
       inkscape:connector-curvature="0"
       style="fill:#231f20;fill-rule:evenodd;stroke-width:0.12916613" />
    <path
       class="cls-2"
       d="m 116.92446,251.05462 -0.32992,-0.17294 c 0.16496,-0.14665 0.35467,-0.0405 0.54273,0.0212 z"
       id="path4464"
       inkscape:connector-curvature="0"
       style="fill:#231f20;fill-rule:evenodd;stroke-width:0.12916613" />
    <path
       class="cls-2"
       d="m 111.19693,245.60031 c -0.0379,-0.0769 0.0775,-0.16182 -0.10722,-0.23161 0.18146,-0.18204 0.39921,-0.10113 0.57737,-0.31251 0.10393,0.22452 0.34477,0.26195 0.4388,0.40455 l -0.28208,0.20227 c -0.15507,-0.14766 -0.35963,-0.2933 -0.62687,-0.0627 z"
       id="path4466"
       inkscape:connector-curvature="0"
       style="fill:#231f20;fill-rule:evenodd;stroke-width:0.12916613" />
    <path
       class="cls-2"
       d="m 111.19693,245.08249 c -0.39096,-0.33072 0.36457,-0.2397 0.39922,-0.49355 0.37116,0.14058 -0.28869,0.33072 -0.39922,0.49355 z"
       id="path4468"
       inkscape:connector-curvature="0"
       style="fill:#231f20;fill-rule:evenodd;stroke-width:0.12916613" />
    <path
       class="cls-2"
       d="m 112.54304,244.73255 c -0.0907,-0.0738 0.10887,-0.16283 0.1996,-0.24677 0.0264,0.17699 0.20126,0.11428 0.41406,0.21643 -0.18641,0.13552 -0.41076,0.009 -0.61366,0.0303 z"
       id="path4470"
       inkscape:connector-curvature="0"
       style="fill:#231f20;fill-rule:evenodd;stroke-width:0.12916613" />
    <path
       class="cls-2"
       d="M 120.16269,246.86856"
       id="path4472"
       inkscape:connector-curvature="0"
       style="fill:#231f20;fill-rule:evenodd;stroke-width:0.12916613" />
    <path
       class="cls-3"
       d="m 128.33663,250.87258 c -0.29364,0.0182 -0.32993,-0.14261 -0.49489,-0.25993"
       id="path4474"
       inkscape:connector-curvature="0"
       style="fill:#ffffff;fill-rule:evenodd;stroke-width:0.12916613" />
    <path
       class="cls-2"
       d="m 119.89545,245.4132 c -0.0627,-0.10821 0.10723,-0.22654 0.18641,-0.34083 a 0.6120141,0.37521801 0 0 1 0.40251,0.12339 c -0.21445,-0.0253 -0.40746,0.0283 -0.58892,0.21744 z"
       id="path4476"
       inkscape:connector-curvature="0"
       style="fill:#231f20;fill-rule:evenodd;stroke-width:0.12916613" />
    <path
       class="cls-2"
       d="m 116.99375,243.89817 c -0.16497,-0.0718 -0.0891,-0.15373 -0.26065,-0.22452 0.38272,-0.18104 0.6945,-0.0455 0.26065,0.22452 z"
       id="path4478"
       inkscape:connector-curvature="0"
       style="fill:#231f20;fill-rule:evenodd;stroke-width:0.12916613" />
    <path
       class="cls-2"
       d="M 110.09498,239.5948"
       id="path4480"
       inkscape:connector-curvature="0"
       style="fill:#231f20;fill-rule:evenodd;stroke-width:0.12916613" />
    <path
       class="cls-2"
       d="M 120.51572,241.87746"
       id="path4482"
       inkscape:connector-curvature="0"
       style="fill:#231f20;fill-rule:evenodd;stroke-width:0.12916613" />
    <path
       class="cls-2"
       d="m 122.79716,242.19199 c -0.0924,-0.3823 -0.55758,-0.39645 -0.85451,-0.62098 0.43715,-0.12035 0.61366,0.0587 0.8842,-0.32768 a 0.57407253,0.35195652 0 0 1 -0.24579,0.48546 l 0.49489,0.25992 z"
       id="path4484"
       inkscape:connector-curvature="0"
       style="fill:#231f20;fill-rule:evenodd;stroke-width:0.12916613" />
    <path
       class="cls-2"
       d="m 123.35309,242.30628 c -0.0957,0.0526 -0.21116,-0.0364 -0.32003,-0.0789 a 0.70439359,0.43185469 0 0 1 0.43715,-0.21036 c 0.27549,0.0809 -0.39591,0.20834 -0.11712,0.28925 z"
       id="path4486"
       inkscape:connector-curvature="0"
       style="fill:#231f20;fill-rule:evenodd;stroke-width:0.12916613" />
    <path
       class="cls-2"
       d="m 116.38833,248.1439 a 0.32992674,0.20227386 0 0 0 0.0247,0.18812 c -0.12208,0.0556 -0.26724,-0.0668 -0.40251,-0.12238 0.12702,-0.20935 0.30188,-0.0556 0.4487,-0.11732 0.0808,0.0597 -0.0247,0.0759 -0.0709,0.0516 z"
       id="path4504"
       inkscape:connector-curvature="0"
       style="fill:#231f20;fill-rule:evenodd;stroke-width:0.12916613" />
    <path
       class="cls-2"
       d="M 116.69681,248.12873"
       id="path4506"
       inkscape:connector-curvature="0"
       style="fill:#231f20;fill-rule:evenodd;stroke-width:0.12916613" />
    <path
       class="cls-2"
       d="m 118.01652,247.58967 c 0.28374,-0.16688 0.48169,-0.0698 0.57737,-0.31251"
       id="path4508"
       inkscape:connector-curvature="0"
       style="fill:#231f20;fill-rule:evenodd;stroke-width:0.12916613" />
    <path
       class="cls-2"
       d="m 118.13859,246.16263 c -0.25404,0.22857 -0.56417,0.0212 -0.85121,-0.005 0.16497,-0.087 0.20456,-0.16789 0.0462,-0.23868 0.33653,0.10923 0.28044,0.2488 0.80502,0.24374 z"
       id="path4510"
       inkscape:connector-curvature="0"
       style="fill:#231f20;fill-rule:evenodd;stroke-width:0.12916613" />
    <path
       class="cls-2"
       d="m 119.19271,246.53785 c -0.17981,0.0394 -0.10558,-0.0789 -0.40251,-0.12238 -0.20126,0.10114 0.41736,0.1689 0.0363,0.28217 -0.36952,0.0192 -0.0478,-0.23767 -0.50974,-0.35398 0.27384,-0.0354 0.79843,-0.0617 0.87596,0.19419 z"
       id="path4512"
       inkscape:connector-curvature="0"
       style="fill:#231f20;fill-rule:evenodd;stroke-width:0.12916613" />
    <path
       class="cls-2"
       d="M 127.51841,250.53377"
       id="path4514"
       inkscape:connector-curvature="0"
       style="fill:#231f20;fill-rule:evenodd;stroke-width:0.12916613" />
    <path
       class="cls-2"
       d="m 111.77101,241.78643 a 0.51303608,0.31453585 0 0 1 -0.12867,0.19621 c -0.12538,-0.10114 -0.59552,-0.19216 -0.27384,-0.31858 0.0528,0.0445 0.0115,0.0941 0.0957,0.13754 0.21776,0.086 0.38437,-0.21542 0.61367,-0.0303 -0.0891,0.10215 -0.19631,0.0617 -0.30683,0.0152 z"
       id="path4516"
       inkscape:connector-curvature="0"
       style="fill:#231f20;fill-rule:evenodd;stroke-width:0.12916613" />
    <path
       class="cls-2"
       d="m 118.5708,245.33634 c -0.18806,0.11934 -0.30189,-0.13148 -0.32993,-0.17294 0.52788,0.0728 0.12372,-0.40455 0.67305,-0.17497 -0.2359,0.0961 -0.37282,0.16586 -0.34312,0.34791 z"
       id="path4518"
       inkscape:connector-curvature="0"
       style="fill:#231f20;fill-rule:evenodd;stroke-width:0.12916613" />
    <path
       class="cls-2"
       d="m 111.07981,240.6355 c -0.34147,-0.0546 -0.61696,0.40454 -0.98978,0.0961 0.10558,-0.10114 0.43715,-0.21138 0.11712,-0.29027 0.2392,0.09 0.4817,0.22149 0.87266,0.19419 z"
       id="path4520"
       inkscape:connector-curvature="0"
       style="fill:#231f20;fill-rule:evenodd;stroke-width:0.12916613" />
    <path
       class="cls-2"
       d="m 121.2366,242.07872 a 0.25734286,0.15777361 0 0 1 0.11713,-0.29026 c -0.4652,-0.20228 -0.4751,0.38937 -0.82482,0.18305"
       id="path4522"
       inkscape:connector-curvature="0"
       style="fill:#231f20;fill-rule:evenodd;stroke-width:0.12916613" />
    <path
       class="cls-2"
       d="M 125.12479,251.12542"
       id="path4526"
       inkscape:connector-curvature="0"
       style="fill:#231f20;fill-rule:evenodd;stroke-width:0.12916613" />
    <path
       class="cls-2"
       d="m 126.24489,250.83414 c -0.23589,0.16385 -0.50643,0.0708 -0.73078,0.3196"
       id="path4528"
       inkscape:connector-curvature="0"
       style="fill:#231f20;fill-rule:evenodd;stroke-width:0.12916613" />
    <path
       class="cls-2"
       d="m 115.49588,273.74773 -0.24909,-0.13249 0.28208,-0.20228 c 0.24085,0.10114 0.17651,0.2134 -0.033,0.33477 z"
       id="path4536"
       inkscape:connector-curvature="0"
       style="fill:#231f20;fill-rule:evenodd;stroke-width:0.12916613" />
    <path
       class="cls-2"
       d="m 118.23427,268.68582 c -0.25074,0 -0.2095,0.34387 -0.60211,0.1244 0.16496,-0.24778 0.49489,-0.21036 0.17486,-0.43489 0.10227,-0.21542 0.16661,0.23464 0.42725,0.31049 z"
       id="path4544"
       inkscape:connector-curvature="0"
       style="fill:#231f20;fill-rule:evenodd;stroke-width:0.12916613" />
    <path
       class="cls-1"
       d="m 21.847829,248.83669 c -0.194657,1.05991 0.0165,1.99037 0.626861,2.76711 l 0.572423,0.72818 0.17981,-0.79999 a 15.226119,9.3349386 0 0 1 0.80997,-2.00757 11.877363,7.281859 0 0 1 1.3527,-1.59088 c 0.549328,-0.4804 1.072262,-0.82629 1.555604,-1.03059 l 0.107226,-0.0516 0.04454,-0.0718 c 0.05774,-0.0941 0.08248,-0.1335 -0.376117,-0.88596 l -0.164963,-0.28318 c -0.04454,-0.0607 -0.09238,-0.1335 -0.143518,-0.2225 -0.107227,-0.17497 -0.164964,-0.27307 -0.164964,-0.27307 v 0 c -0.293635,-0.5158 -0.54108,-0.91023 -0.737386,-1.17622 a 7.3194247,4.4874456 0 0 0 -1.131649,-1.11251 c -1.052466,-0.74437 -2.497545,-1.33197 -4.289047,-1.74663 a 16.839461,10.324058 0 0 0 -2.325983,-0.41568 9.5464302,5.8527941 0 0 0 -3.248129,-0.14968 5.9914696,3.6732933 0 0 0 -0.752233,0.086 7.3441692,4.5026161 0 0 0 -2.731793,0.82325 c -1.0887586,0.534 -2.0323491,1.37951 -2.8043776,2.51123 -0.7439848,1.08925 -1.2141304,1.74664 -1.4005391,1.95599 a 7.8242126,4.7969246 0 0 1 -1.549006,1.2895 c -0.697795,0.39645 -0.8924518,0.4541 -0.9254445,0.46118 l 0.04454,-0.005 0.013197,0.088 0.037942,0.39848 h 0.018146 q 0.2457954,-0.0111 0.481693,-0.0283 c 1.7420131,-0.13046 3.1227566,-0.53299 4.1042886,-1.19645 a 15.922264,9.7617365 0 0 0 1.6826266,-1.33399 5.0792222,3.1140061 0 0 0 0.824816,0.78887 6.2768562,3.8482602 0 0 0 1.614992,0.82325 8.0700081,4.9476186 0 0 0 1.26032,0.37724 5.7621705,3.532713 0 0 0 0.806671,0.14867 l 5.511425,0.86068 q 0.278788,0.0475 0.524584,0.10113 a 3.7496174,2.2988424 0 0 1 0.570773,0.17295 z m -3.002333,-3.04018 -1.21578,-0.20733 -2.817574,-0.49456 c -0.214452,-0.0435 -0.425605,-0.089 -0.63016,-0.13653 -0.965036,-0.2225 -1.705721,-0.48849 -2.203911,-0.7919 l 0.283737,-0.32668 a 2.2088595,1.3542235 0 0 1 0.577372,-0.44298 3.3537053,2.0561138 0 0 1 0.834715,-0.32768 3.5401139,2.1703985 0 0 1 0.902349,-0.13755 5.7737179,3.5397925 0 0 1 1.194335,-0.005 c 0.329927,0.0162 0.709343,0.0485 1.136598,0.0951 l 0.562525,0.0667 0.559226,0.0738 a 22.311296,13.67877 0 0 1 3.543412,0.58356 9.5992185,5.885158 0 0 1 1.53416,0.43893 c 0.532831,0.19216 0.98978,0.56232 1.344451,1.09936 a 11.476502,7.0360962 0 0 0 -1.916874,1.8953 q -0.117124,-0.091 -0.258993,-0.20227 a 5.4107985,3.3172913 0 0 0 -2.20226,-0.94765 l -0.164963,-0.0384 c -0.306832,-0.0617 -0.663153,-0.13148 -1.062365,-0.19823 z m -2.29629,-9.76376 c -0.229299,-0.41567 -0.118773,-0.86674 0.329927,-1.34006 a 3.0600705,1.8760901 0 0 1 0.308482,-0.26801 2.2599982,1.3855759 0 0 1 1.022773,-0.43085 23.424799,14.361444 0 0 1 2.956142,-0.43691 l 0.387664,-0.0465 0.277139,0.84753 a 11.108633,6.8105609 0 0 0 0.866058,1.48064 c 0.532831,0.70796 1.097006,1.25511 1.680976,1.63741 a 10.442181,6.4019677 0 0 0 0.847912,0.49658 8.0172198,4.9152548 0 0 0 2.309487,0.8536 6.8294835,4.1870689 0 0 0 3.324012,0.24879 c 0.140219,-0.0101 0.282087,-0.0233 0.425606,-0.0394 l 0.234248,-2.13298 -7.918242,-4.12841 a 1.6050936,0.98406233 0 0 0 -1.105255,-0.25082 2.1808158,1.3370302 0 0 0 -0.249094,0.009 1.2042326,0.73829959 0 0 0 -0.27384,0.0384 l -0.575722,0.13249 0.22435,-2.03286 0.196307,-0.13653 0.113824,-0.0131 0.193008,-0.0415 a 3.1969901,1.9600337 0 0 1 0.329926,-0.0536 c 0.130321,-0.0152 0.250745,-0.0283 0.369518,-0.0384 a 2.8571656,1.7516916 0 0 1 1.022773,0.0415 2.5255892,1.5484064 0 0 1 1.067313,0.33375 l 9.769131,5.08415 a 1.5721009,0.96383494 0 0 0 1.255371,0.25689 1.9350203,1.1863362 0 0 0 0.386015,-0.0556 l 0.564174,-0.11731 -0.230948,2.15017 -0.287037,0.0152 h -0.02804 q -0.250744,0.0344 -0.49489,0.0526 a 3.6143474,2.2159101 0 0 1 -2.6988,-0.42579 c -0.313431,3.67431 -0.329927,3.67633 -0.598817,3.74712 a 8.9459636,5.4846557 0 0 1 -1.775006,0.25082 8.4345771,5.1711312 0 0 1 -1.21908,0.0364 c -1.466524,-0.0172 -2.96934,-0.3388 -4.454011,-0.95675 a 8.4923143,5.2065292 0 0 1 -0.677999,-0.31757 c -1.367546,-0.71302 -2.378772,-1.73956 -3.007282,-3.05029 l -0.103927,-0.23868 -0.09568,-0.25993 c -0.07753,-0.20227 -0.148467,-0.37117 -0.206204,-0.48748 a 2.3259835,1.4260307 0 0 0 -0.633459,-0.65132 l -0.107227,-0.0556 a 0.63180971,0.38735444 0 0 0 -0.453648,-0.0516 l -0.08743,0.008 a 0.8908022,0.54613942 0 0 0 -0.522934,0.1689 l -0.02804,0.0202 a 0.7687293,0.47129809 0 0 0 -0.188058,0.39646 0.55592656,0.34083145 0 0 0 0.189708,0.20227 0.95183864,0.58356009 0 0 0 0.278788,0.10114 l 0.536131,0.12541 -0.483343,0.33578 -0.164963,0.0162 h -0.06928 -0.04454 a 2.1973121,1.3471439 0 0 1 -0.298583,0 2.819224,1.7284301 0 0 1 -0.379416,-0.0223 2.0768888,1.2733139 0 0 1 -0.458598,-0.0748 3.2679244,2.0035226 0 0 1 -0.847912,-0.31353 2.3094872,1.415917 0 0 1 -0.701094,-0.623 z m 12.283172,-7.63078 a 2.5074432,1.5372813 0 0 1 -0.339824,-0.76459 2.3210346,1.4229966 0 0 1 0.296934,-0.74235 3.1870923,1.9539655 0 0 1 1.197634,-0.71402 4.9324048,3.0239942 0 0 1 1.814597,-0.39444 3.0930632,1.8963174 0 0 1 2.499195,0.48748 l 10.150196,4.08189 -4.902711,-5.05685 a 1.6710789,1.0245171 0 0 0 -0.922145,-0.45916 1.2768165,0.78279984 0 0 0 -0.484993,-0.0506 l -0.641707,0.0293 1.360948,-2.02274 0.288685,0.0425 0.08413,-0.008 0.470145,0.0152 h 0.02475 l 0.35797,0.0435 a 2.5899249,1.5878498 0 0 1 0.940292,0.23666 2.5107425,1.5393041 0 0 1 0.824816,0.52591 l 6.676068,6.90563 a 1.5721009,0.96383494 0 0 0 0.920496,0.45107 1.5242615,0.93450523 0 0 0 0.524583,0.0607 l 0.618613,-0.0111 -1.341152,1.94992 -0.277139,0.0121 -0.02804,0.009 a 3.3652527,2.0631934 0 0 1 -0.869357,0.13754 4.5199963,2.7711519 0 0 1 -1.837692,-0.11732 12.88034,7.8967715 0 0 1 -2.368874,-0.67256 c -1.384042,-0.49253 -3.558259,-1.35725 -6.476461,-2.57595 l 3.365252,3.47911 a 1.5803491,0.96889179 0 0 0 1.445079,0.51579 h 0.595518 l -1.352699,1.98633 -0.277139,-0.0415 h -0.03134 c -1.337853,-0.0839 -2.337531,-0.45815 -2.969341,-1.11251 l -6.049206,-6.25835 c -0.311781,-0.32263 -0.646657,-0.52693 -0.989781,-0.60682 a 0.99967802,0.6128898 0 0 0 -0.513036,-0.0465 1.21578,0.74537917 0 0 0 -1.037619,0.63009 l -0.219402,0.59165 z m 30.879493,2.90769 c -0.08083,0.006 -0.174861,0.0121 -1.21248,-0.10721 -0.707693,-0.0748 -1.154744,-0.12743 -1.35435,-0.1608 -3.335559,-0.57851 -5.674739,-1.6364 -6.958155,-3.14435 a 8.6506791,5.3036206 0 0 1 -0.857809,-1.48469 c -0.03629,-0.12137 -0.06434,-0.24678 -0.08083,-0.37219 a 8.0502125,4.9354822 0 0 1 0.407459,-1.94081 c 0.310132,-0.60682 0.920496,-1.29354 1.814598,-2.04297 a 21.654742,13.276245 0 0 1 1.900378,-1.25612 c 0.98978,-0.59671 1.735414,-0.9345 2.29299,-1.02957 a 2.0455458,1.2540979 0 0 1 0.254044,-0.0374 c 0.05939,-0.007 0.122073,-0.0131 0.184759,-0.0172 a 3.9591209,2.4272863 0 0 1 1.497867,0.0789 c 0.258993,0.0384 0.854511,0.16485 1.814597,0.38432 0.692847,0.1598 1.078861,0.17497 1.281766,0.1598 h 0.04784 a 0.47674414,0.29228573 0 0 0 0.217752,-0.0556 l 0.567474,-0.27711 0.173211,1.00631 c 0.02639,1.05384 -0.753882,1.35827 -1.412086,1.4321 l -0.120423,0.0111 a 2.8654137,1.7567485 0 0 1 -0.849562,-0.0233 10.465276,6.4161268 0 0 1 -1.431882,-0.3115 5.5411196,3.3971895 0 0 0 -1.456626,-0.26397 4.1240842,2.5284232 0 0 0 -0.834715,0.0101 c -0.08248,0.006 -0.164963,0.0142 -0.245795,0.0233 a 5.1402586,3.1514267 0 0 0 -1.710671,0.41061 3.134304,1.9216017 0 0 0 -1.093707,0.66548 3.5731066,2.1906259 0 0 0 -0.475094,0.91934 6.7766952,4.1547051 0 0 0 0.08083,1.03969 5.7737179,3.5397925 0 0 0 0.300233,0.65132 8.4543727,5.1832677 0 0 0 1.590247,1.46446 c 1.539108,1.03868 3.762815,1.73551 6.615031,2.0723 l 1.049167,-0.70695 -0.329926,-1.0852 c 0,0 -0.03134,-0.088 -0.447051,-0.26093 -0.371168,-0.15474 -0.861109,-0.34589 -1.454977,-0.5694 l -0.410759,-0.15373 2.639414,-1.76788 1.370846,0.52592 c 0.659853,0.27913 0.956787,0.4804 1.016174,0.67964 l 0.668102,2.2513 -4.891164,3.26268 z m 12.443187,-9.98727 -0.836364,-0.14564 c -0.62851,-0.12136 -1.420334,-0.40455 -2.434859,-0.86978 -1.039269,-0.47433 -1.778305,-1.20757 -2.198962,-2.17849 l 0.76708,-0.12844 a 0.20785385,0.12743253 0 0 0 -0.02309,-0.0334 c 0.0198,0.0172 0.155065,0.12137 0.940291,0.45006 a 7.840709,4.8070383 0 0 0 2.396918,0.63615 c 0.376116,0.0647 1.525911,0.20228 3.42299,0.39848 1.989458,0.21037 3.403194,0.49153 4.325339,0.86169 0.963386,0.38634 1.680977,1.18431 2.194013,2.43841 l -0.689547,0.2134 c -0.35797,-0.25992 -1.581998,-0.67964 -5.361309,-1.22173 -0.372817,0.36611 -0.63181,0.86977 -0.770379,1.49986 q -0.04454,0.20227 -0.07588,0.40454 l -0.07423,0.93046 0.265591,0.0556 a 8.5780952,5.2591204 0 0 0 1.581999,0.28217 1.6628308,1.0194603 0 0 0 0.202905,0.0101 1.3477507,0.82628872 0 0 0 0.150117,-0.006 0.68459799,0.41971826 0 0 0 0.53778,-0.19419 0.83306502,0.5107415 0 0 0 0.151766,-0.21339 l 0.148467,-0.67155 0.582321,0.57648 c 0.372817,0.36814 0.526233,0.71605 0.456949,1.03261 a 1.900378,1.1650974 0 0 1 -0.58892,0.68166 2.5272388,1.5494178 0 0 1 -1.458276,0.44096 2.6476621,1.6232477 0 0 1 -0.67305,0 3.6605372,2.2442285 0 0 1 -0.554277,-0.0748 c -0.386014,-0.0698 -0.697795,-0.12844 -0.936992,-0.17395 -0.02639,0.2488 -0.08413,0.5785 -0.164964,0.98002 l -0.06598,0.29734 a 3.0732676,1.884181 0 0 1 -0.772028,0.9345 c 0.183109,0.0101 0.366218,0.0222 0.552627,0.0374 1.699123,0.13755 3.566508,0.52794 5.546068,1.14892 l 0.615314,0.19317 -0.582321,0.22958 c -3.165647,1.24803 -3.261326,1.25511 -3.394946,1.26522 h -0.05114 l -0.127022,-0.0101 -0.06433,-0.0212 a 17.050614,10.453513 0 0 0 -5.895791,-1.13779 24.625732,15.097721 0 0 0 -3.761165,-0.1244 l -1.16959,0.0142 0.913897,-0.44803 c 1.097006,-0.53805 2.538786,-0.9244 4.289047,-1.14993 a 2.8274722,1.733487 0 0 0 0.125373,-0.32061 2.9775888,1.8255216 0 0 0 0.02639,-0.23261 l 0.13362,-3.4963 a 5.7737179,3.5397925 0 0 1 0.05444,-0.51479 8.0716577,4.94863 0 0 1 0.318379,-0.83843 6.2686081,3.8432033 0 0 1 0.94524,-1.1479 5.0825214,3.1160288 0 0 1 1.08051,-0.66346 z m 11.761889,11.63074 c 0.127022,0.10114 0.442102,0.32668 0.933692,0.66043 0.730788,0.50568 0.800073,0.52894 0.880905,0.55524 l 0.120423,0.0384 0.13362,-0.0142 c 5.249135,-0.56738 8.657278,-1.31478 10.410839,-2.29682 a 7.1049723,4.3559676 0 0 0 1.603444,-1.24803 l 0.07588,-0.088 a 8.2828108,5.0780853 0 0 0 0.795123,-1.59594 c 0.222701,-1.02552 -0.138569,-2.07432 -1.072262,-3.11805 a 9.3864158,5.7546913 0 0 0 -2.47445,-1.81136 14.081273,8.6330483 0 0 0 -1.624889,-0.69582 1.4302324,0.87685718 0 0 0 -0.27054,-0.0698 c -0.199606,-0.0303 -0.620263,-0.0445 -2.261648,0.0779 a 20.975092,12.859561 0 0 0 -2.61302,0.26801 c -1.499517,0.2488 -2.7021,0.55828 -3.571457,0.92035 a 8.3504458,5.1195514 0 0 0 -2.309487,1.37748 c -0.110526,0.10114 -0.214452,0.20936 -0.31343,0.32364 a 8.8321388,5.4148712 0 0 0 -0.838014,1.52717 9.2544451,5.6737818 0 0 0 0.329926,2.73777 13.413172,8.2234438 0 0 0 2.065342,2.45156 z m 1.875633,-6.25835 a 5.386054,3.3021208 0 0 1 0.40746,-0.60682 6.5655421,4.0252498 0 0 1 0.971634,-0.83337 3.4741286,2.1299437 0 0 1 1.299911,-0.53602 3.1475011,1.9296926 0 0 1 0.740686,-0.11429 2.9462458,1.8063056 0 0 1 0.781926,0.006 5.2227403,3.2019952 0 0 1 1.737065,0.32869 c 0.143518,0.0465 0.280437,0.10114 0.382715,0.13856 a 3.8469458,2.3585132 0 0 1 0.613663,0.35196 c 1.410437,1.15094 2.101634,2.30794 2.055444,3.43865 a 6.2356154,3.822976 0 0 1 -0.735737,1.71326 7.773074,4.7655721 0 0 1 -0.8974,0.8091 c -0.67965,0.49557 -2.175867,0.87989 -4.454011,1.14183 -1.903678,-1.34006 -2.954494,-2.72058 -3.134304,-4.10514 a 8.1524897,4.9981871 0 0 1 0.230948,-1.73248 z m 17.63458,2.07836 -0.98978,-0.0263 0.78193,-0.4177 a 2.5057936,1.53627 0 0 1 1.16464,-0.34184 c 0.0676,-0.009 0.13857,-0.0162 0.20786,-0.0212 a 2.3094872,1.415917 0 0 1 1.03597,0.0667 3.1854427,1.9529541 0 0 1 1.35929,0.59368 c 1.23063,0.90315 1.43848,1.78203 0.62522,2.6154 l -4.7295,6.85506 7.23693,-3.86647 a 1.6760278,1.0275512 0 0 0 0.57078,-0.63817 1.2685683,0.77774299 0 0 0 0,-0.30341 l -0.16497,-0.3823 3.47578,0.45613 -0.0115,0.18205 0.0297,0.0506 0.0594,0.28521 v 0.0152 c 0,0.0627 0,0.13755 0,0.22554 a 2.5899249,1.5878498 0 0 1 -0.21115,0.60682 2.5288885,1.5504291 0 0 1 -0.69284,0.59367 l -9.88131,5.26822 a 1.5737505,0.96484631 0 0 0 -0.55922,0.63615 1.5374586,0.94259619 0 0 0 0,0.32769 l 0.12867,0.37117 -3.363603,-0.45714 -0.07423,-0.16586 -0.01979,-0.0152 c -0.460248,-0.43995 -0.635109,-0.98811 -0.519635,-1.62932 a 13.079946,8.0191472 0 0 1 0.659853,-1.55043 c 0.542735,-0.9254 1.539105,-2.39189 2.969345,-4.37012 l -4.983547,2.66293 a 1.5622031,0.95776673 0 0 0 -0.569124,0.96384 l 0.105577,0.35903 -3.437837,-0.46017 0.02309,-0.178 v -0.0142 c -0.105577,-0.82224 0.31343,-1.49177 1.247123,-1.99038 l 8.952558,-4.77265 c 0.4619,-0.24677 0.73079,-0.48444 0.79677,-0.70796 a 1.0442181,0.64019677 0 0 0 -0.27549,-0.58861 1.2438238,0.76257245 0 0 0 -0.94854,-0.23768 z m 21.49473,18.77203 -0.74069,-0.1072 a 9.5827222,5.8750443 0 0 1 -2.227,-0.53805 c -0.53614,-0.17902 -1.20589,-0.43287 -1.99771,-0.75448 a 3.0270778,1.8558627 0 0 1 -1.18609,-0.88596 3.6291941,2.2250125 0 0 1 -0.2293,-0.61694 9.6932476,5.942806 0 0 1 0.11383,-1.33804 c 0.0429,-0.17598 0.11052,-0.39342 0.2029,-0.64424 l 0.0676,-0.20228 c -0.94524,0.27611 -1.61499,0.80202 -2.0274,1.60403 a 13.974047,8.5673093 0 0 0 -0.41076,1.15297 l -0.061,0.29329 -0.0825,0.30341 c -0.0561,0.24779 -0.10063,0.43793 -0.13197,0.56232 -0.0346,0.14766 -0.099,0.41264 -0.19631,0.79393 l -0.13197,0.47737 -0.11712,0.46624 c -0.32993,1.26724 -0.32993,1.26724 -0.55098,1.32186 l -0.0891,0.0222 h -0.0957 c -0.0511,0 -0.14846,-0.008 -1.43518,-0.17598 -0.96998,-0.12238 -1.93337,-0.25082 -2.86211,-0.38028 -4.23791,-0.60682 -4.55299,-0.78886 -4.7064,-0.87786 a 2.83737,1.7395552 0 0 1 -0.6747,-0.61896 3.7149751,2.2776037 0 0 1 -0.21116,-1.03059 10.062766,6.1693527 0 0 1 0.226,-0.84045 l 0.15342,-0.39848 c 0.0495,-0.14563 0.0907,-0.27408 0.12207,-0.37825 a 3.4196907,2.0965686 0 0 0 -0.15671,-1.14891 2.0983341,1.2864617 0 0 0 -1.23558,-0.76055 l 0.14187,-0.4713 c 1.45498,0 2.67241,0.19519 3.6193,0.58457 a 3.5863037,2.1987169 0 0 1 1.38074,1.02351 4.472157,2.7418222 0 0 1 0.24909,1.25409 16.321476,10.006488 0 0 1 -0.31673,1.11757 l -0.18971,0.5249 c -0.0544,0.19014 -0.099,0.37117 -0.13197,0.53501 a 0.49489011,0.30341079 0 0 0 0.0247,0.14564 c 0.10062,0.15777 0.54438,0.26902 1.24712,0.31352 a 4.4325658,2.7175493 0 0 0 0.97328,0 l 0.14352,-0.0121 a 2.2435018,1.3754622 0 0 0 0.29199,-0.0334 q 0.11382,-0.45309 0.26064,-0.99114 l 0.27714,-1.04171 q 0.37116,-1.3876 0.56747,-2.13399 c 0.2425,-0.91731 0.74728,-1.63033 1.49787,-2.12387 a 4.035004,2.4738093 0 0 1 1.45827,-0.58862 5.7407253,3.5195652 0 0 1 1.1663,-0.19317 l 0.26229,-0.0223 a 10.925524,6.6982989 0 0 1 1.16794,-0.0445 h 0.69449 0.72089 l 0.16497,0.0202 3.25637,1.25714 -0.0165,0.14563 a 17.735212,10.873231 0 0 1 -0.34972,1.34816 l -0.21446,0.64829 c -0.0693,0.23666 -0.12372,0.45208 -0.16496,0.63716 a 2.8324211,1.7365211 0 0 0 0.19466,0.83337 l 0.0412,0.0627 a 4.4655584,2.7377767 0 0 0 0.75718,0.72617 c 0.12867,0.087 0.27384,0.178 0.4289,0.27003 a 3.4642308,2.1238755 0 0 0 0.36457,0.20227 c 0.35797,0.19014 0.38437,0.20228 0.42561,0.26903 z m -40.284053,11.70862 h 0.0082 c 0,0 0.0082,0 -0.0082,0 z"
       id="path4546"
       inkscape:connector-curvature="0"
       style="fill:#231f20;stroke-width:0.12916613" />
    <path
       class="cls-2"
       d="m 36.694532,227.85684 c 0.03794,0.0769 -0.07753,0.16182 0.107227,0.23161 -0.164964,0.1072 -0.381066,-0.16283 -0.569124,-0.20936 0.123723,-0.24677 0.326627,0.11732 0.461897,-0.0222 z"
       id="path4548"
       inkscape:connector-curvature="0"
       style="fill:#231f20;fill-rule:evenodd;stroke-width:0.12916613" />
    <path
       class="cls-2"
       d="m 35.656913,229.32434 c -0.122073,-0.1517 -0.02475,-0.31453 0.245795,-0.48546 0.13692,0.1507 -0.06433,0.31859 -0.245795,0.48546 z"
       id="path4552"
       inkscape:connector-curvature="0"
       style="fill:#231f20;fill-rule:evenodd;stroke-width:0.12916613" />
    <path
       class="cls-2"
       d="m 58.903551,262.34353 a 1.6215899,0.99417602 0 0 1 -0.564175,0.40454 c -0.174861,-0.28723 -0.602116,-0.20227 -0.922145,0.0455 -0.05114,-0.31757 0.981532,-0.57143 1.48632,-0.45006 z"
       id="path4554"
       inkscape:connector-curvature="0"
       style="fill:#231f20;fill-rule:evenodd;stroke-width:0.12916613" />
    <path
       class="cls-2"
       d="m 36.537817,228.38073 c 0.06434,-0.17699 -0.155065,-0.33982 0.164964,-0.52894 a 0.76543004,0.46927536 0 0 1 -0.164964,0.52894 z"
       id="path4556"
       inkscape:connector-curvature="0"
       style="fill:#231f20;fill-rule:evenodd;stroke-width:0.12916613" />
    <path
       class="cls-2"
       d="m 56.892647,262.96248 c -0.230948,0.005 -0.433853,0.2306 -0.684598,0.0809 0.212803,-0.14867 0.427256,-0.27104 0.684598,-0.0809 z"
       id="path4560"
       inkscape:connector-curvature="0"
       style="fill:#231f20;fill-rule:evenodd;stroke-width:0.12916613" />
    <path
       class="cls-2"
       d="m 55.274357,262.37892 c -0.153416,0.20228 -0.369518,-0.0728 -0.531182,0.0738 -0.143518,-0.17496 0.366218,-0.27408 0.531182,-0.0738 z"
       id="path4562"
       inkscape:connector-curvature="0"
       style="fill:#231f20;fill-rule:evenodd;stroke-width:0.12916613" />
    <path
       class="cls-2"
       d="m 37.38243,227.15495 c -0.369518,-0.11226 0.221051,-0.3469 0.341474,-0.34892 0.01815,0.16283 -0.199606,0.12743 -0.341474,0.34892 z"
       id="path4568"
       inkscape:connector-curvature="0"
       style="fill:#231f20;fill-rule:evenodd;stroke-width:0.12916613" />
    <path
       class="cls-2"
       d="m 41.699521,228.26948 c 0.0099,0.18609 0.349722,0.28319 0.356321,0.36106 -0.262292,0.21643 -0.836364,-0.23868 -0.356321,-0.36106 z"
       id="path4574"
       inkscape:connector-curvature="0"
       style="fill:#231f20;fill-rule:evenodd;stroke-width:0.12916613" />
    <path
       class="cls-2"
       d="m 57.098852,236.1349 c 0.164963,-0.14665 0.346423,-0.1072 0.544379,0.0202 -0.161664,0.14665 -0.346423,0.1072 -0.544379,-0.0202 z"
       id="path4580"
       inkscape:connector-curvature="0"
       style="fill:#231f20;fill-rule:evenodd;stroke-width:0.12916613" />
    <path
       class="cls-2"
       d="M 38.022488,225.56002"
       id="path4584"
       inkscape:connector-curvature="0"
       style="fill:#231f20;fill-rule:evenodd;stroke-width:0.12916613" />
    <path
       class="cls-2"
       d="m 62.979796,233.24036 c 0.03134,-0.14968 0.245795,-0.43286 0.481693,-0.45006 0.05114,0.24577 -0.202905,0.2306 -0.481693,0.45006 z"
       id="path4628"
       inkscape:connector-curvature="0"
       style="fill:#231f20;fill-rule:evenodd;stroke-width:0.12916613" />
    <path
       class="cls-2"
       d="m 53.022607,226.81311 c -0.128672,-0.26801 0.445401,-0.0779 0.577372,-0.31251 0.118773,0.19721 -0.415708,0.30948 -0.577372,0.31251 z"
       id="path4650"
       inkscape:connector-curvature="0"
       style="fill:#231f20;fill-rule:evenodd;stroke-width:0.12916613" />
    <path
       class="cls-2"
       d="m 62.60203,230.93545 c -0.262292,-0.12945 -0.03299,-0.28217 0.174861,-0.43489 0.108876,0.13856 0.04454,0.2842 -0.174861,0.43489 z"
       id="path4660"
       inkscape:connector-curvature="0"
       style="fill:#231f20;fill-rule:evenodd;stroke-width:0.12916613" />
    <path
       class="cls-2"
       d="m 55.089598,226.66343 a 0.30023333,0.18406921 0 0 1 0.04619,-0.23868 0.51468571,0.31554722 0 0 1 -0.31838,-0.0789 l 0.211153,-0.15272 0.414058,0.21643 c -0.04454,0.0516 -0.09898,0.0314 -0.153415,0.007 0.0099,0.12339 0.110525,0.2306 -0.199606,0.24678 z"
       id="path4666"
       inkscape:connector-curvature="0"
       style="fill:#231f20;fill-rule:evenodd;stroke-width:0.12916613" />
    <path
       class="cls-2"
       d="m 48.3228,222.77977 a 0.61366374,0.37622938 0 0 0 -0.260642,-0.22351 c 0.212803,0.0506 0.369518,-0.32971 0.602117,-0.1244 -0.277139,0.1244 -0.173212,0.22958 -0.341475,0.34791 z"
       id="path4676"
       inkscape:connector-curvature="0"
       style="fill:#231f20;fill-rule:evenodd;stroke-width:0.12916613" />
    <path
       class="cls-2"
       d="m 49.609515,222.57547 c -0.291985,-0.11226 -0.115475,-0.24677 0.103927,-0.38432 0.117124,0.12036 0.03299,0.2488 -0.103927,0.38432 z"
       id="path4692"
       inkscape:connector-curvature="0"
       style="fill:#231f20;fill-rule:evenodd;stroke-width:0.12916613" />
    <path
       class="cls-2"
       d="m 55.140736,225.28797 c -0.240846,-0.10114 -0.06763,-0.21846 0.03299,-0.33376 0.354671,0.1153 0.265591,0.32364 -0.03299,0.33376 z"
       id="path4698"
       inkscape:connector-curvature="0"
       style="fill:#231f20;fill-rule:evenodd;stroke-width:0.12916613" />
    <path
       class="cls-2"
       d="m 53.433366,224.04499 c -0.08578,-0.17699 0.04619,-0.19013 0.27054,-0.29734 0.217751,0.10114 0.145167,0.21441 0.273839,0.31858 -0.168263,0.0931 -0.386015,-0.18002 -0.544379,-0.0212 z"
       id="path4710"
       inkscape:connector-curvature="0"
       style="fill:#231f20;fill-rule:evenodd;stroke-width:0.12916613" />
    <path
       class="cls-2"
       d="m 56.605611,225.26268 -0.249094,-0.12945 c 0.112175,-0.1244 0.244145,-0.10114 0.364569,-0.1598 0.130321,0.088 0.06928,0.18609 -0.115475,0.28925 z"
       id="path4716"
       inkscape:connector-curvature="0"
       style="fill:#231f20;fill-rule:evenodd;stroke-width:0.12916613" />
    <path
       class="cls-2"
       d="m 53.761643,223.60302 c 0.442102,-0.091 0.85616,0.0172 0.969984,0.33173 -0.310131,-0.0121 -0.636758,-0.14563 -0.969984,-0.33173 z"
       id="path4722"
       inkscape:connector-curvature="0"
       style="fill:#231f20;fill-rule:evenodd;stroke-width:0.12916613" />
    <path
       class="cls-2"
       d="m 56.188254,224.43134 c 0.136919,-0.14058 0.305182,-0.0314 0.435503,-0.21037 0.212803,0.084 -0.112175,0.19418 0.03629,0.28217 -0.143518,0.0779 -0.301883,0.0405 -0.471795,-0.0718 z"
       id="path4728"
       inkscape:connector-curvature="0"
       style="fill:#231f20;fill-rule:evenodd;stroke-width:0.12916613" />
    <path
       class="cls-2"
       d="M 58.454851,224.03488"
       id="path4744"
       inkscape:connector-curvature="0"
       style="fill:#231f20;fill-rule:evenodd;stroke-width:0.12916613" />
    <path
       class="cls-2"
       d="m 58.027595,223.7254 c -0.240846,-0.10114 -0.174861,-0.21239 0.03299,-0.33375 0.31508,0.15474 0.311781,0.0354 0.448701,-0.11631 0.394262,0.28622 -0.320029,0.2397 -0.481694,0.45006 z"
       id="path4746"
       inkscape:connector-curvature="0"
       style="fill:#231f20;fill-rule:evenodd;stroke-width:0.12916613" />
    <path
       class="cls-2"
       d="m 57.672924,237.83097 c 0.49489,-0.0283 0.311781,-0.22655 0.339825,-0.3732 0.49489,-0.11428 0.02969,0.43287 0.547678,0.29532 a 0.7687293,0.47129809 0 0 1 -0.440452,0.39848 c -0.04124,-0.2579 -0.371168,-0.11327 -0.447051,-0.3206 z"
       id="path4750"
       inkscape:connector-curvature="0"
       style="fill:#231f20;fill-rule:evenodd;stroke-width:0.12916613" />
    <path
       class="cls-2"
       d="m 12.713808,256.5595 c 0.202905,-0.0819 0.575722,0.21846 0.580671,0.30342 -0.364569,0.11731 -0.328277,-0.23869 -0.580671,-0.30342 z"
       id="path4752"
       inkscape:connector-curvature="0"
       style="fill:#231f20;fill-rule:evenodd;stroke-width:0.12916613" />
    <path
       class="cls-2"
       d="m 59.212032,235.71721 c -0.09403,-0.24981 0.262292,-0.091 0.522934,-0.2751 0.107227,0.27004 -0.194656,0.19318 -0.522934,0.2751 z"
       id="path4770"
       inkscape:connector-curvature="0"
       style="fill:#231f20;fill-rule:evenodd;stroke-width:0.12916613" />
    <path
       class="cls-2"
       d="m 60.239754,235.3167 c -0.49489,-0.10113 0.346423,-0.28318 0.300234,-0.43488 0.164963,0.007 0.275488,0.086 0.366218,0.19721 -0.455299,-0.0435 -0.0132,0.089 0.06269,0.27206 -0.353021,0.22048 -0.684598,-0.20733 -0.729138,-0.0344 z"
       id="path4782"
       inkscape:connector-curvature="0"
       style="fill:#231f20;fill-rule:evenodd;stroke-width:0.12916613" />
    <path
       class="cls-2"
       d="m 98.762,239.20441 c 0.219402,0.12237 0.285387,0 0.329927,0.17294 A 0.23259835,0.14260307 0 1 1 98.762,239.20441 Z"
       id="path4794"
       inkscape:connector-curvature="0"
       style="fill:#231f20;fill-rule:evenodd;stroke-width:0.12916613" />
    <path
       class="cls-2"
       d="m 93.633289,236.61328 c 0.164964,-0.14665 0.346423,-0.10721 0.54273,0.0202 -0.160015,0.14766 -0.346423,0.1072 -0.54273,-0.0202 z"
       id="path4798"
       inkscape:connector-curvature="0"
       style="fill:#231f20;fill-rule:evenodd;stroke-width:0.12916613" />
    <path
       class="cls-2"
       d="m 65.93264,236.2775 c -0.287036,0.13351 -0.376116,-0.0202 -0.587269,0 0.110525,-0.0971 0.430554,-0.23666 0.587269,0 z"
       id="path4802"
       inkscape:connector-curvature="0"
       style="fill:#231f20;fill-rule:evenodd;stroke-width:0.12916613" />
    <path
       class="cls-2"
       d="m 104.864,240.37254 c 0.35137,-0.10114 0.36291,-0.0313 0.6384,0.15777 -0.32827,0.088 -0.24414,-0.0526 -0.6384,-0.15777 z"
       id="path4804"
       inkscape:connector-curvature="0"
       style="fill:#231f20;fill-rule:evenodd;stroke-width:0.12916613" />
    <path
       class="cls-2"
       d="m 102.10086,238.13944 c -0.14847,-0.088 0.17651,-0.20228 -0.0379,-0.28319 0.12042,-0.0637 0.27219,0.11125 0.39096,0.0283 0.17486,0.1153 -0.26229,0.24981 -0.35302,0.25487 z"
       id="path4806"
       inkscape:connector-curvature="0"
       style="fill:#231f20;fill-rule:evenodd;stroke-width:0.12916613" />
    <path
       class="cls-2"
       d="m 106.06823,240.12374 c -0.12537,-0.21643 -0.44375,-0.20227 -0.50974,-0.35398 0.16002,-0.14867 0.70769,0.20531 0.50974,0.35398 z"
       id="path4808"
       inkscape:connector-curvature="0"
       style="fill:#231f20;fill-rule:evenodd;stroke-width:0.12916613" />
    <path
       class="cls-2"
       d="m 106.44599,240.058 c -0.15506,-0.11934 0.31343,-0.26801 0.41076,-0.39949 0.20456,0.0688 0.16497,0.14969 0.26065,0.22352 a 0.88750293,0.54411668 0 0 0 -0.67141,0.17597 z"
       id="path4810"
       inkscape:connector-curvature="0"
       style="fill:#231f20;fill-rule:evenodd;stroke-width:0.12916613" />
    <path
       class="cls-2"
       d="m 98.648176,235.37233 c -0.247445,-0.13249 0.320029,-0.54917 0.577371,-0.31251 -0.547678,-0.0374 -0.168262,0.26295 -0.577371,0.31251 z"
       id="path4812"
       inkscape:connector-curvature="0"
       style="fill:#231f20;fill-rule:evenodd;stroke-width:0.12916613" />
    <path
       class="cls-2"
       d="m 94.593376,232.72861 c 0.329927,0 0.626861,-0.33476 0.979882,-0.19014 -0.193007,0.10114 -0.395912,0.12238 -0.577371,0.31252 a 0.6120141,0.37521801 0 0 1 -0.402511,-0.12238 z"
       id="path4814"
       inkscape:connector-curvature="0"
       style="fill:#231f20;fill-rule:evenodd;stroke-width:0.12916613" />
    <path
       class="cls-2"
       d="m 102.42254,236.46562 a 0.89245183,0.54715079 0 0 0 0.74398,-0.22554 c 0.0858,0.0587 0.16497,0.0657 0.2359,0.0354 0.0841,0.0273 0.0511,0.0607 0.0115,0.0941 -0.0742,0.0354 -0.033,0.0647 0.0132,0.0941 -0.14186,0.091 -0.32992,-0.10822 -0.46024,0.0222 -0.0148,0.11125 0.18805,0.21238 0.12042,0.32566 -0.54603,0.13856 -0.4487,-0.12946 -0.6648,-0.34589 z"
       id="path4816"
       inkscape:connector-curvature="0"
       style="fill:#231f20;fill-rule:evenodd;stroke-width:0.12916613" />
    <path
       class="cls-2"
       d="m 103.71255,236.87624 -0.32993,-0.17295 c 0.11218,-0.1244 0.24415,-0.10114 0.36457,-0.15979 0.0594,0.1072 0.15507,0.21339 -0.0346,0.33274 z"
       id="path4818"
       inkscape:connector-curvature="0"
       style="fill:#231f20;fill-rule:evenodd;stroke-width:0.12916613" />
    <path
       class="cls-2"
       d="m 96.175375,232.41509 c -0.193007,0.0142 -0.143518,0.0627 -0.211153,0.15271 0.13362,0.0435 0.245795,-0.092 0.364569,-0.15979 0.136919,0.0647 0.282087,0.18912 0.40251,0.12237 0.03629,0.31858 -0.659853,0.0384 -0.8974,0.23363 -0.291986,-0.11226 -0.05609,-0.24981 -0.04949,-0.37623 -0.207854,-0.0101 -0.402511,0.0748 -0.626861,-0.0637"
       id="path4820"
       inkscape:connector-curvature="0"
       style="fill:#231f20;fill-rule:evenodd;stroke-width:0.12916613" />
    <path
       class="cls-2"
       d="m 104.69408,237.30202 c -0.0495,-0.25689 -0.11547,-0.267 -0.36787,-0.45511 0.19631,-0.0395 0.38437,0 0.40252,0.12237 0.24909,-0.28015 0.53448,-0.43185 0.91884,-0.66143 -0.0313,0.42073 -0.75553,0.52793 -0.95349,0.99417 z"
       id="path4822"
       inkscape:connector-curvature="0"
       style="fill:#231f20;fill-rule:evenodd;stroke-width:0.12916613" />
    <path
       class="cls-2"
       d="m 103.60862,236.12277 c -0.32992,0.11833 -0.11382,-0.42781 -0.58067,-0.30342 -0.16496,-0.21946 0.34478,-0.0344 0.43551,-0.21137 -0.0577,0.36308 0.38271,0.12541 0.54438,0.0212 0.24579,0.17496 -0.21446,0.3115 -0.41241,0.39949 -0.0693,0.0354 -0.028,0.0647 0.0132,0.0941 z"
       id="path4824"
       inkscape:connector-curvature="0"
       style="fill:#231f20;fill-rule:evenodd;stroke-width:0.12916613" />
    <path
       class="cls-2"
       d="m 101.95899,235.25703 c -0.0693,-0.20227 0.14682,-0.33577 0.32993,-0.44298 0.13032,0.10114 -0.20786,0.23161 0.12042,0.32566 -0.14682,0.10114 -0.32168,-0.0576 -0.45035,0.11732 z"
       id="path4826"
       inkscape:connector-curvature="0"
       style="fill:#231f20;fill-rule:evenodd;stroke-width:0.12916613" />
    <path
       class="cls-2"
       d="m 98.079052,232.79435 q -0.438802,-0.16789 -0.04949,-0.37623 0.440452,0.16789 0.04949,0.37623 z"
       id="path4828"
       inkscape:connector-curvature="0"
       style="fill:#231f20;fill-rule:evenodd;stroke-width:0.12916613" />
    <path
       class="cls-2"
       d="m 98.573942,232.43936 c -0.2227,-0.0324 -0.06598,-0.29734 -0.329927,-0.17295 -0.122072,-0.35802 0.648306,0.002 0.329927,0.17295 z"
       id="path4830"
       inkscape:connector-curvature="0"
       style="fill:#231f20;fill-rule:evenodd;stroke-width:0.12916613" />
    <path
       class="cls-2"
       d="m 105.86697,233.2616 c 0.31508,-0.11125 0.16497,-0.14665 0.43551,-0.21137 0.11052,0.1426 -0.14022,0.41971 -0.43551,0.21137 z"
       id="path4834"
       inkscape:connector-curvature="0"
       style="fill:#231f20;fill-rule:evenodd;stroke-width:0.12916613" />
    <path
       class="cls-2"
       d="m 103.64987,231.6687 -0.2491,-0.12643 c 0.19961,-0.0485 0.37612,-0.27408 0.60212,-0.12439 z"
       id="path4836"
       inkscape:connector-curvature="0"
       style="fill:#231f20;fill-rule:evenodd;stroke-width:0.12916613" />
    <path
       class="cls-2"
       d="m 105.65252,230.42977 c -0.25569,0.009 -0.48334,0.23969 -0.75553,0.13148 0.19136,-0.0799 0.50479,-0.39444 0.11712,-0.29027 -0.0709,-0.20227 0.55428,-0.0526 0.73079,-0.3206 0.47015,0.3297 -0.6681,0.19519 -0.0924,0.47939 z"
       id="path4838"
       inkscape:connector-curvature="0"
       style="fill:#231f20;fill-rule:evenodd;stroke-width:0.12916613" />
    <path
       class="cls-2"
       d="m 50.195135,281.98634 a 0.51633535,0.31655859 0 0 1 0.320029,0.0789 0.51468571,0.31554722 0 0 0 -0.295285,0.10923"
       id="path4840"
       inkscape:connector-curvature="0"
       style="fill:#231f20;fill-rule:evenodd;stroke-width:0.12916613" />
    <path
       class="cls-2"
       d="m 51.006754,283.46294 -0.282087,0.20227 c -0.267241,-0.32667 -0.399211,-0.46826 0.282087,-0.20227 z"
       id="path4842"
       inkscape:connector-curvature="0"
       style="fill:#231f20;fill-rule:evenodd;stroke-width:0.12916613" />
    <path
       class="cls-2"
       d="m 99.814467,235.45728 c -0.09568,0.0516 -0.107226,0.10114 -0.05774,0.14463 -0.40581,0.091 -0.245796,-0.23565 -0.427256,-0.31049 0.278789,-0.0445 0.155066,0.14159 0.484993,0.16586 z"
       id="path4850"
       inkscape:connector-curvature="0"
       style="fill:#231f20;fill-rule:evenodd;stroke-width:0.12916613" />
    <path
       class="cls-2"
       d="M 64.80759,248.40382"
       id="path4854"
       inkscape:connector-curvature="0"
       style="fill:#231f20;fill-rule:evenodd;stroke-width:0.12916613" />
    <path
       class="cls-2"
       d="m 40.389712,230.6553 c 0.189708,0.16486 0.07753,0.39039 0.320029,0.0789 0.339824,0.15676 0.03629,0.34589 -0.0099,0.52187 0.351372,0.0101 0.308482,0.25183 0.569124,0.20935 -0.280438,0.3115 -1.336204,-0.51074 -0.879255,-0.81011 z"
       id="path4856"
       inkscape:connector-curvature="0"
       style="fill:#231f20;fill-rule:evenodd;stroke-width:0.12916613" />
    <path
       class="cls-2"
       d="m 48.065458,227.90944 c 0.197956,0.10113 0.122072,0.21542 0.427255,0.31049 0.230948,0.10113 0,-0.14665 0.282087,-0.20228 a 0.70934249,0.4348888 0 0 0 0.343124,0.267 c 0.155065,-0.19721 0.117124,-0.38533 0.07918,-0.57243 a 0.48004341,0.29430847 0 0 1 0.473445,0.0718 c -0.465197,0.22856 -0.09568,0.41567 -0.303532,0.63109 -0.508088,-0.21036 -1.618291,0.0809 -1.301561,-0.50568 z"
       id="path4860"
       inkscape:connector-curvature="0"
       style="fill:#231f20;fill-rule:evenodd;stroke-width:0.12916613" />
    <path
       class="cls-2"
       d="m 63.898642,232.57893 c 0.204554,-0.25082 -0.164964,-0.178 -0.285387,-0.41264"
       id="path4872"
       inkscape:connector-curvature="0"
       style="fill:#231f20;fill-rule:evenodd;stroke-width:0.12916613" />
    <path
       class="cls-2"
       d="m 63.115066,231.90738 c 0.141868,-0.091 0.329927,0.10821 0.460248,-0.0222 0.01155,0.13754 0,0.37926 -0.258993,0.3914 -0.49489,-0.24779 0.475095,-0.27307 -0.201255,-0.36915 z"
       id="path4874"
       inkscape:connector-curvature="0"
       style="fill:#231f20;fill-rule:evenodd;stroke-width:0.12916613" />
    <path
       class="cls-2"
       d="m 52.659687,225.2202 a 0.2985837,0.18305784 0 0 1 0.377767,-0.0657 0.77697747,0.47635494 0 0 0 -0.107227,-0.23161 c 0.460248,-0.09 0.169913,0.59974 -0.27054,0.29734 z"
       id="path4882"
       inkscape:connector-curvature="0"
       style="fill:#231f20;fill-rule:evenodd;stroke-width:0.12916613" />
    <path
       class="cls-2"
       d="m 59.480923,228.34331 c -0.263942,-0.27104 0.377766,-0.10113 0.577372,-0.31251 0.164963,0.10114 0,0.22149 -0.188059,0.34083 -0.0198,-0.13653 -0.216102,-0.24273 -0.389313,-0.0283 z"
       id="path4888"
       inkscape:connector-curvature="0"
       style="fill:#231f20;fill-rule:evenodd;stroke-width:0.12916613" />
    <path
       class="cls-2"
       d="m 52.450184,223.61921 c -0.08083,-0.0587 0.02474,-0.0748 0.07093,-0.0506 0.26889,-0.10721 0.06599,-0.19216 0.27054,-0.29734 0,0.27307 0.49489,0.0314 0.49489,0.25992 a 1.9630641,1.2035295 0 0 1 -0.836364,0.088 z"
       id="path4892"
       inkscape:connector-curvature="0"
       style="fill:#231f20;fill-rule:evenodd;stroke-width:0.12916613" />
    <path
       class="cls-2"
       d="m 58.202457,223.2895 c -0.395912,-0.0607 -0.610365,-0.0951 -0.805022,-0.24475 0.300234,0.1335 0.54438,-0.16688 0.851211,0.006 0.224351,-0.19014 -0.49489,-0.0344 -0.262291,-0.22453 -0.108876,-0.0425 -0.199606,0.0556 -0.293635,0.10923 0,-0.0951 -0.283737,-0.17598 -0.03794,-0.28217"
       id="path4906"
       inkscape:connector-curvature="0"
       style="fill:#231f20;fill-rule:evenodd;stroke-width:0.12916613" />
    <path
       class="cls-2"
       d="m 108.99632,241.8279 c -0.066,0.0506 0.0462,0.092 0.0957,0.13755 -0.18971,0.12439 -0.37941,0.25284 -0.60211,0.12439 0.32002,-0.11023 0.25899,-0.25082 0.6483,-0.36409 0.0792,0.0678 -0.0577,0.14463 -0.14187,0.10215 z"
       id="path4924"
       inkscape:connector-curvature="0"
       style="fill:#231f20;fill-rule:evenodd;stroke-width:0.12916613" />
    <path
       class="cls-2"
       d="m 109.51101,241.04915 c -0.17486,0.23463 -0.41736,-0.0465 -0.61367,0.0303 -0.19135,-0.18003 0.38107,-0.39747 -0.22764,-0.55727 -0.16496,-0.20834 0.36786,0.13856 0.47344,0.0718 0.21115,-0.15474 0.0561,-0.47636 0.50644,-0.26195 -0.43386,0.1062 -0.0693,0.29634 -0.56418,0.40455 -0.14681,0.11024 0.32003,0.20228 0.42561,0.31252 z"
       id="path4926"
       inkscape:connector-curvature="0"
       style="fill:#231f20;fill-rule:evenodd;stroke-width:0.12916613" />
    <path
       class="cls-2"
       d="m 105.12464,238.22844 c -0.0874,-0.0668 0.0561,-0.14463 0.14187,-0.10114 0.0693,-0.0667 -0.0907,-0.12136 -0.17816,-0.18104 a 8.3603436,5.1256196 0 0 0 0.6483,-0.36308 c 0.33488,0.0374 -0.40416,0.52591 -0.61201,0.64526 z"
       id="path4928"
       inkscape:connector-curvature="0"
       style="fill:#231f20;fill-rule:evenodd;stroke-width:0.12916613" />
    <path
       class="cls-2"
       d="m 109.21737,239.92248 c 0.0924,0.087 -0.12372,0.0475 -0.21115,0.15272 -0.37282,-0.28521 -0.30848,-0.13755 -0.73408,-0.29532 0.13032,-0.23869 0.72418,0.10113 0.60211,-0.1244 0.27219,-0.13047 0.094,0.39443 0.34312,0.267 z"
       id="path4930"
       inkscape:connector-curvature="0"
       style="fill:#231f20;fill-rule:evenodd;stroke-width:0.12916613" />
    <path
       class="cls-2"
       d="m 101.16552,235.72226 c 0.14516,0.30948 -0.63841,-0.14462 -0.34478,-0.267 0.37942,0.0516 0.0775,0.36511 0.34478,0.267 z"
       id="path4932"
       inkscape:connector-curvature="0"
       style="fill:#231f20;fill-rule:evenodd;stroke-width:0.12916613" />
    <path
       class="cls-2"
       d="m 97.295476,232.1228 c 0.293635,-0.0941 0.49489,0.092 0.651605,0.25284 -0.08083,0.0759 -0.562525,-0.11934 -0.377766,0.0657 -0.214452,-0.0647 -0.522934,-0.23261 -0.369518,-0.45512 -0.386014,-0.0637 -0.49489,0.0516 -0.588919,0.21846 a 0.29693407,0.18204647 0 0 0 0.389314,0.0283 c -0.107227,0.3651 -0.549328,-0.0263 -1.004627,0"
       id="path4934"
       inkscape:connector-curvature="0"
       style="fill:#231f20;fill-rule:evenodd;stroke-width:0.12916613" />
    <path
       class="cls-2"
       d="M 97.661695,231.963"
       id="path4936"
       inkscape:connector-curvature="0"
       style="fill:#231f20;fill-rule:evenodd;stroke-width:0.12916613" />
    <path
       class="cls-2"
       d="m 102.87619,235.21152 c 0.033,0.18508 0.0858,0.29633 -0.25735,0.3914 -0.16496,-0.0556 -0.10062,-0.12136 -0.0247,-0.18811 a 0.51303608,0.31453585 0 0 1 -0.32003,-0.0789 c 0.21775,-0.10114 0.45695,-0.0546 0.67305,-0.17497 0.0808,0.0587 -0.0247,0.0748 -0.0709,0.0506 z"
       id="path4938"
       inkscape:connector-curvature="0"
       style="fill:#231f20;fill-rule:evenodd;stroke-width:0.12916613" />
    <path
       class="cls-2"
       d="m 104.33446,233.95641 a 0.77367821,0.4743322 0 0 0 0.10723,0.23161 c -0.31673,0.10113 -0.20785,-0.20228 -0.49489,-0.25993 0.14187,-0.091 0.32993,0.10822 0.46025,-0.0222 0.0792,0.0576 -0.0264,0.0738 -0.0726,0.0506 z"
       id="path4940"
       inkscape:connector-curvature="0"
       style="fill:#231f20;fill-rule:evenodd;stroke-width:0.12916613" />
    <path
       class="cls-2"
       d="m 103.97484,230.60979 c 0.20291,0.17092 0.35302,-0.0566 0.55593,0.1153 l -0.28209,0.20227 c -0.0858,-0.0587 0.0594,-0.12945 0.12867,-0.1962 -0.26559,-0.0627 -0.49489,0.12743 -0.78027,-0.0566"
       id="path4942"
       inkscape:connector-curvature="0"
       style="fill:#231f20;fill-rule:evenodd;stroke-width:0.12916613" />
    <path
       class="cls-2"
       d="m 53.050651,285.49377 c 0.08083,0.0597 -0.02475,0.0748 -0.07093,0.0506 -0.189708,0.088 -0.0165,0.15878 0.107227,0.2316 -0.621912,0.2933 -0.118774,-0.2225 -0.659854,-0.3469 0.193007,-0.0748 0.430554,0.16991 0.623562,0.0647 z"
       id="path4948"
       inkscape:connector-curvature="0"
       style="fill:#231f20;fill-rule:evenodd;stroke-width:0.12916613" />
    <path
       class="cls-2"
       d="m 93.423786,237.38192 c 0.183109,-0.18103 0.399211,-0.10114 0.577372,-0.31251 -0.329927,-0.15778 -0.577372,0.31554 -0.922146,0.0455 0.260642,-0.18104 0.549328,-0.13856 0.81327,-0.27712 0.252394,0.0951 0.389313,0.52592 0.722539,0.20228 0.08248,0.12237 0.07258,0.24879 0.202905,0.36915 -0.05114,0.13552 -0.483342,0.0404 -0.282087,0.20227 -0.341474,0.14564 -0.735737,-0.11631 -1.111853,-0.22958 z"
       id="path4960"
       inkscape:connector-curvature="0"
       style="fill:#231f20;fill-rule:evenodd;stroke-width:0.12916613" />
    <path
       class="cls-2"
       d="m 103.70595,240.38164 -0.32992,-0.17294 c 0.29693,-0.24273 0.30188,-0.36814 0.71924,-0.41365 0.16496,0.087 -0.0874,0.19317 0.1897,0.27509 -0.18146,0.1335 -0.37281,0.30543 -0.57902,0.3115 z"
       id="path4962"
       inkscape:connector-curvature="0"
       style="fill:#231f20;fill-rule:evenodd;stroke-width:0.12916613" />
    <path
       class="cls-2"
       d="m 104.52252,238.35182 c -0.53283,-0.11833 -0.47014,-0.50568 -0.75883,-0.48343 -0.19961,-0.14159 0.21775,-0.16182 0.30683,-0.0152 a 0.97988242,0.60075336 0 0 0 -0.0495,-0.37623 c 0.30518,-0.15575 0.67635,0.20227 0.82482,0.33881 -0.65326,0.17294 0.0907,0.27307 -0.32333,0.53602 z"
       id="path4964"
       inkscape:connector-curvature="0"
       style="fill:#231f20;fill-rule:evenodd;stroke-width:0.12916613" />
    <path
       class="cls-2"
       d="m 105.94616,281.10645 -0.27054,-0.14058 c 0.25404,0.0222 0.45364,-0.38533 0.74398,-0.088 -0.31178,0.0607 -0.33653,0.003 -0.47344,0.22857 z"
       id="path4968"
       inkscape:connector-curvature="0"
       style="fill:#231f20;fill-rule:evenodd;stroke-width:0.12916613" />
    <path
       class="cls-2"
       d="m 104.94483,278.58106 c -0.0874,-0.1335 -0.42231,-0.25284 -0.38767,-0.39241 0.32168,-0.23666 0.6846,0.27105 0.38767,0.39241 z"
       id="path4970"
       inkscape:connector-curvature="0"
       style="fill:#231f20;fill-rule:evenodd;stroke-width:0.12916613" />
    <path
       class="cls-2"
       d="m 106.01214,279.04427 c -0.0709,-0.1335 0.22765,-0.28622 0.28044,-0.42579 0.41901,0.22149 -0.0445,0.24677 -0.28044,0.42579 z"
       id="path4972"
       inkscape:connector-curvature="0"
       style="fill:#231f20;fill-rule:evenodd;stroke-width:0.12916613" />
    <path
       class="cls-2"
       d="m 108.12202,279.76335 -0.17981,-0.0941 c 0.56583,-0.37825 1.21413,-0.14462 1.86243,0.11429 -0.53613,0.178 -1.15969,-0.31049 -1.68262,-0.0202 z"
       id="path4974"
       inkscape:connector-curvature="0"
       style="fill:#231f20;fill-rule:evenodd;stroke-width:0.12916613" />
    <path
       class="cls-2"
       d="m 105.89337,278.12291 c 0.1996,-0.24677 0.61531,0.14766 0.61696,0.22756 -0.14187,0.0617 -0.72089,-0.0516 -0.61696,-0.22756 z"
       id="path4976"
       inkscape:connector-curvature="0"
       style="fill:#231f20;fill-rule:evenodd;stroke-width:0.12916613" />
    <path
       class="cls-2"
       d="m 108.59381,278.86525 c -0.23754,-0.0668 -0.11877,0.54817 -0.6417,0.23768 -0.13197,-0.17092 0.54768,-0.15373 0.37117,-0.37826 0.78852,0.14969 0.46024,0.31555 0.91389,0.57244 -0.18971,0.25689 -0.46025,-0.089 -0.65985,0.13552 0.14516,-0.1962 -0.005,-0.37724 0.0165,-0.56738 z"
       id="path4978"
       inkscape:connector-curvature="0"
       style="fill:#231f20;fill-rule:evenodd;stroke-width:0.12916613" />
    <path
       class="cls-2"
       d="M 106.95573,282.39493"
       id="path4982"
       inkscape:connector-curvature="0"
       style="fill:#231f20;fill-rule:evenodd;stroke-width:0.12916613" />
    <path
       class="cls-2"
       d="m 107.11904,281.71833 c -0.36291,-0.11934 0.13363,-0.28116 -0.0528,-0.40455 0.27878,-0.0839 0.50149,0.34993 0.0528,0.40455 z"
       id="path4984"
       inkscape:connector-curvature="0"
       style="fill:#231f20;fill-rule:evenodd;stroke-width:0.12916613" />
    <path
       class="cls-2"
       d="m 85.561632,260.20448 c 0.371167,0.0738 -0.02309,0.31555 -0.298584,0.30948 0.04289,-0.11732 -0.09733,-0.15171 -0.04124,-0.27408 0.151766,0.0202 0.303533,0.0394 0.339824,-0.0354 z"
       id="path5000"
       inkscape:connector-curvature="0"
       style="fill:#231f20;fill-rule:evenodd;stroke-width:0.12916613" />
    <path
       class="cls-2"
       d="m 85.462654,260.59993 0.329926,0.0303 c 0.04124,0.19519 -0.194657,0.15676 -0.191357,0.31959 -0.442102,-0.0303 -0.249095,-0.1952 -0.138569,-0.34993 z"
       id="path5002"
       inkscape:connector-curvature="0"
       style="fill:#231f20;fill-rule:evenodd;stroke-width:0.12916613" />
    <path
       class="cls-2"
       d="m 84.783004,260.66971 c -0.05114,0.19722 -0.329926,0.20227 -0.423955,0.3651 -0.123723,-0.0222 -0.05939,-0.12844 -0.05774,-0.20834 0.01485,-0.12339 -0.353021,-0.0748 -0.397561,-0.17294 0.219401,-0.0668 0.697795,-0.1244 0.879254,0.0162 z"
       id="path5004"
       inkscape:connector-curvature="0"
       style="fill:#231f20;fill-rule:evenodd;stroke-width:0.12916613" />
    <path
       class="cls-2"
       d="m 65.502086,260.18628 c -0.01155,0.17698 -0.204555,0.20227 -0.480044,0.15676 0.0132,-0.17901 0.206205,-0.20329 0.480044,-0.15676 z"
       id="path5010"
       inkscape:connector-curvature="0"
       style="fill:#231f20;fill-rule:evenodd;stroke-width:0.12916613" />
    <path
       class="cls-2"
       d="m 71.523249,261.23203 c 0.49489,0.18913 -0.252394,0.31353 -0.02639,0.53805 -0.49654,-0.0607 0.05114,-0.36713 0.02639,-0.53805 z"
       id="path5014"
       inkscape:connector-curvature="0"
       style="fill:#231f20;fill-rule:evenodd;stroke-width:0.12916613" />
    <path
       class="cls-2"
       d="m 70.188695,261.71243 c 0.265591,0 0.204555,0.1426 0.521284,0.11732 -0.07753,0.34387 -0.562525,0.0809 -0.521284,-0.11732 z"
       id="path5016"
       inkscape:connector-curvature="0"
       style="fill:#231f20;fill-rule:evenodd;stroke-width:0.12916613" />
    <path
       class="cls-2"
       d="m 66.180085,261.87223 c -0.36127,-0.009 -0.577372,0.10113 -0.824817,0.19216 -0.214452,-0.0405 -0.164963,-0.20228 -0.379415,-0.23869 0.343123,-0.10821 1.042568,-0.32161 1.204232,0.0465 z"
       id="path5018"
       inkscape:connector-curvature="0"
       style="fill:#231f20;fill-rule:evenodd;stroke-width:0.12916613" />
    <path
       class="cls-2"
       d="m 86.572857,264.85577 c -0.03629,-0.0688 -0.07093,-0.13856 -0.197956,-0.16587 -0.306832,-0.0111 0.128671,0.13856 -0.07258,0.28723 -0.36127,-0.008 -0.183109,-0.25689 -0.260642,-0.3914 0.227649,-0.10821 0.376116,0.10114 0.824817,0.0779 -0.03959,0.0809 0,0.13046 0.08083,0.15474 -0.07258,0.20227 -0.280438,0.28621 -0.659854,0.23059 0.06104,-0.09 0.230949,-0.0931 0.285387,-0.19317 z"
       id="path5020"
       inkscape:connector-curvature="0"
       style="fill:#231f20;fill-rule:evenodd;stroke-width:0.12916613" />
    <path
       class="cls-2"
       d="m 92.831567,266.62769 0.349723,0.0334 c -0.217752,0.21138 -0.08578,0.23767 -0.127022,0.50569 -0.395912,-0.13452 -0.428905,-0.0364 -0.800073,-0.14969 0.08578,-0.2225 0.613664,-0.0698 0.577372,-0.38937 z"
       id="path5022"
       inkscape:connector-curvature="0"
       style="fill:#231f20;fill-rule:evenodd;stroke-width:0.12916613" />
    <path
       class="cls-2"
       d="m 99.588467,267.85852 c 0.108876,0.14969 0.173211,0.48647 -0.02804,0.58457 -0.275489,-0.20935 -0.02804,-0.28419 0.02804,-0.58457 z"
       id="path5024"
       inkscape:connector-curvature="0"
       style="fill:#231f20;fill-rule:evenodd;stroke-width:0.12916613" />
    <path
       class="cls-2"
       d="m 65.785823,263.86159 c -0.112175,0.14665 -0.402511,0.1426 -0.514686,0.28925 -0.410759,-0.16586 0.588919,-0.26498 -0.148467,-0.28419 a 0.43880256,0.26902423 0 0 1 0.663153,-0.005 z"
       id="path5026"
       inkscape:connector-curvature="0"
       style="fill:#231f20;fill-rule:evenodd;stroke-width:0.12916613" />
    <path
       class="cls-2"
       d="m 90.718386,269.29062 c -0.164963,0.18508 -0.339824,-0.13451 -0.702743,-0.0668 0.329926,-0.22958 0.321678,-0.41365 0.316729,-0.77774 0.133621,0.0243 0.212803,0 0.252394,-0.0496 0.321679,0.34083 -0.567474,0.69178 0.13362,0.89405 z"
       id="path5028"
       inkscape:connector-curvature="0"
       style="fill:#231f20;fill-rule:evenodd;stroke-width:0.12916613" />
    <path
       class="cls-2"
       d="m 95.814105,269.04182 c 0.05444,-0.10113 1.004627,-0.0748 0.800072,0.14969 -0.301883,-0.14463 -0.517985,0.0354 -0.800072,-0.14969 z"
       id="path5030"
       inkscape:connector-curvature="0"
       style="fill:#231f20;fill-rule:evenodd;stroke-width:0.12916613" />
    <path
       class="cls-2"
       d="M 102.31696,270.32222"
       id="path5032"
       inkscape:connector-curvature="0"
       style="fill:#231f20;fill-rule:evenodd;stroke-width:0.12916613" />
    <path
       class="cls-2"
       d="m 87.981644,269.69112 c 0.07753,-0.20227 0.06269,-0.36712 -0.125372,-0.45309 0.197956,-0.20227 0.433854,0.0931 0.567474,0.12743 -0.140219,0.1153 -0.09403,0.38533 -0.442102,0.32566 z"
       id="path5034"
       inkscape:connector-curvature="0"
       style="fill:#231f20;fill-rule:evenodd;stroke-width:0.12916613" />
    <path
       class="cls-2"
       d="m 97.63695,270.83094 0.09073,-0.35803 c -0.415708,-0.088 -0.49489,0.11226 -0.85451,0.0657 0.150116,-0.13552 0.311781,-0.26093 0.460248,-0.39646 0.262291,0.22756 0.275488,-0.0607 0.603766,-0.0162 -0.222701,0.26903 0.348072,0.18306 0.125372,0.45208 l 0.701094,0.0668 c -0.04619,0.12743 0.105577,0.16485 0.04454,0.29734 -0.288686,0 -0.221051,-0.15474 -0.567474,-0.12743 0.282088,-0.24779 -0.336525,-0.10519 -0.603766,0.0162 z"
       id="path5036"
       inkscape:connector-curvature="0"
       style="fill:#231f20;fill-rule:evenodd;stroke-width:0.12916613" />
    <path
       class="cls-2"
       d="m 80.018862,268.49164 c -0.148467,0.19317 0.117124,0.20227 0.02639,0.37016 -0.369517,-0.20227 -0.422306,0.11429 -0.701094,-0.0668 0.117124,-0.19216 0.226,-0.3914 0.6747,-0.30341 z"
       id="path5038"
       inkscape:connector-curvature="0"
       style="fill:#231f20;fill-rule:evenodd;stroke-width:0.12916613" />
    <path
       class="cls-2"
       d="m 86.688331,269.12678 0.234248,0.0222 c -0.08248,0.24374 0.415708,0.0233 0.529533,0.27105 -0.240847,0.29633 -0.40416,-0.14058 -0.935343,-0.089 -0.0033,-0.11935 0.141869,-0.11328 0.171562,-0.2043 z"
       id="path5040"
       inkscape:connector-curvature="0"
       style="fill:#231f20;fill-rule:evenodd;stroke-width:0.12916613" />
    <path
       class="cls-2"
       d="m 96.630674,270.07544 c 0.107226,0.0576 0.07918,0.17598 0.31343,0.17699 0,0.11935 -0.141868,0.11328 -0.164963,0.20228 l -0.234248,-0.0222 c -0.194657,-0.15474 0.09733,-0.12238 0.08578,-0.35702 z"
       id="path5042"
       inkscape:connector-curvature="0"
       style="fill:#231f20;fill-rule:evenodd;stroke-width:0.12916613" />
    <path
       class="cls-2"
       d="m 85.913004,269.34726 c 0.232598,-0.18104 0.555926,0.12642 0.529532,0.27105 -0.374467,-0.001 -0.258993,-0.22352 -0.529532,-0.27105 z"
       id="path5044"
       inkscape:connector-curvature="0"
       style="fill:#231f20;fill-rule:evenodd;stroke-width:0.12916613" />
    <path
       class="cls-2"
       d="m 95.154252,270.22715 c 0.577371,0 0.250744,0.39646 0.727488,0.43691 a 0.56252509,0.34487693 0 0 0 -0.164963,0.20227 c -0.395912,-0.12035 -0.310132,-0.45511 -0.562525,-0.63918 z"
       id="path5046"
       inkscape:connector-curvature="0"
       style="fill:#231f20;fill-rule:evenodd;stroke-width:0.12916613" />
    <path
       class="cls-2"
       d="m 92.589071,270.42336 c 0.18146,-0.0152 -0.02309,-0.10114 0.05444,-0.21543 0.31343,0.008 0.357971,0.13654 0.277138,0.32061 l -0.935342,-0.089 c 0.03299,-0.18003 -0.164963,-0.24273 0.09073,-0.35904 0.184759,0.10822 0.283737,0.25588 0.513036,0.34286 z"
       id="path5048"
       inkscape:connector-curvature="0"
       style="fill:#231f20;fill-rule:evenodd;stroke-width:0.12916613" />
    <path
       class="cls-2"
       d="m 95.556762,271.00085 c 0.09073,-0.15575 0.58397,0.0253 0.836364,0.006 -0.156715,0.24475 -0.724189,0.14766 -0.836364,-0.006 z"
       id="path5050"
       inkscape:connector-curvature="0"
       style="fill:#231f20;fill-rule:evenodd;stroke-width:0.12916613" />
    <path
       class="cls-2"
       d="m 95.619448,271.22638 c 0.02144,0.27914 -0.229299,0.32971 -0.262292,0.56232 -0.522933,-0.27509 0.09733,-0.46927 -0.612014,-0.42578 0.100628,-0.27611 0.559226,-0.26094 0.874306,-0.13654 z"
       id="path5052"
       inkscape:connector-curvature="0"
       style="fill:#231f20;fill-rule:evenodd;stroke-width:0.12916613" />
    <path
       class="cls-2"
       d="m 84.62464,270.17658 c -0.164964,0.33679 -0.641708,-0.11428 -0.971635,0.0546 0.160015,-0.33275 0.697795,0.089 0.971635,-0.0546 z"
       id="path5054"
       inkscape:connector-curvature="0"
       style="fill:#231f20;fill-rule:evenodd;stroke-width:0.12916613" />
    <path
       class="cls-2"
       d="m 95.817404,271.39022 c 0.252394,0.0546 0,0.38938 -0.108876,0.42984 -0.254043,-0.0526 0.0033,-0.38635 0.108876,-0.42984 z"
       id="path5056"
       inkscape:connector-curvature="0"
       style="fill:#231f20;fill-rule:evenodd;stroke-width:0.12916613" />
    <path
       class="cls-2"
       d="m 70.531819,263.84136 c 0.141868,-0.18609 0.122073,0.16789 0.414058,0.1062 0.03299,0.18811 -0.247445,0.11226 -0.282087,0.24374 -0.422307,-0.0384 0.06433,-0.33375 -0.131971,-0.34994 z"
       id="path5070"
       inkscape:connector-curvature="0"
       style="fill:#231f20;fill-rule:evenodd;stroke-width:0.12916613" />
    <path
       class="cls-2"
       d="m 99.999226,269.07318 c -0.443752,-0.11226 -0.410759,0.23868 -1.007926,0.20227 0.04454,-0.22351 0.229299,-0.32869 0.361269,-0.4804 0.04289,0.29937 0.31838,0.10316 0.646657,0.27813 z"
       id="path5072"
       inkscape:connector-curvature="0"
       style="fill:#231f20;fill-rule:evenodd;stroke-width:0.12916613" />
    <path
       class="cls-2"
       d="m 100.70032,269.13993 c -0.0478,0.13451 -0.39921,0.0131 -0.40581,0.18204 -0.13857,-0.12338 -0.354671,-0.35094 -0.12537,-0.45309 0.69119,0.0566 -0.18971,0.41871 0.53118,0.27105 z"
       id="path5074"
       inkscape:connector-curvature="0"
       style="fill:#231f20;fill-rule:evenodd;stroke-width:0.12916613" />
    <path
       class="cls-2"
       d="m 96.267754,271.50855 c 0.13692,-0.1163 0.329927,-0.18204 0.442102,-0.32465 a 0.65985348,0.40454772 0 0 0 0.45035,0.11631 c 0.08248,-0.18508 -0.438802,-0.10113 -0.277138,-0.3206 0.435503,0.23969 0.08908,-0.0809 0.484992,-0.0273 -0.03959,0.26498 0.09073,0.29026 -0.127022,0.50569 -0.164963,-0.0101 -0.329927,-0.0192 -0.329927,-0.10114 -0.13197,0.006 -0.115474,0.13552 -0.27054,0.12136 -0.06433,0.17699 0.122073,0.24172 0.278789,0.32061 -0.197956,0.0951 -0.494891,0.1072 -0.854511,0.0657 0.02145,-0.28116 0.341474,0.0718 0.521285,-0.17092 a 0.32992674,0.20227386 0 0 0 -0.31838,-0.18509 z"
       id="path5076"
       inkscape:connector-curvature="0"
       style="fill:#231f20;fill-rule:evenodd;stroke-width:0.12916613" />
    <path
       class="cls-2"
       d="m 93.105406,268.8618 c 0.196307,0.2933 0,0.49861 0.267241,0.83337 -0.511386,-0.0819 -0.682948,0.12238 -0.710992,0.44601 -0.267241,-0.0708 -0.521284,-0.14867 -0.513036,-0.34285 0.615313,0.2579 -0.415708,-0.3469 0.40581,-0.18104 0,-0.086 -0.197956,-0.0809 -0.329927,-0.10113 0.128671,-0.13249 0.475095,-0.21846 0.621912,-0.088 0.07918,-0.0779 0.173212,-0.29027 0.258992,-0.56637 z"
       id="path5078"
       inkscape:connector-curvature="0"
       style="fill:#231f20;fill-rule:evenodd;stroke-width:0.12916613" />
    <path
       class="cls-1"
       d="m 119.2356,250.93022 -1.32961,0.24779 a 54.322438,33.304391 0 0 1 -7.46459,25.49763 l 1.18279,0.44298 a 55.721327,34.162032 0 0 0 7.61141,-26.1884 z"
       id="path5080"
       inkscape:connector-curvature="0"
       style="fill:#231f20;stroke-width:0.12916613" />
    <path
       class="cls-1"
       d="m 12.248611,258.5246 a 54.383474,33.341812 0 0 1 1.319707,-7.32232 l -1.329604,-0.24778 a 55.713079,34.156975 0 0 0 7.733482,26.27031 l 1.182787,-0.44298 A 53.95127,33.076833 0 0 1 12.248611,258.5246 Z"
       id="path5082"
       inkscape:connector-curvature="0"
       style="fill:#231f20;stroke-width:0.12916613" />
    <path
       class="cls-1"
       d="m 22.210749,276.33885 2.438158,-0.91023 a 50.053186,30.686967 0 0 1 -7.134665,-23.46377 l -2.743341,-0.51175 a 52.921899,32.445739 0 0 0 7.439848,24.88879 z"
       id="path5084"
       inkscape:connector-curvature="0"
       style="fill:#231f20;stroke-width:0.12916613" />
    <path
       class="cls-1"
       d="m 115.35566,258.5246 a 49.729858,30.488739 0 0 1 -8.17558,16.79378 l 2.43815,0.91024 c 4.59423,-4.3054 8.59295,-11.95641 8.59295,-17.70807 a 52.997782,32.492262 0 0 0 -1.27517,-7.09779 l -2.74334,0.51175 a 50.148864,30.745627 0 0 1 1.16299,6.59009 z"
       id="path5086"
       inkscape:connector-curvature="0"
       style="fill:#231f20;stroke-width:0.12916613" />
    <path
       class="cls-1"
       d="m 39.835435,279.81493 a 9.3930143,5.7587368 0 0 0 -1.276816,-2.22501 13.985595,8.5743889 0 0 0 -1.1267,-1.00126 1.4648747,0.89809594 0 0 0 -0.212803,-0.12237 c -0.164963,-0.0718 -0.562525,-0.17699 -2.164319,-0.41264 a 23.494083,14.403922 0 0 0 -2.443108,-0.30341 l -0.164963,-0.0111 c -1.545707,-0.089 -2.848918,-0.0566 -3.870041,0.0961 a 8.3438473,5.1155059 0 0 0 -2.954494,0.79393 c -0.164963,0.0708 -0.321679,0.15069 -0.478394,0.23565 a 8.8304892,5.4138599 0 0 0 -1.649633,1.25005 9.2379487,5.6636681 0 0 0 -1.258671,2.62956 13.413172,8.2234438 0 0 0 0.54108,2.74991 c 0.06104,0.12541 0.22435,0.39342 0.49489,0.81921 0.394262,0.63211 0.447051,0.6675 0.508087,0.70796 l 0.09073,0.0627 0.13362,0.0152 c 1.177839,0.1335 2.291342,0.23969 3.310815,0.31554 3.51207,0.26094 6.049207,0.18407 7.753279,-0.23261 a 7.1115709,4.3600131 0 0 0 2.20721,-0.82629 l 0.122072,-0.0668 a 8.2943582,5.0851648 0 0 0 1.649634,-1.32388 c 0.806671,-0.91327 1.067313,-1.9742 0.788525,-3.15042 z m -12.332662,4.31855 c -1.017824,-1.66371 -1.21413,-3.18278 -0.587269,-4.51678 a 8.1607379,5.0032439 0 0 1 1.194335,-1.58178 5.4437912,3.3375187 0 0 1 0.729138,-0.48242 6.5424473,4.0110906 0 0 1 1.385692,-0.57143 3.4642308,2.1238755 0 0 1 1.522612,-0.22351 3.2992674,2.0227386 0 0 1 0.415708,0.0142 2.9429465,1.8042828 0 0 1 1.072262,0.21138 5.2078936,3.1928929 0 0 1 1.445079,0.68368 c 0.103927,0.0718 0.204554,0.14867 0.278788,0.21239 a 3.7133255,2.2765923 0 0 1 0.374467,0.46118 c 0.659853,1.38052 0.651605,2.61237 -0.03794,3.66217 a 6.2273672,3.8179191 0 0 1 -1.66613,1.44626 7.8077163,4.7868109 0 0 1 -1.30651,0.5694 c -0.772028,0.26801 -2.048845,0.3378 -3.794157,0.20834 -0.324978,-0.0253 -0.669752,-0.0566 -1.026073,-0.093 z m 24.85998,-0.29229 c 0.699445,0.56435 0.953489,1.46042 0.778627,2.74182 l -0.767079,0.0678 c -0.204555,-0.32364 -1.090408,-0.94968 -4.150479,-2.0986 l -0.07258,-0.0223 a 9.4375544,5.7860438 0 0 0 -1.222379,1.16409 c -0.118774,0.14463 -0.232598,0.29633 -0.339825,0.45208 l -0.615313,0.94664 0.164963,0.0475 a 7.3705634,4.518798 0 0 1 3.196991,1.9216 l 0.31508,0.35398 -4.137282,0.0425 -0.05609,-0.20228 a 2.8043773,1.7193278 0 0 0 -0.371168,-0.64222 c -0.13362,0.20228 -0.273839,0.38837 -0.417357,0.56435 -0.904,1.10542 -2.024101,1.8063 -3.328961,2.0814 -1.275167,0.26599 -2.360626,0.36915 -3.226684,0.30341 a 3.4988731,2.1451143 0 0 1 -0.659853,-0.087 l 0.197956,-0.4713 h 0.04784 a 1.4087872,0.86370938 0 0 0 0.758832,-0.11024 2.5783775,1.5807702 0 0 0 0.824817,-0.40455 4.3896753,2.6912537 0 0 0 0.564174,-0.53501 6.5226516,3.9989542 0 0 0 0.278789,-0.39342 l 1.154743,-2.25435 a 20.912406,12.821129 0 0 0 -2.172567,-0.48849 l 0.09733,-0.47534 a 21.719077,13.315688 0 0 1 2.583326,-0.0202 8.457672,5.1852904 0 0 1 0.513036,-0.78583 6.9284615,4.2477511 0 0 1 0.392613,-0.41871 8.5896427,5.2661999 0 0 1 2.622918,-1.62527 8.7958469,5.3926211 0 0 1 -2.106582,-1.48368 c -0.702744,-0.72009 -1.001328,-1.59088 -0.885854,-2.58708 l 0.793474,0.0313 a 0.20950348,0.1284439 0 0 0 0,-0.0364 c 0.0082,0.0202 0.08248,0.14463 0.659854,0.61188 a 7.8258623,4.797936 0 0 0 1.930071,1.07913 c 0.308481,0.13249 1.319707,0.48546 3.007282,1.05183 1.761809,0.59165 2.957793,1.14183 3.64734,1.67887 z m 26.488169,5.4705 a 8.2844604,5.0790966 0 0 0 -0.689547,-1.61819 c -0.689547,-0.94462 -1.897079,-1.71933 -3.583005,-2.30795 a 9.5018901,5.8254872 0 0 0 -3.312464,-0.72009 c -0.112175,-0.0101 -0.22435,-0.0192 -0.338175,-0.0263 a 13.937755,8.5450592 0 0 0 -1.97956,-0.0688 1.3922908,0.85359569 0 0 0 -0.288686,0.0273 c -0.196307,0.0384 -0.572423,0.16384 -1.859138,0.79493 a 21.115311,12.945527 0 0 0 -1.994407,1.06902 c -1.062364,0.6938 -1.814597,1.34411 -2.2501,1.93273 a 8.3520954,5.1205628 0 0 0 -0.788525,1.9216 c 0,0.11934 0,0.24576 0.0099,0.37623 a 8.8321388,5.4148712 0 0 0 0.590569,1.56863 9.2511458,5.671759 0 0 0 2.622917,2.22501 13.409872,8.221421 0 0 0 3.863442,1.41592 c 0.196307,0.0475 0.643358,0.1335 1.362598,0.26195 a 9.8499628,6.0388861 0 0 0 1.105254,0.18508 l 0.07753,0.005 0.178161,-0.007 0.102277,-0.0556 c 3.982216,-2.17343 6.235615,-3.91097 6.89052,-5.30666 a 7.0785782,4.3397857 0 0 0 0.293635,-1.57268 z m -13.173975,-1.88115 a 3.003983,1.8417035 0 0 1 1.202583,-0.58154 5.219441,3.1999725 0 0 1 1.765108,-0.28015 c 0.164963,-0.006 0.320029,-0.008 0.443751,-0.005 l 0.212803,0.0172 a 3.1755449,1.9468859 0 0 1 0.612014,0.0839 c 2.185765,0.52491 3.766114,1.28748 4.694858,2.26446 a 6.2306665,3.8199418 0 0 1 0.841313,1.69404 7.804417,4.7847882 0 0 1 -0.06598,0.98103 c -0.155066,0.64121 -1.098656,1.44929 -2.804378,2.40403 -2.766435,-0.52693 -4.844974,-1.36333 -6.179528,-2.48595 a 8.1508401,4.9971757 0 0 1 -1.30486,-1.5484 5.4437912,3.3375187 0 0 1 -0.174861,-0.64829 6.5787392,4.0333408 0 0 1 0.112175,-1.0225 3.4757782,2.1309551 0 0 1 0.645007,-0.8718 z m 28.980765,2.34638 0.626861,0.0212 -2.250101,2.52842 -0.321678,-0.0718 a 2.9693407,1.8204647 0 0 0 -0.659854,-0.0961 c -1.083809,-0.0809 -2.512392,0.13451 -4.244507,0.6402 a 27.616518,16.931333 0 0 0 -3.1541,1.10543 l -0.948539,0.38027 0.354671,-0.66042 c 0.483343,-0.90113 0.262292,-1.96105 -0.659854,-3.15042 -0.607065,-0.7828 -1.524261,-1.63639 -2.726844,-2.53651 A 7.674096,4.70489 0 0 1 80.0733,287.29805 9.2379487,5.6636681 0 0 1 79.301272,285.7193 c -0.437153,-1.67685 0.552627,-3.04826 2.911603,-4.07278 a 2.11648,1.2975868 0 0 1 0.806671,-0.40455 3.5269169,2.1623076 0 0 1 1.745312,-0.16081 c 0.09568,0 0.191358,0.009 0.288686,0.0162 1.072262,0.0799 2.080188,0.37724 3.000684,0.88393 a 2.6592095,1.6303273 0 0 1 0.635109,0.5158 3.0749172,1.8851924 0 0 1 0.277139,0.83438 c 0,0.27813 -0.176511,0.84449 -1.638087,2.52842 l -0.06269,0.0637 -0.05444,0.0516 -0.05609,0.0455 -0.702744,-0.22048 c 0.310131,-0.64323 0.311781,-1.17015 0,-1.56661 -0.280438,-0.36106 -0.81162,-0.62502 -1.628189,-0.80909 a 3.7265225,2.2846832 0 0 0 -0.824817,-0.12036 4.5909306,2.8146408 0 0 0 -1.969662,0.13957 l -0.140219,0.0233 c 0.04784,0.44095 0.31673,0.98203 0.805021,1.61212 0.176511,0.22654 0.381066,0.46624 0.612014,0.70796 1.766758,1.86193 2.744991,2.92184 2.990786,3.23638 l 0.02309,0.0303 a 6.971352,4.2740467 0 0 1 0.49489,2.16534 15.054557,9.2297562 0 0 1 2.129677,-0.79999 11.712399,7.180722 0 0 1 5.712682,-0.64222 z m 15.077648,-7.81991 a 7.3392203,4.499582 0 0 0 -0.30023,-1.29759 c -0.4718,-0.94158 -1.40549,-1.83765 -2.77468,-2.66293 a 16.84276,10.326081 0 0 0 -1.85254,-0.95777 c -1.26527,-0.57951 -2.47445,-0.93349 -3.616,-1.05081 q -0.16496,-0.0172 -0.33982,-0.0293 a 7.2814832,4.4641841 0 0 0 -2.700454,0.10114 c -1.346101,0.21845 -2.768085,0.7565 -4.221413,1.59998 -1.39559,0.8091 -2.259998,1.29354 -2.571779,1.4412 a 7.853906,4.8151292 0 0 1 -2.266596,0.79595 c -0.9007,0.18913 -1.115153,0.19317 -1.154744,0.19216 l 0.04289,0.006 -0.04619,0.0829 -0.229299,0.37421 0.02474,0.005 a 8.7529564,5.3663255 0 0 0 1.878933,0.28116 5.8529004,3.5883383 0 0 0 3.122757,-0.26296 15.94371,9.7748843 0 0 0 2.423312,-0.79089 5.0610762,3.102881 0 0 0 0.227649,0.92439 6.2801555,3.8502829 0 0 0 0.932043,1.15296 8.0947526,4.9627892 0 0 0 0.903999,0.6584 5.8677471,3.5974406 0 0 0 0.638409,0.33578 l 4.470503,2.15523 c 0.15177,0.0759 0.28868,0.1517 0.41076,0.22553 a 3.7545663,2.3018765 0 0 1 0.419,0.29532 c -0.8776,0.92035 -1.29991,1.82047 -1.25537,2.6862 l 0.0412,0.80909 0.69285,-0.68672 a 15.211272,9.3258363 0 0 1 2.06699,-1.63437 11.862516,7.2727566 0 0 1 2.28804,-1.11958 c 0.82482,-0.30342 1.52756,-0.49052 2.10328,-0.55626 l 0.13527,-0.0202 0.0874,-0.0556 c 0.11383,-0.0718 0.16497,-0.10114 0.23755,-0.90214 l 0.0363,-0.30341 c 0,-0.0668 0,-0.14463 0.0148,-0.23869 0.0181,-0.1871 0.0264,-0.29127 0.0247,-0.29127 v 0 c 0.0825,-0.55019 0.11053,-0.97294 0.10723,-1.26219 z m -4.97199,1.98734 a 5.3959518,3.308189 0 0 0 -1.38734,-1.41592 l -0.13033,-0.0789 c -0.23259,-0.14058 -0.51303,-0.2933 -0.82481,-0.45208 l -0.97494,-0.49153 -2.255045,-1.14386 q -0.252394,-0.14058 -0.49489,-0.28217 c -0.735737,-0.44298 -1.235576,-0.86978 -1.48467,-1.27129 l 0.476744,-0.22857 a 2.1956625,1.3461325 0 0 1 0.824817,-0.26093 3.350406,2.054091 0 0 1 0.979882,-0.0931 c 0.09073,0 0.18146,0.006 0.273839,0.0131 a 4.8829158,2.9936531 0 0 1 1.737063,0.37623 c 0.28704,0.0961 0.61696,0.22048 0.97658,0.36915 l 0.47015,0.20227 0.46355,0.20227 a 22.255208,13.644383 0 0 1 2.85386,1.41592 9.6305615,5.904374 0 0 1 1.11351,0.78584 c 0.36127,0.30846 0.52953,0.75852 0.49489,1.33905 a 11.468253,7.0310394 0 0 0 -3.00399,1.25612 q -0.0429,-0.10923 -0.10887,-0.24172 z M 85.528639,259.23458 h 0.0082 c 0,0 0.0099,0.005 -0.0082,0 z"
       id="path5088"
       inkscape:connector-curvature="0"
       style="fill:#231f20;stroke-width:0.12916613" />
    <path
       style="fill:#ffffff;stroke-width:0.12916613"
       inkscape:connector-curvature="0"
       class="cls-4"
       d="m 10.821172,226.65076 c 0,0 2.792829,-2.51932 -1.8145975,-4.82726 -4.6074269,-2.30795 -4.2494564,-4.2073 -4.2494564,-4.2073 0,0 -2.3886696,2.61843 0.2507443,4.52082 2.6394139,1.90239 6.1580826,2.70238 5.8133096,4.51374 z"
       id="path5090" />
    <path
       class="cls-1"
       d="m 102.08271,270.97455 a 0.57572216,0.35296789 0 0 0 -0.0759,-0.48242 c -0.94854,-0.50569 -3.28937,-1.78507 -3.983865,-2.11275 -0.244146,-0.1153 -0.884204,0.23868 -1.17454,0.30341 h -0.0082 l -9.892853,-5.55343 c 0,0 0.513036,-0.5603 0.18146,-0.92237 -0.27054,-0.29532 -3.1541,-1.80833 -4.209866,-2.3575 a 0.37776612,0.23160357 0 0 0 -0.590568,0.0839 l -0.237548,0.26599 -10.280517,-6.63964 c 0,0 -1.273517,6.23206 -12.233683,8.48741 l 14.909389,4.78479 -0.513036,0.29735 a 0.55592656,0.34083145 0 0 0 0.06763,0.52894 l 3.833749,1.22376 a 1.3741449,0.84247063 0 0 0 1.448378,0.0394 l 0.790174,-0.40455 c 0,0 8.908022,3.3709 11.21751,4.31349 l -0.329927,0.22756 a 0.75223297,0.4611844 0 0 0 0.244146,0.60076 l 3.564858,1.29859 c 0.40746,0.16688 1.370846,0.34286 1.591897,0.26701 0.08413,-0.0283 0.22435,-0.0627 0.389313,-0.11328 0.682948,-0.21137 1.459926,-0.31959 2.551983,-0.33678 v 0 a 2.0818377,1.2763481 0 0 0 1.905326,-0.43489 l 2.73344,-1.97116 -2.21546,-1.14689 z"
       id="path5092"
       inkscape:connector-curvature="0"
       style="fill:#231f20;stroke-width:0.12916613" />
    <path
       class="cls-1"
       d="m 56.97348,244.41599 q -0.07588,0.10114 -0.143519,0.21239 c -2.222056,3.47102 -7.588315,4.44497 -7.773074,9.19638 a 13.721653,8.4125698 0 0 0 4.887865,6.68313 l 0.206204,0.10114 c 3.01883,1.47559 7.047235,1.90339 10.742415,1.22072 4.325339,-0.79999 11.519392,-3.26571 7.708738,-10.675 -0.05609,-0.11024 -0.112175,-0.22149 -0.164963,-0.33274 -0.254044,-0.55524 -1.649634,-3.12615 -7.535527,-8.10006 -4.305544,-3.64093 -4.110887,-6.94507 -2.9248,-10.55971 0,0 -3.868391,2.28165 -4.018508,6.86821 -0.128672,3.91906 -0.793474,5.11955 -0.984831,5.38554 z m 7.896796,15.3182 c -1.026072,0.50569 -1.859137,0.67155 -2.941297,0.82326 -4.482055,0.62806 -8.19538,-1.09633 -9.825218,-3.56407 -2.352378,-3.56103 3.752917,-7.98982 3.752917,-7.98982 0,0 -0.377767,1.36839 0.839663,2.55776 0,0 -0.02969,-1.16611 2.258349,-3.72285 2.288042,-2.55674 1.649633,-4.31754 1.301561,-4.93751 0,0 4.632171,2.93297 3.1508,7.01385 0,0 -1.181138,2.55977 -0.549328,3.99491 a 6.3411919,3.8877036 0 0 1 1.451678,-2.7307 c 0,0 -0.45035,0.84652 0.98978,2.49808 1.44013,1.65157 3.10626,4.30136 -0.430555,6.05709 z"
       id="path5094"
       inkscape:connector-curvature="0"
       style="fill:#231f20;stroke-width:0.12916613" />
    <path
       class="cls-1"
       d="m 51.782082,239.4613 c 0,0 -0.851211,1.64246 1.629838,2.96836 2.481049,1.32591 1.994408,2.06623 1.994408,2.06623 0,0 1.403838,-1.42299 0,-2.50314 -1.403839,-1.08014 -2.680655,-1.33703 -3.624246,-2.53145 z"
       id="path5096"
       inkscape:connector-curvature="0"
       style="fill:#231f20;stroke-width:0.12916613" />
    <path
       class="cls-1"
       d="m 63.962978,240.15105 c 0,0 -1.154744,-1.57167 1.060714,-3.06445 2.215458,-1.49278 1.593546,-2.19265 1.593546,-2.19265 0,0 1.661181,1.31478 0.468496,2.48696 -1.192685,1.17218 -2.408465,1.51705 -3.122756,2.77014 z"
       id="path5098"
       inkscape:connector-curvature="0"
       style="fill:#231f20;stroke-width:0.12916613" />
    <path
       class="cls-1"
       d="m 53.880416,231.44114 c 0,0 -1.291663,1.53121 0.786876,3.09479 2.078538,1.56357 1.397239,2.24321 1.397239,2.24321 0,0 1.776656,-1.25713 0.687898,-2.46774 -1.088759,-1.21061 -2.271546,-1.59897 -2.872013,-2.87026 z"
       id="path5100"
       inkscape:connector-curvature="0"
       style="fill:#231f20;stroke-width:0.12916613" />
  </g>
</svg>
