<svg id="Layer_1_copy_54" data-name="Layer 1 copy 54" xmlns="http://www.w3.org/2000/svg" viewBox="0 0 1661.44 1630.1"><defs><style>.cls-1,.cls-2{fill:#231f20;}.cls-2,.cls-3{fill-rule:evenodd;}.cls-3,.cls-4{fill:#fff;}</style></defs><title>Dungeons-of-Old-2-Black-Alt-Flame</title><path class="cls-1" d="M-1291.64-188.73" transform="translate(760.54 639.24)"/><path class="cls-2" d="M818.08,729.74c2.12,1,4-.79,6-1.5.13,2.24,2.25,1.13,3.82,3.26a4,4,0,0,1-1.32,2.65c1.24.65,2.32-.72,3.66,1.23C825.75,736.27,820.51,735.06,818.08,729.74Z" transform="translate(760.54 639.24)"/><path class="cls-2" d="M819.35,663.36c-.49-1.21-1-2.42.63-3.8C821.61,660.8,820.74,663.26,819.35,663.36Z" transform="translate(760.54 639.24)"/><path class="cls-2" d="M824.64,659.19c-1.93-2.5.19-5.33-3-7.73,3.86-1.47,2.52,5.49,5.61,5.64C826.46,658.49,825.43,657.42,824.64,659.19Z" transform="translate(760.54 639.24)"/><path class="cls-2" d="M831.56,652.08l2,1.71A1.41,1.41,0,1,1,831.56,652.08Z" transform="translate(760.54 639.24)"/><path class="cls-2" d="M836.14,650.78c-1.35-2.27-3.32-1.58-1.73-4.08C835.45,648,837.46,649.27,836.14,650.78Z" transform="translate(760.54 639.24)"/><path class="cls-2" d="M794.75,607.72c1-1.44,2-2,3.22-.72a3.1,3.1,0,0,1-.78,1.94A3.71,3.71,0,0,1,794.75,607.72Z" transform="translate(760.54 639.24)"/><path class="cls-2" d="M833.16,637c1.29-1.39,2.66-1.85,4.23.13C836,637.86,834.67,638.24,833.16,637Z" transform="translate(760.54 639.24)"/><path class="cls-2" d="M810.52,611.61c-2.91-1.6.09-5.13,2.14-2.51Z" transform="translate(760.54 639.24)"/><path class="cls-2" d="M841.54,636.29c1.59-1.56,3-4.93,4.94-2.74-.65,1-2.65,2.09-.71,2.87C844.39,636.73,843,637.51,841.54,636.29Z" transform="translate(760.54 639.24)"/><path class="cls-2" d="M850.22,639.34c-.86-1.89,2.29-1.9,3.07-2.59l3,2.57C854.35,640.32,852.06,637,850.22,639.34Z" transform="translate(760.54 639.24)"/><path class="cls-2" d="M807.9,596.36c-3.25-3,3.44-8.71,6.14-5.18C812.14,594.78,809.82,593.09,807.9,596.36Z" transform="translate(760.54 639.24)"/><path class="cls-2" d="M869,645.8c-1-2-1.59-1.54-3.52-3C866.52,642,872,644.18,869,645.8Z" transform="translate(760.54 639.24)"/><path class="cls-2" d="M856.86,634.59l-2.51-2.14a3.12,3.12,0,0,0,1.79-1.08C857.57,632.35,858.14,633.4,856.86,634.59Z" transform="translate(760.54 639.24)"/><path class="cls-2" d="M811.45,588.12l-1.51-1.29c.69-1.23,1.48-1,2.22-1.58a1.48,1.48,0,1,1-.71,2.87Z" transform="translate(760.54 639.24)"/><path class="cls-2" d="M826.16,596.3c-1.09-1.91-1.45-1-2.08-2.65,1.09-.1,2.08-1.29,3.07-2.59C829.66,592.59,827.73,594.46,826.16,596.3Z" transform="translate(760.54 639.24)"/><path class="cls-2" d="M821.06,591.09c-1.29-.83.68-1.93-.22-2.79,1.23-.19,2.54.52,3.87,1.56C823.44,589.61,822.26,590.5,821.06,591.09Z" transform="translate(760.54 639.24)"/><path class="cls-2" d="M790.15,556.1c-.83-1.58,2.29-1.88,3.22-.73C792.49,558,791.18,555.3,790.15,556.1Z" transform="translate(760.54 639.24)"/><path class="cls-2" d="M824.69,583.78c.11-1.3-.62-3.27,1.14-3.37a3.12,3.12,0,0,0,1.08,1.79C826.22,583.42,825.42,583.23,824.69,583.78Z" transform="translate(760.54 639.24)"/><path class="cls-2" d="M806.7,558.05c-2.27-1.64,1.74-3.5,2.72-1.16C808.65,559,807.46,555.89,806.7,558.05Z" transform="translate(760.54 639.24)"/><path class="cls-2" d="M821.07,550.34c-1.42-1.84,1-1.8,2.14-2.51a3.11,3.11,0,0,0,1.08,1.79C823.21,549.86,822.09,549.44,821.07,550.34Z" transform="translate(760.54 639.24)"/><path class="cls-2" d="M851.34,565.71c.7-1,1.52-.54,2.22-1.58,1.33,2.35-.54,2.84,2.59,3.07C854.35,569.29,852.26,567.8,851.34,565.71Z" transform="translate(760.54 639.24)"/><path class="cls-2" d="M836.84,554.23c-.44-.59.51-1.29-.15-1.86,1.46-1.31,3.29,2.05,4.58-1.3.85.83,1.58.29,2.44,1.21-1.13,1.5-2.53-.47-3.57,2.16C838.94,553.17,837.81,552.78,836.84,554.23Z" transform="translate(760.54 639.24)"/><path class="cls-2" d="M842.65,556.57c.55-.93,1.21-.46,1.79-1.08.11-.79-.71-1.51.28-2.36,1.14,1.47,2.37,2.93.37,4.65C844.24,557,843.5,557.5,842.65,556.57Z" transform="translate(760.54 639.24)"/><path class="cls-2" d="M831.72,542.93l-2-1.71c1-1.45,2.15-.4,3.29.21Z" transform="translate(760.54 639.24)"/><path class="cls-2" d="M797,489c-.23-.76.47-1.6-.65-2.29,1.1-1.8,2.42-1,3.5-3.09.63,2.22,2.09,2.59,2.66,4l-1.71,2C799.86,488.16,798.62,486.72,797,489Z" transform="translate(760.54 639.24)"/><path class="cls-2" d="M797,483.88c-2.37-3.27,2.21-2.37,2.42-4.88C801.67,480.39,797.67,482.27,797,483.88Z" transform="translate(760.54 639.24)"/><path class="cls-2" d="M805.16,480.42c-.55-.73.66-1.61,1.21-2.44.16,1.75,1.22,1.13,2.51,2.14C807.75,481.46,806.39,480.21,805.16,480.42Z" transform="translate(760.54 639.24)"/><path class="cls-2" d="M851.35,501.54" transform="translate(760.54 639.24)"/><path class="cls-3" d="M900.9,541.13c-1.78.18-2-1.41-3-2.57" transform="translate(760.54 639.24)"/><path class="cls-2" d="M849.73,487.15c-.38-1.07.65-2.24,1.13-3.37A3.71,3.71,0,0,1,853.3,485C852,484.75,850.83,485.28,849.73,487.15Z" transform="translate(760.54 639.24)"/><path class="cls-2" d="M832.14,472.17c-1-.71-.54-1.52-1.58-2.22C832.88,468.16,834.77,469.5,832.14,472.17Z" transform="translate(760.54 639.24)"/><path class="cls-2" d="M790.32,429.62" transform="translate(760.54 639.24)"/><path class="cls-2" d="M853.49,452.19" transform="translate(760.54 639.24)"/><path class="cls-2" d="M867.32,455.3c-.56-3.78-3.38-3.92-5.18-6.14,2.65-1.19,3.72.58,5.36-3.24a3.48,3.48,0,0,1-1.49,4.8l3,2.57Z" transform="translate(760.54 639.24)"/><path class="cls-2" d="M870.69,456.43c-.58.52-1.28-.36-1.94-.78a4.27,4.27,0,0,1,2.65-2.08C873.07,454.37,869,455.63,870.69,456.43Z" transform="translate(760.54 639.24)"/><path class="cls-2" d="M873,449.69a1.41,1.41,0,1,1,1.71-2C873.46,449,874.64,449.41,873,449.69Z" transform="translate(760.54 639.24)"/><path class="cls-2" d="M894.76,435.3c2-1.29,1.07-1.69,3.15-1.66C898.71,435,895.7,436.72,894.76,435.3Z" transform="translate(760.54 639.24)"/><path class="cls-2" d="M805.7,335.17c-1.43-1-2.66-2-.72-3.22C805.76,333,807,334,805.7,335.17Z" transform="translate(760.54 639.24)"/><path class="cls-2" d="M815.46,340c-2.2-1.46,2.23-2.16,3-3.52.8,1.19.73,2.44,1.23,3.65C818.38,341.43,816.69,337.91,815.46,340Z" transform="translate(760.54 639.24)"/><path class="cls-2" d="M826.42,634.69c1,2.39,1.52.72,3.44,2.07C829.11,638.24,824.48,636.38,826.42,634.69Z" transform="translate(760.54 639.24)"/><path class="cls-2" d="M825.49,587.93c-2-.94.72-2.25-.73-3.22,1.47.09,2.18,2.95,4.15-.8,1.45,1,.4,2.15-.2,3.29C827.6,587,826.42,585.94,825.49,587.93Z" transform="translate(760.54 639.24)"/><path class="cls-2" d="M840.7,596.55c2.19-.22,2.27.61,3.95,2.49-.94,1.87-2.2-.21-3.15,1.66a7.48,7.48,0,0,1-.95-6C841.56,595.23,841.16,595.88,840.7,596.55Z" transform="translate(760.54 639.24)"/><path class="cls-2" d="M860.76,554.66" transform="translate(760.54 639.24)"/><path class="cls-2" d="M828.47,514.15a2,2,0,0,0,.15,1.86c-.74.55-1.62-.66-2.44-1.21.77-2.07,1.83-.55,2.72-1.16C829.39,514.23,828.75,514.39,828.47,514.15Z" transform="translate(760.54 639.24)"/><path class="cls-2" d="M830.34,514" transform="translate(760.54 639.24)"/><path class="cls-2" d="M838.34,508.67c1.72-1.65,2.92-.69,3.5-3.09" transform="translate(760.54 639.24)"/><path class="cls-2" d="M839.08,494.56c-1.54,2.26-3.42.21-5.16-.05,1-.86,1.24-1.66.28-2.36C836.24,493.23,835.9,494.61,839.08,494.56Z" transform="translate(760.54 639.24)"/><path class="cls-2" d="M845.47,498.27c-1.09.39-.64-.78-2.44-1.21-1.22,1,2.53,1.67.22,2.79-2.24.19-.29-2.35-3.09-3.5C841.82,496,845,495.74,845.47,498.27Z" transform="translate(760.54 639.24)"/><path class="cls-2" d="M895.94,537.78" transform="translate(760.54 639.24)"/><path class="cls-2" d="M800.48,451.29a3.11,3.11,0,0,1-.78,1.94c-.76-1-3.61-1.9-1.66-3.15.32.44.07.93.58,1.36,1.32.85,2.33-2.13,3.72-.3C801.8,452.15,801.15,451.75,800.48,451.29Z" transform="translate(760.54 639.24)"/><path class="cls-2" d="M841.7,486.39c-1.14,1.18-1.83-1.3-2-1.71,3.2.72.75-4,4.08-1.73C842.35,483.9,841.52,484.59,841.7,486.39Z" transform="translate(760.54 639.24)"/><path class="cls-2" d="M796.29,439.91c-2.07-.54-3.74,4-6,.95.64-1,2.65-2.09.71-2.87C792.45,438.88,793.92,440.18,796.29,439.91Z" transform="translate(760.54 639.24)"/><path class="cls-2" d="M857.86,454.18a1.56,1.56,0,0,1,.71-2.87c-2.82-2-2.88,3.85-5,1.81" transform="translate(760.54 639.24)"/><path class="cls-2" d="M823.83,608.2c-2.61-1.82-.68-4-1-6,2.53-1.59,3,2.13,4,3.42C825.91,606.91,824.92,608.1,823.83,608.2Z" transform="translate(760.54 639.24)"/><path class="cls-2" d="M881.43,543.63" transform="translate(760.54 639.24)"/><path class="cls-2" d="M888.22,540.75c-1.43,1.62-3.07.7-4.43,3.16" transform="translate(760.54 639.24)"/><path class="cls-2" d="M792.75,822.08c-2.3-2.12,2.86-2,.22-3.58,1.15-.42,2.43.71,3.67,1.24C795.43,821.67,794,821.21,792.75,822.08Z" transform="translate(760.54 639.24)"/><path class="cls-2" d="M810.15,836l-1.64-1.4a4.67,4.67,0,0,1,2.87-2.26C812.51,833.39,811.38,834.67,810.15,836Z" transform="translate(760.54 639.24)"/><path class="cls-2" d="M810.21,830.35c-.26-1.73,1.17-4.56,3.34-2.81C813.73,829.15,811.55,829.51,810.21,830.35Z" transform="translate(760.54 639.24)"/><path class="cls-2" d="M823.06,767.31,821.55,766l1.71-2C824.72,765,824.33,766.11,823.06,767.31Z" transform="translate(760.54 639.24)"/><path class="cls-2" d="M844.66,756.21c-1.32-1.19-1.44-3.21.21-3.29C846.32,753.89,845.27,755.07,844.66,756.21Z" transform="translate(760.54 639.24)"/><path class="cls-2" d="M848,757.34c-.74.55-1.61-.65-2.44-1.21,2.55.14.46-.13,1.71-2,.19.69.38,1.37,1,.86C848.93,755.71,847.2,756.63,848,757.34Z" transform="translate(760.54 639.24)"/><path class="cls-2" d="M844.79,752l-3-2.57c1.49-.87,3-1.18,4.73.56Z" transform="translate(760.54 639.24)"/><path class="cls-2" d="M839.66,717.26c-1.52,0-1.27,3.4-3.65,1.23,1-2.45,3-2.08,1.06-4.3C837.69,712.06,838.08,716.51,839.66,717.26Z" transform="translate(760.54 639.24)"/><path class="cls-1" d="M255.37,521c-1.18,10.48.1,19.68,3.8,27.36l3.47,7.2,1.09-7.91a92.3,92.3,0,0,1,4.91-19.85,72,72,0,0,1,8.2-15.73c3.33-4.75,6.5-8.17,9.43-10.19l.65-.51.27-.71c.35-.93.5-1.32-2.28-8.76l-1-2.8c-.27-.6-.56-1.32-.87-2.2-.65-1.73-1-2.7-1-2.7h0c-1.78-5.1-3.28-9-4.47-11.63a44.37,44.37,0,0,0-6.86-11c-6.38-7.36-15.14-13.17-26-17.27a102.08,102.08,0,0,0-14.1-4.11,57.87,57.87,0,0,0-19.69-1.48,36.32,36.32,0,0,0-4.56.85,44.52,44.52,0,0,0-16.56,8.14c-6.6,5.28-12.32,13.64-17,24.83-4.51,10.77-7.36,17.27-8.49,19.34a47.43,47.43,0,0,1-9.39,12.75c-4.23,3.92-5.41,4.49-5.61,4.56l.27-.05.08.87.23,3.94H150q1.49-.11,2.92-.28c10.56-1.29,18.93-5.27,24.88-11.83A96.52,96.52,0,0,0,188,488.64a30.79,30.79,0,0,0,5,7.8,38.05,38.05,0,0,0,9.79,8.14,48.92,48.92,0,0,0,7.64,3.73,34.93,34.93,0,0,0,4.89,1.47l33.41,8.51q1.69.47,3.18,1A22.73,22.73,0,0,1,255.37,521Zm-18.2-30.06-7.37-2.05L212.72,484c-1.3-.43-2.58-.88-3.82-1.35-5.85-2.2-10.34-4.83-13.36-7.83l1.72-3.23a13.39,13.39,0,0,1,3.5-4.38,20.33,20.33,0,0,1,5.06-3.24,21.46,21.46,0,0,1,5.47-1.36,35,35,0,0,1,7.24-.05c2,.16,4.3.48,6.89.94l3.41.66,3.39.73a135.25,135.25,0,0,1,21.48,5.77A58.19,58.19,0,0,1,263,475c3.23,1.9,6,5.56,8.15,10.87a69.57,69.57,0,0,0-11.62,18.74q-.71-.9-1.57-2a32.8,32.8,0,0,0-13.35-9.37l-1-.38C241.75,492.25,239.59,491.56,237.17,490.9Zm-13.92-96.54c-1.39-4.11-.72-8.57,2-13.25a18.55,18.55,0,0,1,1.87-2.65,13.7,13.7,0,0,1,6.2-4.26,142,142,0,0,1,17.92-4.32l2.35-.46,1.68,8.38a67.34,67.34,0,0,0,5.25,14.64c3.23,7,6.65,12.41,10.19,16.19a63.3,63.3,0,0,0,5.14,4.91,48.6,48.6,0,0,0,14,8.44A41.4,41.4,0,0,0,310,424.48c.85-.1,1.71-.23,2.58-.39L314,403l-48-40.82a9.73,9.73,0,0,0-6.7-2.48,13.22,13.22,0,0,0-1.51.09,7.3,7.3,0,0,0-1.66.38l-3.49,1.31L254,341.38l1.19-1.35.69-.13,1.17-.41a19.38,19.38,0,0,1,2-.53c.79-.15,1.52-.28,2.24-.38a17.32,17.32,0,0,1,6.2.41,15.31,15.31,0,0,1,6.47,3.3l59.22,50.27a9.53,9.53,0,0,0,7.61,2.54,11.73,11.73,0,0,0,2.34-.55l3.42-1.16-1.4,21.26-1.74.15-.17,0q-1.52.34-3,.52a21.91,21.91,0,0,1-16.36-4.21c-1.9,36.33-2,36.35-3.63,37.05a54.23,54.23,0,0,1-10.76,2.48,51.13,51.13,0,0,1-7.39.36c-8.89-.17-18-3.35-27-9.46a51.48,51.48,0,0,1-4.11-3.14c-8.29-7.05-14.42-17.2-18.23-30.16l-.63-2.36-.58-2.57c-.47-2-.9-3.67-1.25-4.82a14.1,14.1,0,0,0-3.84-6.44l-.65-.55a3.83,3.83,0,0,0-2.75-.51l-.53.08a5.4,5.4,0,0,0-3.17,1.67l-.17.2a4.66,4.66,0,0,0-1.14,3.92,3.37,3.37,0,0,0,1.15,2,5.77,5.77,0,0,0,1.69,1l3.25,1.24-2.93,3.32-1,.16-.42,0-.27,0a13.32,13.32,0,0,1-1.81,0,17.09,17.09,0,0,1-2.3-.22,12.59,12.59,0,0,1-2.78-.74,19.81,19.81,0,0,1-5.14-3.1A14,14,0,0,1,223.24,394.36Zm74.46-75.45a15.2,15.2,0,0,1-2.06-7.56,14.07,14.07,0,0,1,1.8-7.34,19.32,19.32,0,0,1,7.26-7.06,29.9,29.9,0,0,1,11-3.9,18.75,18.75,0,0,1,15.15,4.82l61.53,40.36-29.72-50a10.13,10.13,0,0,0-5.59-4.54,7.74,7.74,0,0,0-2.94-.5l-3.89.29,8.25-20,1.75.42.51-.08,2.85.15.15,0,2.17.43a15.7,15.7,0,0,1,5.7,2.34,15.22,15.22,0,0,1,5,5.2l40.47,68.28a9.53,9.53,0,0,0,5.58,4.46,9.24,9.24,0,0,0,3.18.6l3.75-.11-8.13,19.28-1.68.12-.17.09a20.4,20.4,0,0,1-5.27,1.36,27.4,27.4,0,0,1-11.14-1.16,78.08,78.08,0,0,1-14.36-6.65c-8.39-4.87-21.57-13.42-39.26-25.47L370,367.18a9.58,9.58,0,0,0,8.76,5.1h3.61l-8.2,19.64-1.68-.41h-.19c-8.11-.83-14.17-4.53-18-11l-36.67-61.88c-1.89-3.19-3.92-5.21-6-6a6.06,6.06,0,0,0-3.11-.46,7.37,7.37,0,0,0-6.29,6.23l-1.33,5.85Zm187.19,28.75c-.49.06-1.06.12-7.35-1.06-4.29-.74-7-1.26-8.21-1.59-20.22-5.72-34.4-16.18-42.18-31.09a52.44,52.44,0,0,1-5.2-14.68c-.22-1.2-.39-2.44-.49-3.68a48.8,48.8,0,0,1,2.47-19.19c1.88-6,5.58-12.79,11-20.2a131.27,131.27,0,0,1,11.52-12.42c6-5.9,10.52-9.24,13.9-10.18a12.4,12.4,0,0,1,1.54-.37c.36-.07.74-.13,1.12-.17a24,24,0,0,1,9.08.78c1.57.38,5.18,1.63,11,3.8,4.2,1.58,6.54,1.73,7.77,1.58l.29,0a2.89,2.89,0,0,0,1.32-.55l3.44-2.74,1.05,9.95c.16,10.42-4.57,13.43-8.56,14.16l-.73.11a17.37,17.37,0,0,1-5.15-.23,63.44,63.44,0,0,1-8.68-3.08,33.59,33.59,0,0,0-8.83-2.61,25,25,0,0,0-5.06.1c-.5.06-1,.14-1.49.23a31.16,31.16,0,0,0-10.37,4.06,19,19,0,0,0-6.63,6.58,21.66,21.66,0,0,0-2.88,9.09,41.08,41.08,0,0,0,.49,10.28,35,35,0,0,0,1.82,6.44,51.25,51.25,0,0,0,9.64,14.48c9.33,10.27,22.81,17.16,40.1,20.49L497,319l-2-10.73s-.19-.87-2.71-2.58c-2.25-1.53-5.22-3.42-8.82-5.63l-2.49-1.52,16-17.48,8.31,5.2c4,2.76,5.8,4.75,6.16,6.72l4.05,22.26L485.85,347.5Zm75.43-98.75-5.07-1.44c-3.81-1.2-8.61-4-14.76-8.6-6.3-4.69-10.78-11.94-13.33-21.54l4.65-1.27a1.26,1.26,0,0,0-.14-.33c.12.17.94,1.2,5.7,4.45a47.53,47.53,0,0,0,14.53,6.29c2.28.64,9.25,2,20.75,3.94,12.06,2.08,20.63,4.86,26.22,8.52,5.84,3.82,10.19,11.71,13.3,24.11L608,265.19c-2.17-2.57-9.59-6.72-32.5-12.08-2.26,3.62-3.83,8.6-4.67,14.83q-.27,2-.46,4l-.45,9.2,1.61.55a52,52,0,0,0,9.59,2.79,10.08,10.08,0,0,0,1.23.1,8.17,8.17,0,0,0,.91-.06,4.15,4.15,0,0,0,3.26-1.92,5.05,5.05,0,0,0,.92-2.11l.9-6.64,3.53,5.7c2.26,3.64,3.19,7.08,2.77,10.21a11.52,11.52,0,0,1-3.57,6.74,15.32,15.32,0,0,1-8.84,4.36,16.05,16.05,0,0,1-4.08,0,22.19,22.19,0,0,1-3.36-.74c-2.34-.69-4.23-1.27-5.68-1.72-.16,2.46-.51,5.72-1,9.69l-.4,2.94a18.63,18.63,0,0,1-4.68,9.24c1.11.1,2.22.22,3.35.37C576.68,322,588,325.86,600,332l3.73,1.91-3.53,2.27c-19.19,12.34-19.77,12.41-20.58,12.51l-.31,0-.77-.1-.39-.21a103.36,103.36,0,0,0-35.74-11.25,149.28,149.28,0,0,0-22.8-1.23l-7.09.14,5.54-4.43c6.65-5.32,15.39-9.14,26-11.37a17.14,17.14,0,0,0,.76-3.17,18.05,18.05,0,0,0,.16-2.3l.81-34.57a35,35,0,0,1,.33-5.09,48.93,48.93,0,0,1,1.93-8.29,38,38,0,0,1,5.73-11.35A30.81,30.81,0,0,1,560.33,248.91Zm71.3,115c.77,1,2.68,3.23,5.66,6.53,4.43,5,4.85,5.23,5.34,5.49l.73.38.81-.14c31.82-5.61,52.48-13,63.11-22.71A43.07,43.07,0,0,0,717,341.16l.46-.87a50.21,50.21,0,0,0,4.82-15.78c1.35-10.14-.84-20.51-6.5-30.83a56.9,56.9,0,0,0-15-17.91,85.36,85.36,0,0,0-9.85-6.88,8.67,8.67,0,0,0-1.64-.69c-1.21-.3-3.76-.44-13.71.77a127.15,127.15,0,0,0-15.84,2.65c-9.09,2.46-16.38,5.52-21.65,9.1a50.62,50.62,0,0,0-14,13.62c-.67,1-1.3,2.07-1.9,3.2a53.54,53.54,0,0,0-5.08,15.1,56.1,56.1,0,0,0,2,27.07A81.31,81.31,0,0,0,631.63,363.95ZM643,302.07a32.65,32.65,0,0,1,2.47-6,39.8,39.8,0,0,1,5.89-8.24,21.06,21.06,0,0,1,7.88-5.3,19.08,19.08,0,0,1,4.49-1.13,17.86,17.86,0,0,1,4.74.06A31.66,31.66,0,0,1,679,284.71c.87.46,1.7,1,2.32,1.37a23.32,23.32,0,0,1,3.72,3.48c8.55,11.38,12.74,22.82,12.46,34a37.8,37.8,0,0,1-4.46,16.94,47.12,47.12,0,0,1-5.44,8c-4.12,4.9-13.19,8.7-27,11.29-11.54-13.25-17.91-26.9-19-40.59A49.42,49.42,0,0,1,643,302.07Zm106.9,20.55-6-.26,4.74-4.13a15.19,15.19,0,0,1,7.06-3.38c.41-.09.84-.16,1.26-.21a14,14,0,0,1,6.28.66,19.31,19.31,0,0,1,8.24,5.87c7.46,8.93,8.72,17.62,3.79,25.86L746.6,414.81l43.87-38.23a10.16,10.16,0,0,0,3.46-6.31,7.69,7.69,0,0,0,0-3l-1-3.78L814,368l-.07,1.8.18.5.36,2.82v.15c0,.62,0,1.36,0,2.23a15.7,15.7,0,0,1-1.28,6,15.33,15.33,0,0,1-4.2,5.87l-59.9,52.09a9.54,9.54,0,0,0-3.39,6.29,9.32,9.32,0,0,0,0,3.24l.78,3.67-20.39-4.52-.45-1.64-.12-.15c-2.79-4.35-3.85-9.77-3.15-16.11a79.29,79.29,0,0,1,4-15.33c3.29-9.15,9.33-23.65,18-43.21l-30.21,26.33a9.47,9.47,0,0,0-3.45,9.53l.64,3.55-20.84-4.55.14-1.76,0-.14c-.64-8.13,1.9-14.75,7.56-19.68l54.27-47.19c2.8-2.44,4.43-4.79,4.83-7a6.33,6.33,0,0,0-1.67-5.82A7.54,7.54,0,0,0,749.89,322.62ZM880.2,508.23l-4.49-1.06a58.09,58.09,0,0,1-13.5-5.32c-3.25-1.77-7.31-4.28-12.11-7.46a18.35,18.35,0,0,1-7.19-8.76,22,22,0,0,1-1.39-6.1,58.76,58.76,0,0,1,.69-13.23c.26-1.74.67-3.89,1.23-6.37l.41-2c-5.73,2.73-9.79,7.93-12.29,15.86a84.71,84.71,0,0,0-2.49,11.4l-.37,2.9-.5,3c-.34,2.45-.61,4.33-.8,5.56-.21,1.46-.6,4.08-1.19,7.85l-.8,4.72-.71,4.61c-2,12.53-2,12.53-3.34,13.07l-.54.22-.58,0c-.31,0-.9-.08-8.7-1.74-5.88-1.21-11.72-2.48-17.35-3.76-25.69-6-27.6-7.8-28.53-8.68a17.2,17.2,0,0,1-4.09-6.12,22.52,22.52,0,0,1-1.28-10.19,61,61,0,0,1,1.37-8.31l.93-3.94c.3-1.44.55-2.71.74-3.74a20.73,20.73,0,0,0-.95-11.36,12.72,12.72,0,0,0-7.49-7.52l.86-4.66c8.82,0,16.2,1.93,21.94,5.78A21.74,21.74,0,0,1,786.06,473a27.11,27.11,0,0,1,1.51,12.4,98.94,98.94,0,0,1-1.92,11.05l-1.15,5.19c-.33,1.88-.6,3.67-.8,5.29a3,3,0,0,0,.15,1.44c.61,1.56,3.3,2.66,7.56,3.1a26.87,26.87,0,0,0,5.9,0l.87-.12a13.6,13.6,0,0,0,1.77-.33q.69-4.48,1.58-9.8l1.68-10.3q2.25-13.72,3.44-21.1c1.47-9.07,4.53-16.12,9.08-21a24.46,24.46,0,0,1,8.84-5.82,34.8,34.8,0,0,1,7.07-1.91l1.59-.22a66.23,66.23,0,0,1,7.08-.44h4.21l4.37,0,1,.2,19.74,12.43-.1,1.44a107.51,107.51,0,0,1-2.12,13.33l-1.3,6.41c-.42,2.34-.75,4.47-1,6.3a17.17,17.17,0,0,0,1.18,8.24l.25.62a27.07,27.07,0,0,0,4.59,7.18c.78.86,1.66,1.76,2.6,2.67a21,21,0,0,0,2.21,2c2.17,1.88,2.33,2,2.58,2.66ZM636,624l.05,0S636.1,624,636,624Z" transform="translate(760.54 639.24)"/><path class="cls-2" d="M345.37,313.56c.23.76-.47,1.6.65,2.29-1,1.06-2.31-1.61-3.45-2.07C343.32,311.34,344.55,314.94,345.37,313.56Z" transform="translate(760.54 639.24)"/><path class="cls-2" d="M635.21,592.4c-1.52-1.91-1.35-4-1.88-5.94,1.64-1,3.44.05,5.23,1a2,2,0,0,0-.15-1.86c1-1.06,2.31,1.6,3.45,2.07C639.62,589.06,637.47,591.45,635.21,592.4Z" transform="translate(760.54 639.24)"/><path class="cls-2" d="M339.08,328.07c-.74-1.5-.15-3.11,1.49-4.8C341.4,324.76,340.18,326.42,339.08,328.07Z" transform="translate(760.54 639.24)"/><path class="cls-2" d="M480,654.55a9.83,9.83,0,0,1-3.42,4c-1.06-2.84-3.65-2-5.59.45C470.68,655.86,476.94,653.35,480,654.55Z" transform="translate(760.54 639.24)"/><path class="cls-2" d="M344.42,318.74c.39-1.75-.94-3.36,1-5.23A4.64,4.64,0,0,1,344.42,318.74Z" transform="translate(760.54 639.24)"/><path class="cls-2" d="M447.62,642.62c2,1.27-.71,5.34-2.57,3Z" transform="translate(760.54 639.24)"/><path class="cls-2" d="M467.81,660.67c-1.4.05-2.63,2.28-4.15.8C464.95,660,466.25,658.79,467.81,660.67Z" transform="translate(760.54 639.24)"/><path class="cls-2" d="M458,654.9c-.93,2-2.24-.72-3.22.73C453.91,653.9,457,652.92,458,654.9Z" transform="translate(760.54 639.24)"/><path class="cls-2" d="M453.75,654.77c-.27.51-.6.31-.93.08-.46,1,1.22,1.78-.71,2.87-1-.71-.53-1.52-1.58-2.21C452.13,655.38,451.48,652.89,453.75,654.77Z" transform="translate(760.54 639.24)"/><path class="cls-2" d="M423.31,631.45c-2.32,4.27-9,4.62-13,7.13C412.61,634.24,419.28,633.88,423.31,631.45Z" transform="translate(760.54 639.24)"/><path class="cls-2" d="M349.54,306.62c-2.24-1.11,1.34-3.43,2.07-3.45C351.72,304.78,350.4,304.43,349.54,306.62Z" transform="translate(760.54 639.24)"/><path class="cls-2" d="M532.3,459.66c-1.53-1.8,1.76-2.58,3.14-1.66-.83.85-.29,1.58-1.21,2.44C533.56,459.79,532.88,459.15,532.3,459.66Z" transform="translate(760.54 639.24)"/><path class="cls-2" d="M534.86,456.65l-1.51-1.28c.79-1.78,1.82-.7,2.65-2.09C538.08,454.93,536.23,455.7,534.86,456.65Z" transform="translate(760.54 639.24)"/><path class="cls-2" d="M375.71,317.64c.06,1.84,2.12,2.8,2.16,3.57C376.28,323.35,372.8,318.85,375.71,317.64Z" transform="translate(760.54 639.24)"/><path class="cls-2" d="M538.74,458.21c1.29-1.5,2.76-.6,4.08-1.73.52.58-.36,1.28-.78,1.94-.72,1,1.44,1.76,1.15,2.72C541.71,461,538.93,460,538.74,458.21Z" transform="translate(760.54 639.24)"/><path class="cls-2" d="M351,295.73c-1.38-1.3.87-2.88,2-4.37C355.09,293.86,353,294.85,351,295.73Z" transform="translate(760.54 639.24)"/><path class="cls-2" d="M469.06,395.41c1-1.45,2.1-1.06,3.3.2C471.38,397.06,470.26,396.67,469.06,395.41Z" transform="translate(760.54 639.24)"/><path class="cls-2" d="M334,276.95c2.37-1.6,5.19,2.37,7.67,2.2C339.78,282.52,334.85,279,334,276.95Z" transform="translate(760.54 639.24)"/><path class="cls-2" d="M353.42,290.85" transform="translate(760.54 639.24)"/><path class="cls-2" d="M344.54,589.52c1.07,3.43.19,4.1-1.27,7.6-.92-1.06,1.28-4.74-1.73-4.08-1.12-1.81,1.67-1.5,2.21-1.59A3.13,3.13,0,0,1,344.54,589.52Z" transform="translate(760.54 639.24)"/><path class="cls-2" d="M635.78,523.5c1-1.45,2.1-1.05,3.29.21C638.09,525.16,637,524.77,635.78,523.5Z" transform="translate(760.54 639.24)"/><path class="cls-2" d="M610.12,495.58c-1.6-3.18,2.93-1.84,2.92-4.45C615.29,493.22,610.87,494.06,610.12,495.58Z" transform="translate(760.54 639.24)"/><path class="cls-2" d="M746.27,610.67c-.48-1.21.23-2.52,1.56-3.87C750.59,608.6,748.08,610.85,746.27,610.67Z" transform="translate(760.54 639.24)"/><path class="cls-2" d="M383.28,634.66c2.24,1.35-1.73,3.64-2.64,2.09C381.47,635.36,382.49,636.43,383.28,634.66Z" transform="translate(760.54 639.24)"/><path class="cls-2" d="M407.71,658.93c0,2.1-6,4.2-6.44,1.45C403.42,660,405.63,660.16,407.71,658.93Z" transform="translate(760.54 639.24)"/><path class="cls-2" d="M369.15,627.83c1.16.84-1.29,2-1.64,2.94.8-1.31-1.79-2.35-.3-3.73C367.9,627.7,368.57,628.34,369.15,627.83Z" transform="translate(760.54 639.24)"/><path class="cls-2" d="M356.16,617.62c-.58.51-.65,1-.35,1.43-1.63,1-1-2-3-2.57C353.79,615.45,355,616.49,356.16,617.62Z" transform="translate(760.54 639.24)"/><path class="cls-2" d="M619.5,495.77c-1.39-.83-.31-1.85-2.08-2.65C619.6,490.48,620.74,494.23,619.5,495.77Z" transform="translate(760.54 639.24)"/><path class="cls-2" d="M324.06,591.16c.92,1-1.77,2.33-.2,3.29a2.9,2.9,0,0,1-2.87-.71C321.93,591.9,323.11,593,324.06,591.16Z" transform="translate(760.54 639.24)"/><path class="cls-2" d="M420.65,674.29c-1.67.56-3.22,2.67-5.08.88C417,672.46,420.21,671.64,420.65,674.29Z" transform="translate(760.54 639.24)"/><path class="cls-2" d="M428.08,679.34c.18,1.41-.82,4-2.59,4.1C424.57,680.92,426.67,681,428.08,679.34Z" transform="translate(760.54 639.24)"/><path class="cls-2" d="M311.94,586a4.05,4.05,0,0,1-1.38-5.51c1,.54.61,1.2.15,1.86C312.69,583,313.22,584.08,311.94,586Z" transform="translate(760.54 639.24)"/><path class="cls-2" d="M641,507.16c1.82,1.22,3.51,1,5.23,1,.9,1-.18,2.2.73,3.22C644.67,511.18,640,510.76,641,507.16Z" transform="translate(760.54 639.24)"/><path class="cls-2" d="M552.25,428.08a2,2,0,0,0,.15,1.86c1.4,1,0-1.45,1.71-2,1.68,1.12-.35,2.53-.63,3.8-1.6.17-1.3-1.88-3.52-3,.58-.51.65-1,.35-1.43,1.3-1.33,2.7-1.4,4.22.13C553.8,427.94,553,427.47,552.25,428.08Z" transform="translate(760.54 639.24)"/><path class="cls-2" d="M426.78,686.44c-2.38,3.19-2.39,8.37-5.84,8.9-1.38-.83-.31-1.85-2.08-2.64C422.66,692.66,423.72,688.63,426.78,686.44Z" transform="translate(760.54 639.24)"/><path class="cls-2" d="M321.29,597.47l2.51,2.14c-.76.24-1.6-.46-2.29.65Q319.75,599,321.29,597.47Z" transform="translate(760.54 639.24)"/><path class="cls-2" d="M373.16,648.58c.65.39.71-.27.43-.5,1.07-.25,2.2.17,3.22-.73,1,1.63-2,1-2.57,3-1.35-1.66-2.36-.38-2.51-2.14C372.39,647.81,373.7,647.71,373.16,648.58Z" transform="translate(760.54 639.24)"/><path class="cls-2" d="M369.34,641.86c1.29,1.9-.55,1.15-1.64,2.94-1-.71-.54-1.52-1.59-2.22C367.19,642.34,368.32,642.76,369.34,641.86Z" transform="translate(760.54 639.24)"/><path class="cls-2" d="M357.6,641.4c-1.79-1-.44,1.48-1.71,2-.52-.9-.63-1.82-1.16-2.72.76-.23,1.6.46,2.29-.65,1.77,1.1,1.9,2.7.22,2.79C356.76,642.4,357.38,641.89,357.6,641.4Z" transform="translate(760.54 639.24)"/><path class="cls-2" d="M392.91,381.11c-1.88,1.25-2.65-.12-3.44-1.45A2.48,2.48,0,0,1,392.91,381.11Z" transform="translate(760.54 639.24)"/><path class="cls-2" d="M504.71,366.79c.19-1.48,1.49-4.28,2.92-4.45C507.94,364.77,506.4,364.62,504.71,366.79Z" transform="translate(760.54 639.24)"/><path class="cls-2" d="M405.06,404l-.75-1.84c.67.23,2.06.27,1.83-.75.91-.14,1.13,1.33,1.61,2.2C406.69,404.11,406.16,403.36,405.06,404Z" transform="translate(760.54 639.24)"/><path class="cls-2" d="M401.18,389.15c1.54-.72,3.61,5.33,1,6C399.79,393.89,400.75,390.8,401.18,389.15Z" transform="translate(760.54 639.24)"/><path class="cls-2" d="M653.36,491.65c1.33-.88,2.82.08,4.15-.8,1.26,2.7-4.41.36-.71,2.87A2.66,2.66,0,0,1,653.36,491.65Z" transform="translate(760.54 639.24)"/><path class="cls-2" d="M629.16,470.17c4.28-1.13,8.58-2,12.81-3.84-.77,2.3-5.71,2.65-7.93,6.26-1,2.2,2.59,1.46.73,3.22C632.05,475.12,631,472.25,629.16,470.17Z" transform="translate(760.54 639.24)"/><path class="cls-2" d="M397.22,382.92l-1.49-3.67c.75-.19,1-.58,1-1.11.73-.12.91,1,1.72.73C398.21,380.3,398.7,382,397.22,382.92Z" transform="translate(760.54 639.24)"/><path class="cls-2" d="M388.73,679.19a6.54,6.54,0,0,1-.84,7.09c-.7-1.51-2.76-2.9-3.17-4.43C385.94,679.48,387.55,682.07,388.73,679.19Z" transform="translate(760.54 639.24)"/><path class="cls-2" d="M376.3,254.83c-.78-.88-.41-1.85.71-2.87l1.51,1.29C377.83,254.47,377,254.28,376.3,254.83Z" transform="translate(760.54 639.24)"/><path class="cls-2" d="M398.43,689.18c1.06,1.13-1.59,2.46-2.14,2.51-.78-1-2-2-.73-3.22,1.89-.14.8,1.06,1.58,2.21Z" transform="translate(760.54 639.24)"/><path class="cls-2" d="M525.63,803.58l2,1.71c-.58.52-.65,1-.35,1.43C525.49,808.26,524.71,805,525.63,803.58Z" transform="translate(760.54 639.24)"/><path class="cls-2" d="M401,698.34c-.8,1.78-1.82.7-2.65,2.09-1.26-1.15,1.3-2.61-1.23-3.65C398.39,696.59,399.7,697.3,401,698.34Z" transform="translate(760.54 639.24)"/><path class="cls-2" d="M444.35,303.24c-.78-2.65,2.7-.77,3.5-3.09C448.57,302.1,445.33,303.21,444.35,303.24Z" transform="translate(760.54 639.24)"/><path class="cls-2" d="M334.7,647.92c-2.32-1.22-.74-2.75-1.73-4.08-.66-.42-1.2.56-1.79,1.08a4.31,4.31,0,0,1-2.09-2.64C332.43,642.4,337.58,643.42,334.7,647.92Z" transform="translate(760.54 639.24)"/><path class="cls-2" d="M314.87,628.43c2.4-.58-.67,5.52-2.57,3C312.28,628.74,315.32,630.65,314.87,628.43Z" transform="translate(760.54 639.24)"/><path class="cls-2" d="M329,641.35c-1.73,2.15-3.6-1.72-4.3-1.06-.51-.27-.31-.6-.08-.93l.86-1C327.09,638.18,326.8,640.23,329,641.35Z" transform="translate(760.54 639.24)"/><path class="cls-2" d="M359.33,668.9c-1.88-.08-3.45,3.74-5.44,2.31C355.73,670.74,357.28,666.69,359.33,668.9Z" transform="translate(760.54 639.24)"/><path class="cls-2" d="M502.42,344c-1.59-1.28-.2-2.79,1.06-4.3C504.14,341.07,503.75,342.51,502.42,344Z" transform="translate(760.54 639.24)"/><path class="cls-2" d="M395.9,704.38c.94,1.17-1.91,2.65-2.5,3.95-1.4-1.84-2.38,1.5-3.8-.63C393.13,704.27,393.57,707.7,395.9,704.38Z" transform="translate(760.54 639.24)"/><path class="cls-2" d="M333.71,653.15c2.53-.62,1.69,2.95-.13,4.22a4.31,4.31,0,0,1-2.08-2.64C332.73,654.58,335.17,655.4,333.71,653.15Z" transform="translate(760.54 639.24)"/><path class="cls-2" d="M456.88,301.76a1.82,1.82,0,0,1,.28-2.36,3.12,3.12,0,0,1-1.93-.78l1.28-1.51,2.51,2.14c-.27.51-.6.31-.93.07C458.15,300.54,458.76,301.6,456.88,301.76Z" transform="translate(760.54 639.24)"/><path class="cls-2" d="M325.89,649.09c-2,2.95-5.06,3.46-4.73-.56.68-.23,2,.43,1.36-.58Q324.11,647.38,325.89,649.09Z" transform="translate(760.54 639.24)"/><path class="cls-2" d="M529.21,824.84" transform="translate(760.54 639.24)"/><path class="cls-2" d="M520.25,824.15c1.42-1.76,3.31,2.32,4.73.56" transform="translate(760.54 639.24)"/><path class="cls-2" d="M330.57,654.81c.23.68-.43,2,.58,1.36.55.73-.65,1.61-1.21,2.44C328.39,657.36,328.64,655,330.57,654.81Z" transform="translate(760.54 639.24)"/><path class="cls-2" d="M415.86,263.36a3.72,3.72,0,0,0-1.58-2.21c1.29.5,2.24-3.26,3.65-1.23C416.25,261.15,416.88,262.19,415.86,263.36Z" transform="translate(760.54 639.24)"/><path class="cls-2" d="M384.93,702l2,1.71c-.6,1.79-2.06,3.18-4.07,1.73C382.79,704.33,383.81,703.16,384.93,702Z" transform="translate(760.54 639.24)"/><path class="cls-2" d="M515.13,812.86c.68,3.24-3,.87-4,2.66a14.87,14.87,0,0,0-2.16-3.58C511.47,811,511.49,816.33,515.13,812.86Z" transform="translate(760.54 639.24)"/><path class="cls-2" d="M600.71,419c1.63-1.06.4-1.9,1.64-2.94.79,2.64,2.55.35,3,2.57C603.89,419.82,602.43,421,600.71,419Z" transform="translate(760.54 639.24)"/><path class="cls-2" d="M348.53,674.45c.52.89.63,1.82,1.16,2.72-4.27-1.11-1.2,3.23-4.36,4.09-.75-.49,1.83-3.46-.65-2.29A7.29,7.29,0,0,1,348.53,674.45Z" transform="translate(760.54 639.24)"/><path class="cls-2" d="M515.93,817c-1.85,2.22-3.9,2-5.86,2.81C511.14,818.31,513.66,816.16,515.93,817Z" transform="translate(760.54 639.24)"/><path class="cls-2" d="M649.25,457.78c-2.09-2.16,2.94-2.43,3.85-4.52C653.69,455.48,650.25,456.25,649.25,457.78Z" transform="translate(760.54 639.24)"/><path class="cls-2" d="M606.87,420c-1.22-2.87,4.25-4.28,6.44-1.45-1.76.15-.48,1.16-2.14,2.51C609.76,421,608.22,419.24,606.87,420Z" transform="translate(760.54 639.24)"/><path class="cls-2" d="M423.66,261.34c-1.77-1.11-.7-2.44.63-3.8C425,258.73,424.49,260,423.66,261.34Z" transform="translate(760.54 639.24)"/><path class="cls-2" d="M516.88,823c1.09,2.68-.26,3-1.84,6.24-3-2.16,2.9-2.32-1.3-4.58C514,824.12,515.57,824.65,516.88,823Z" transform="translate(760.54 639.24)"/><path class="cls-2" d="M756.88,544.24c-2.22-.61,0-4.95,1.64-2.94-.55.94-1.21.46-1.79,1.08C757.74,542.92,757.35,543.58,756.88,544.24Z" transform="translate(760.54 639.24)"/><path class="cls-2" d="M457.19,288.16c-1.46-1-.41-2.16.2-3.3C459.54,286,459,288.06,457.19,288.16Z" transform="translate(760.54 639.24)"/><path class="cls-2" d="M285.36,628.45c.48,2.5-3,3-4.28,5-.19-1.54.84-3.19,2.42-4.88C284.2,629.51,284.78,629,285.36,628.45Z" transform="translate(760.54 639.24)"/><path class="cls-2" d="M333.62,669.55c-1,.78-2.21-.32-3.15,1.65-1.87-.94.86-2.25-1.66-3.14C330.32,667.32,331.93,667.92,333.62,669.55Z" transform="translate(760.54 639.24)"/><path class="cls-2" d="M388.49,717.15c.82,1.38-2.16,3.53-3.15,1.66C386.33,717.49,387.46,717.92,388.49,717.15Z" transform="translate(760.54 639.24)"/><path class="cls-2" d="M392.51,720.57c2.07,1.93-2.82,3.82-4,2.66C389.75,721.18,391.17,721.3,392.51,720.57Z" transform="translate(760.54 639.24)"/><path class="cls-2" d="M689.72,483.58c-1.69-1.83,1.48-4-2.23-4.5,1.07-.22,2.07-1.44,3.15-1.66,1.6,2.39-1.28,3.1,2.23,4.51C691.79,482.15,690.8,483.36,689.72,483.58Z" transform="translate(760.54 639.24)"/><path class="cls-2" d="M446.84,275.87c-.52-1.75.28-1.88,1.64-2.94,1.32,1,.88,2.12,1.66,3.15C449.12,277,447.8,274.3,446.84,275.87Z" transform="translate(760.54 639.24)"/><path class="cls-2" d="M661.7,455.38c-1.79-1.11-1.35-2.39-2.16-3.57C660.24,451.19,663.1,454.29,661.7,455.38Z" transform="translate(760.54 639.24)"/><path class="cls-2" d="M350.23,689.77c.87,1.94,1.26,1.17,3.52,3-1.19.7-2.48.2-3.8-.63C350.06,691.34,349.24,690.63,350.23,689.77Z" transform="translate(760.54 639.24)"/><path class="cls-2" d="M466.07,287.91l-1.51-1.28c.68-1.23,1.48-1,2.21-1.58C467.56,285.92,467.19,286.89,466.07,287.91Z" transform="translate(760.54 639.24)"/><path class="cls-2" d="M700.79,491.28c-.95-2,1.49-4.18.91-6.16C704,487,701.56,489.18,700.79,491.28Z" transform="translate(760.54 639.24)"/><path class="cls-2" d="M694.65,480.84l-2-1.71c1.61.65,2.77-4.42,4.51-2.23A4.29,4.29,0,0,1,694.5,479C695.52,479.53,695.12,480.18,694.65,480.84Z" transform="translate(760.54 639.24)"/><path class="cls-2" d="M448.83,271.5c2.68-.9,5.19.17,5.88,3.28C452.83,274.66,450.85,273.34,448.83,271.5Z" transform="translate(760.54 639.24)"/><path class="cls-2" d="M687,473.49c1.19-1.32,3.21-1.44,3.3.2C689.36,475.15,688.23,474.75,687,473.49Z" transform="translate(760.54 639.24)"/><path class="cls-2" d="M606.53,404.06c1.22-.13,2.38.3,1.28-1.51-.66-.42-1.2.55-1.79,1.08l-2-1.71c.43-.48.95.13,1.43.36.29-1.28,2-2.66,1.56-3.87.84-1.16,2,1.29,2.94,1.64a4.62,4.62,0,0,0,.37,4.65C609,405,606.68,406,606.53,404.06Z" transform="translate(760.54 639.24)"/><path class="cls-2" d="M463.54,279.69c.83-1.39,1.85-.31,2.64-2.08,1.29.83-.68,1.92.22,2.79C465.53,281.17,464.57,280.8,463.54,279.69Z" transform="translate(760.54 639.24)"/><path class="cls-2" d="M660.88,445.14c-.58.52-1.28-.36-1.94-.78.93-2,2.11-.88,3.14-1.66C664.12,445,659.89,443.72,660.88,445.14Z" transform="translate(760.54 639.24)"/><path class="cls-2" d="M377.11,721.34c1.46,2.07,3.21,4.12,1.45,6.44-1.18-1.47-2-3-3.17-4.43C377.09,723.06,375.9,722.67,377.11,721.34Z" transform="translate(760.54 639.24)"/><path class="cls-2" d="M322.19,678.9c-.58.52-1.28-.36-1.94-.78-1,.86-1.24,1.66-.28,2.36-3.27.41-3.39,4.11-6.65,4.75-.83-.64-1.71-1.87-2.44-1.21-.4-1.37,1.84-3,2-4.38C317.18,681.29,318,674.87,322.19,678.9Z" transform="translate(760.54 639.24)"/><path class="cls-2" d="M326.79,683.68c-1.2,2.84-4.63.76-2.44-1.21C325.2,683.3,325.93,682.76,326.79,683.68Z" transform="translate(760.54 639.24)"/><path class="cls-2" d="M307.71,673.5c-.82,1.39-1.85.31-2.64,2.09-1.85-.94-.74-2.13-2.59-3.07C304.1,671.35,305.85,671.73,307.71,673.5Z" transform="translate(760.54 639.24)"/><path class="cls-2" d="M660.84,433c-1.59.25,2.09-3.89,1.92-5.3-2.62-.25-2.06,2.74-4.43,3.16.26-3,3.88-6.6,6.93-7.11,2,2.24-3.72,2.38-.56,4.73Z" transform="translate(760.54 639.24)"/><path class="cls-2" d="M571.17,802c1.08-2.17.15-5.91,3.6-6.2-1.66,2,.47,2.87,1.85,3.4.11-1,1-1.8,1.72-3.82,1.34.48,2,1.78,4.44.92-3.15,2-4.95,5.15-7.8,7.43C574.73,800.22,573.68,801.52,571.17,802Z" transform="translate(760.54 639.24)"/><path class="cls-2" d="M477.28,275.77" transform="translate(760.54 639.24)"/><path class="cls-2" d="M474.69,272.71c-1.46-1-1.06-2.1.2-3.3,1.91,1.53,1.89.35,2.72-1.15C480,271.09,475.67,270.63,474.69,272.71Z" transform="translate(760.54 639.24)"/><path class="cls-2" d="M308.25,686.11c1.55,2-1.76,2.61-3.22.72C306.05,685.94,307.18,686.35,308.25,686.11Z" transform="translate(760.54 639.24)"/><path class="cls-2" d="M472.54,412.18c3-.28,1.89-2.24,2.06-3.69,3-1.13.18,4.28,3.32,2.92a4.66,4.66,0,0,1-2.67,3.94C475,412.8,473,414.23,472.54,412.18Z" transform="translate(760.54 639.24)"/><path class="cls-2" d="M200,597.36c1.23-.81,3.49,2.16,3.52,3C201.31,601.52,201.53,598,200,597.36Z" transform="translate(760.54 639.24)"/><path class="cls-2" d="M713.56,459.66c-2.59,2.18-.76-3.1-3.44-2.07C710.05,454.36,713.14,458,713.56,459.66Z" transform="translate(760.54 639.24)"/><path class="cls-2" d="M771.88,509.32c-.93-.55-.46-1.21-1.08-1.79.89-.61,1.95.91,2.72-1.15l1,.86c-.46.35-.21.64.08.93C773.71,508.77,772.65,507.25,771.88,509.32Z" transform="translate(760.54 639.24)"/><path class="cls-2" d="M741.59,486.13c-.78-.87-.41-1.84.71-2.87,1.23.68,1,1.48,1.58,2.21C743.14,486,742.32,485.52,741.59,486.13Z" transform="translate(760.54 639.24)"/><path class="cls-2" d="M321.28,708.48c-1.28,1.64-2.76.63-4.23-.13C318.29,706.25,319.78,707.26,321.28,708.48Z" transform="translate(760.54 639.24)"/><path class="cls-2" d="M718.65,458.78c-1.3-2.42,1.16-4.22,3.35-5C722.8,456.25,720.11,455.2,718.65,458.78Z" transform="translate(760.54 639.24)"/><path class="cls-2" d="M741.2,477.11c-1.94-.78.06-1.88.71-2.87l1.51,1.28C742.73,476.76,741.93,476.57,741.2,477.11Z" transform="translate(760.54 639.24)"/><path class="cls-2" d="M722.95,459.84c-.53-.66.34-1.43.86-1,.42-.66-.55-1.2-1.08-1.79,2-2.11,1.66-.17,3.37,1.14C725.16,460.15,724,459.07,722.95,459.84Z" transform="translate(760.54 639.24)"/><path class="cls-2" d="M326.2,723.08c.32,2.45-3.67.69-5.16-.06C322.9,720.73,325.42,723.16,326.2,723.08Z" transform="translate(760.54 639.24)"/><path class="cls-2" d="M481.87,391.28c-.57-2.47,1.59-.9,3.17-2.72C485.69,391.23,483.86,390.47,481.87,391.28Z" transform="translate(760.54 639.24)"/><path class="cls-2" d="M320.75,719.3c-.58.52-.65,1-.36,1.43-.59.44-1.29-.51-1.86.15-.23-.76.47-1.6-.65-2.29C318.75,717.81,319.72,718.18,320.75,719.3Z" transform="translate(760.54 639.24)"/><path class="cls-2" d="M463.16,842.31c-1.67.51-3.43,0-5,1.8-1.06-1,1.6-2.31,2.07-3.44C461.5,841.28,463.06,840.62,463.16,842.31Z" transform="translate(760.54 639.24)"/><path class="cls-2" d="M686.51,420.14c1-1.3,2-2.49,3.07-2.59l3,2.57c-2.13,2.05-1.7-.16-3.8-.63C690.2,422.19,688.81,421.33,686.51,420.14Z" transform="translate(760.54 639.24)"/><path class="cls-2" d="M551.72,780.53c-.89-.89-2.82-.45-2.93-2.31.53-.47,1.08-.93,1.31-.15.76-.2.41-1.27.42-2C554.44,776,551.09,778.2,551.72,780.53Z" transform="translate(760.54 639.24)"/><path class="cls-2" d="M455.91,839.62c-.92,2.11-2.1,1.06-3.29-.21l-.86,1c-1,1.79,1.49.44,2,1.71-2,.32-3.86,2.42-5.79,3.74" transform="translate(760.54 639.24)"/><path class="cls-2" d="M488.1,387.32c-3-1,2.1-2.8,1.82-4.3,1,.07,1.67.85,2.22,1.95-2.76-.43-.08.88.38,2.69C490.38,389.84,488.37,385.61,488.1,387.32Z" transform="translate(760.54 639.24)"/><path class="cls-2" d="M261.89,680.45c-1.72.26-4.81-3.33-3.67-4.86C261.19,675.59,259.82,678.93,261.89,680.45Z" transform="translate(760.54 639.24)"/><path class="cls-2" d="M276.55,693.8c-.48-.43.13-.95.35-1.43-.35-.46-.64-.21-.93.07-1-1.81,2-1.09,2.79-.22C278.08,693.45,277.28,693.26,276.55,693.8Z" transform="translate(760.54 639.24)"/><path class="cls-2" d="M731.77,441.34l3.52,3C733.7,445.89,730,443.56,731.77,441.34Z" transform="translate(760.54 639.24)"/><path class="cls-2" d="M678,395.53l2.57-3c.85.83,1.59.29,2.44,1.21C681.43,395.69,679.74,396.08,678,395.53Z" transform="translate(760.54 639.24)"/><path class="cls-2" d="M733.55,440.25,732,439c1.21-.48,2.28-2.71,3.65-1.23C733.94,437.9,735.22,438.9,733.55,440.25Z" transform="translate(760.54 639.24)"/><path class="cls-2" d="M721.62,425.76c1.33,1.21,1.73,0,2,1.71A1.41,1.41,0,1,1,721.62,425.76Z" transform="translate(760.54 639.24)"/><path class="cls-2" d="M739.37,442.6c1.57-1.84,3.11-4,5-1.81C742.63,440.57,741.18,443.8,739.37,442.6Z" transform="translate(760.54 639.24)"/><path class="cls-2" d="M690.53,400.14c1-1.45,2.1-1.06,3.29.2C692.85,401.8,691.72,401.4,690.53,400.14Z" transform="translate(760.54 639.24)"/><path class="cls-2" d="M316.46,747.74c-.41,1.81-3.25.83-2.14,2.51C311.17,751.2,314.49,744.75,316.46,747.74Z" transform="translate(760.54 639.24)"/><path class="cls-2" d="M522.61,396.82c-1.74,1.32-2.28-.2-3.56,0C519.72,395.86,521.66,394.48,522.61,396.82Z" transform="translate(760.54 639.24)"/><path class="cls-2" d="M758.61,437.31c2.13-1,2.2-.31,3.87,1.56C760.49,439.74,761,438.35,758.61,437.31Z" transform="translate(760.54 639.24)"/><path class="cls-2" d="M741.86,415.23c-.9-.87,1.07-2-.23-2.8.73-.63,1.65,1.1,2.37.28C745.06,413.85,742.41,415.18,741.86,415.23Z" transform="translate(760.54 639.24)"/><path class="cls-2" d="M765.91,434.85c-.76-2.14-2.69-2-3.09-3.5C763.79,429.88,767.11,433.38,765.91,434.85Z" transform="translate(760.54 639.24)"/><path class="cls-2" d="M768.2,434.2c-.94-1.18,1.9-2.65,2.49-3.95,1.24.68,1,1.48,1.58,2.21A5.38,5.38,0,0,0,768.2,434.2Z" transform="translate(760.54 639.24)"/><path class="cls-2" d="M720.93,387.87c-1.5-1.31,1.94-5.43,3.5-3.09C721.11,384.41,723.41,387.38,720.93,387.87Z" transform="translate(760.54 639.24)"/><path class="cls-2" d="M696.35,361.73c2,0,3.8-3.31,5.94-1.88-1.17,1-2.4,1.21-3.5,3.09A3.71,3.71,0,0,1,696.35,361.73Z" transform="translate(760.54 639.24)"/><path class="cls-2" d="M743.81,398.68a5.41,5.41,0,0,0,4.51-2.23c.52.58,1,.65,1.43.35.51.27.31.6.07.93-.45.35-.2.64.08.93-.86.9-2-1.07-2.79.22-.09,1.1,1.14,2.1.73,3.22C744.53,403.47,745.12,400.82,743.81,398.68Z" transform="translate(760.54 639.24)"/><path class="cls-2" d="M751.63,402.74l-2-1.71c.68-1.23,1.48-1,2.21-1.58C752.2,400.51,752.78,401.56,751.63,402.74Z" transform="translate(760.54 639.24)"/><path class="cls-2" d="M705.94,358.63c-1.17.14-.87.62-1.28,1.51.81.43,1.49-.91,2.21-1.58.83.64,1.71,1.87,2.44,1.21.22,3.15-4,.38-5.44,2.31-1.77-1.11-.34-2.47-.3-3.72-1.26-.1-2.44.74-3.8-.63" transform="translate(760.54 639.24)"/><path class="cls-2" d="M757.58,406.95c-.3-2.54-.7-2.64-2.23-4.5,1.19-.39,2.33,0,2.44,1.21,1.51-2.77,3.24-4.27,5.57-6.54C763.17,401.28,758.78,402.34,757.58,406.95Z" transform="translate(760.54 639.24)"/><path class="cls-2" d="M751,395.29c-2,1.17-.69-4.23-3.52-3-1-2.17,2.09-.34,2.64-2.09-.35,3.59,2.32,1.24,3.3.21,1.49,1.73-1.3,3.08-2.5,3.95C750.5,394.71,750.75,395,751,395.29Z" transform="translate(760.54 639.24)"/><path class="cls-2" d="M741,386.73c-.42-2,.89-3.32,2-4.38.79,1-1.26,2.29.73,3.22C742.84,386.57,741.78,385,741,386.73Z" transform="translate(760.54 639.24)"/><path class="cls-2" d="M717.48,362.38q-2.66-1.66-.3-3.72Q719.85,360.32,717.48,362.38Z" transform="translate(760.54 639.24)"/><path class="cls-2" d="M720.48,358.87c-1.35-.32-.4-2.94-2-1.71C717.74,353.62,722.41,357.18,720.48,358.87Z" transform="translate(760.54 639.24)"/><path class="cls-2" d="M469.1,801.57c-1,.62-.73,2.2-2.39,2.28a23.48,23.48,0,0,0,.85-4.09C468.52,799.79,468,801.69,469.1,801.57Z" transform="translate(760.54 639.24)"/><path class="cls-2" d="M764.69,367c1.91-1.1,1-1.45,2.64-2.09C768,366.32,766.48,369.06,764.69,367Z" transform="translate(760.54 639.24)"/><path class="cls-2" d="M751.25,351.25,749.74,350c1.21-.48,2.28-2.71,3.65-1.23Z" transform="translate(760.54 639.24)"/><path class="cls-2" d="M763.39,339c-1.55.09-2.93,2.37-4.58,1.3,1.16-.79,3.06-3.9.71-2.87-.43-2,3.36-.52,4.43-3.17C766.8,337.52,759.9,336.19,763.39,339Z" transform="translate(760.54 639.24)"/><path class="cls-2" d="M427.21,848.77a3.13,3.13,0,0,1,1.94.78,3.12,3.12,0,0,0-1.79,1.08" transform="translate(760.54 639.24)"/><path class="cls-2" d="M432.13,863.37l-1.71,2C428.8,862.14,428,860.74,432.13,863.37Z" transform="translate(760.54 639.24)"/><path class="cls-2" d="M452.5,895.46c1.16.84-1.29,2-1.64,2.94-.25-1.18-.77-1.58-1.94-.78C448.15,894.93,451.56,896,452.5,895.46Z" transform="translate(760.54 639.24)"/><path class="cls-2" d="M477.66,923c-2.06,1.61-4.21,2.07-6.52.52C473.33,923.51,475.34,921.38,477.66,923Z" transform="translate(760.54 639.24)"/><path class="cls-2" d="M470.77,918.82c.78.87.41,1.84-.71,2.87l-1.51-1.29C469.24,919.17,470,919.37,470.77,918.82Z" transform="translate(760.54 639.24)"/><path class="cls-2" d="M728,388.71c-.58.51-.65,1-.35,1.43-2.46.9-1.49-2.33-2.59-3.07C726.75,386.63,726,388.47,728,388.71Z" transform="translate(760.54 639.24)"/><path class="cls-2" d="M433.36,458.74c1,.71.54,1.52,1.58,2.22-1.23.2-2.57-.87-3.8-.63-1.16,2.85,2,.36,3.52,3a6,6,0,0,1-3.72.3c-.41.93.81.35,1.51,1.28-3.14,2-3.28-2.7-5.53-4.71C428.9,457.66,431.39,461.5,433.36,458.74Z" transform="translate(760.54 639.24)"/><path class="cls-2" d="M515.79,516.72" transform="translate(760.54 639.24)"/><path class="cls-2" d="M367.77,341.23c1.15,1.63.47,3.86,1.94.78,2.06,1.55.22,3.42-.06,5.16,2.13.1,1.87,2.49,3.45,2.07C371.4,352.32,365,344.19,367.77,341.23Z" transform="translate(760.54 639.24)"/><path class="cls-2" d="M319.85,573.7c0,1.25,1.27,2.4,1.23,3.65,1,.75,1.76-1.37,2.79-.23.36,1.14-3.37.45-4.58,1.31.18-2-.25-2-1.86.15-1.44-3.81,3.24-2.53,1.41-5.74,1.39-.15,2.86.62,4.38,2,.78-2.05.89-1.53,2.64-2.09.51,3-3.24,2.06-4.36,4.1C320.73,575.81,321.82,574.63,319.85,573.7Z" transform="translate(760.54 639.24)"/><path class="cls-2" d="M414.3,314.08c1.2,1,.74,2.13,2.59,3.07,1.4,1,0-1.45,1.71-2a4.3,4.3,0,0,0,2.08,2.64c.94-1.95.71-3.81.48-5.66a2.91,2.91,0,0,1,2.87.71c-2.82,2.26-.58,4.11-1.84,6.24C419.11,317,412.38,319.88,414.3,314.08Z" transform="translate(760.54 639.24)"/><path class="cls-2" d="M322.22,597.39c1-1.44,2-2,3.22-.73C325.61,598.3,323.6,598.51,322.22,597.39Z" transform="translate(760.54 639.24)"/><path class="cls-2" d="M308.94,589.56c-.56-1.67-3-.31-2-1.71,2-2.07,3.18,2.87,1.73,4.07C307.39,591.24,308.32,590.39,308.94,589.56Z" transform="translate(760.54 639.24)"/><path class="cls-2" d="M397.44,671c1.86.94-.21,2.2,1.66,3.15-1.87,2-4,.44-5.79,3.74-.25-2.71-1.24-2.62-2.31-5.44,2.2.14,4.55,2.17,6.66,1.34C398.89,672.75,395.13,672.12,397.44,671Z" transform="translate(760.54 639.24)"/><path class="cls-2" d="M628.75,476.75c-1.7,1.12.24-1.8-1.58-2.21.81-1.69,1.86-.16,2.72-1.16C631.86,475,627.82,476,628.75,476.75Z" transform="translate(760.54 639.24)"/><path class="cls-2" d="M633.16,467.51c.44-2-2.8-.88-2.08-2.64-4.4.56-.15,1.84.72,3.22-2.52.52-2.8-1.35-4.5,2.23-1.73-2.36-.64-4.94.33-7.52,2.13,1.27,4.13.83,5.94-1.88.52.58,1,.65,1.43.35,1.22,1.61-1.4.66-1.71,2,1.06,1.54,1.86-.14,2.87.71C635.22,464.58,634.08,464.28,633.16,467.51Z" transform="translate(760.54 639.24)"/><path class="cls-2" d="M510.28,360.25c1.24-2.48-1-1.76-1.73-4.08" transform="translate(760.54 639.24)"/><path class="cls-2" d="M505.53,353.61c.86-.9,2,1.07,2.79-.22.07,1.36,0,3.75-1.57,3.87C503.75,354.81,509.63,354.56,505.53,353.61Z" transform="translate(760.54 639.24)"/><path class="cls-2" d="M641.95,460.24a2.46,2.46,0,0,1-2.14,2.51c-.38-1.06,0-2.19,1.14-3.37,1.1,2,1.77-1.3,2.87.71A2,2,0,0,1,641.95,460.24Z" transform="translate(760.54 639.24)"/><path class="cls-2" d="M315.46,635.88c.39,1.08-.78.63-1.21,2.44l-2-1.71C313.18,634.61,314.43,636.67,315.46,635.88Z" transform="translate(760.54 639.24)"/><path class="cls-2" d="M329.91,652.52c-2,.12-1,1.65-2.57,3-.73-1.58-2.74-1.27-3.95-2.49C324.32,652.21,327,652.54,329.91,652.52Z" transform="translate(760.54 639.24)"/><path class="cls-2" d="M442.15,287.49a1.81,1.81,0,0,1,2.29-.65,4.71,4.71,0,0,0-.65-2.29C446.58,283.66,444.82,290.48,442.15,287.49Z" transform="translate(760.54 639.24)"/><path class="cls-2" d="M361.32,687.94c-1.26,1.67.93,4.47-2.42,4.88.42,2.24,1.7,2.63,3.59,3.93-1.12,1.58-2.42.93-3.65,1.23a1.82,1.82,0,0,1,.28-2.36c-2.76-.78-1.07,1.34-4.3-1.06.43-.48.95.14,1.43.35a3.32,3.32,0,0,0-.22-2.79c1.31.79,2.38-1.44,3.65-1.23a2.91,2.91,0,0,0-1.15-2.72c1.62-1.07.4-1.9,1.64-2.94,1.15,3,.3-1.31,2.14-2.51,1.43,3.45,1.81,2,5,3.35-2,.49-3.16,1.1-3.93,3.59C362,690.06,363.88,688.13,361.32,687.94Z" transform="translate(760.54 639.24)"/><path class="cls-2" d="M276.83,627.26" transform="translate(760.54 639.24)"/><path class="cls-2" d="M483.5,318.37c-1.6-2.68,2.29-1,3.5-3.09,1,1,0,2.19-1.14,3.37C485.74,317.3,484.55,316.25,483.5,318.37Z" transform="translate(760.54 639.24)"/><path class="cls-2" d="M342,675c1.52-1.22.12,1.44,1.08,1.79-2,1-1.26-.63-3.37-1.14.68-1.27,1.53-.35,2.36.28C342.55,675.55,342.3,675.26,342,675Z" transform="translate(760.54 639.24)"/><path class="cls-2" d="M440.88,271.66c-.49-.58.15-.74.43-.5,1.63-1.06.4-1.9,1.64-2.94,0,2.7,3,.31,3,2.57A11.9,11.9,0,0,1,440.88,271.66Z" transform="translate(760.54 639.24)"/><path class="cls-2" d="M464.34,283.84a30.94,30.94,0,0,1-1.14,3.37c-.63-3.07-4-3.55-7-6C459.13,278.29,460.85,286.23,464.34,283.84Z" transform="translate(760.54 639.24)"/><path class="cls-2" d="M692.32,469.32c-.41.74.57,1.36,1,.86.66,1.2-2.61,1.9-3.65,1.23.65-1,2.65-2.09.71-2.87,1.55-.12,3.16.42,4.58-1.31,1.3.84-.68,1.93.23,2.8-1.05.57-1.42-.67-.58-1.36C693.79,468.17,693.16,470,692.32,469.32Z" transform="translate(760.54 639.24)"/><path class="cls-2" d="M588.28,812.31c-.1-1.58,3-.66,4.19-1.22,1.36.4-.34.82-1.34.88a4,4,0,0,1,1,2.76c-1.13.34-1.31-.53-2.22-.46a2,2,0,0,0,1.68,2c-.38.79-1.55.93-1.17,2.31-1.35.08-.77-2.3-2.39-1.89C588.68,814.64,592.32,812.73,588.28,812.31Z" transform="translate(760.54 639.24)"/><path class="cls-2" d="M370.24,723.29a2,2,0,0,0-.15-1.86c.83-1.29,1.93.68,2.79-.22.78.87.41,1.84-.71,2.87C373.78,726.58,371.55,723.48,370.24,723.29Z" transform="translate(760.54 639.24)"/><path class="cls-2" d="M701.22,475.16c-.3-1.26,0-4.95,2.42-4.88C705.66,471.54,700.9,472.86,701.22,475.16Z" transform="translate(760.54 639.24)"/><path class="cls-2" d="M305,668.57c-.47-1.31,2.22,1,2.51,2.14-1.27-.26-2.41,1.16-3.8-.63C304.38,670,305.64,669.37,305,668.57Z" transform="translate(760.54 639.24)"/><path class="cls-2" d="M475.75,268.4c-2.4-.6-3.7-.94-4.88-2.42,1.82,1.32,3.3-1.65,5.16.06,1.36-1.88-3-.34-1.59-2.22-.66-.42-1.21.55-1.78,1.08,0-.94-1.72-1.74-.23-2.79" transform="translate(760.54 639.24)"/><path class="cls-2" d="M707.31,451.72c-.67-2.52,4.47-1.34,4.3,1.06C709.49,452.91,709.92,449.65,707.31,451.72Z" transform="translate(760.54 639.24)"/><path class="cls-2" d="M733.65,470.69l-1-.85a3.09,3.09,0,0,1,.78-1.93c1.39,1.78,2.55.72,3.72-.3,1.85.95.74,2.13,2.59,3.07C737.76,471.32,735.42,467.35,733.65,470.69Z" transform="translate(760.54 639.24)"/><path class="cls-2" d="M292.48,705.63c-.86.91-2-1.06-2.79.22-.5-1.21-.43-2.46-1.23-3.65,1.88.11,3.71-.42,5.73,1.41-1.19.71-2.51-.15-3.72.3C289.52,705.71,292,704.36,292.48,705.63Z" transform="translate(760.54 639.24)"/><path class="cls-2" d="M550,788.7c-.65,1.19-4.52-2.8-3.17-4.28C549,784.45,548.58,787.77,550,788.7Z" transform="translate(760.54 639.24)"/><path class="cls-2" d="M548.57,810.15c1.14.57-.76,2.73,2.12,1.08-.38,1.69-2.53,3.78-4.36,2.51-.73-2,1.65-1.47.92-3.43C547.89,810.64,548.52,811,548.57,810.15Z" transform="translate(760.54 639.24)"/><path class="cls-2" d="M315,729.13c-1.87-2-.68,1.6-2.72,1.15-.61-.89.92-1.94-1.15-2.72.67-1.35,1.57.1,2.29-.65,2.09,1.08,1.3,2.39,3.09,3.5-.44.33-.93.07-1.36.58C314.11,730.44,314.51,729.79,315,729.13Z" transform="translate(760.54 639.24)"/><path class="cls-2" d="M439.11,846.11c-.85-.83-1.59-.29-2.44-1.21,1.7-1.41,2.51.9,3.44,2.07-.87.79-1.64,3-2.72,1.16C439.08,847.84,437.89,847.45,439.11,846.11Z" transform="translate(760.54 639.24)"/><path class="cls-2" d="M310.43,742.6c2.11.26-.91,3,1.08,1.79.89.61-1.78,4.15-2.64,2.09.42-.65.87-.8,1.36-.58C311.5,744.7,308.62,743.84,310.43,742.6Z" transform="translate(760.54 639.24)"/><path class="cls-2" d="M783.66,451.7c-.4.5.28.91.58,1.36-1.15,1.23-2.3,2.5-3.65,1.23,1.94-1.09,1.57-2.48,3.93-3.6C785,451.36,784.17,452.12,783.66,451.7Z" transform="translate(760.54 639.24)"/><path class="cls-2" d="M786.78,444c-1.06,2.32-2.53-.46-3.72.3-1.16-1.78,2.31-3.93-1.38-5.51-1-2.06,2.23,1.37,2.87.71,1.28-1.53.34-4.71,3.07-2.59-2.63,1.05-.42,2.93-3.42,4C783.31,442,786.14,442.91,786.78,444Z" transform="translate(760.54 639.24)"/><path class="cls-2" d="M760.19,416.11c-.53-.66.34-1.43.86-1,.42-.66-.55-1.2-1.08-1.79a50.68,50.68,0,0,0,3.93-3.59C765.93,410.1,761.45,414.93,760.19,416.11Z" transform="translate(760.54 639.24)"/><path class="cls-2" d="M785,432.86c.56.86-.75.47-1.28,1.51-2.26-2.82-1.87-1.36-4.45-2.92.79-2.36,4.39,1,3.65-1.23C784.57,428.93,783.49,434.12,785,432.86Z" transform="translate(760.54 639.24)"/><path class="cls-2" d="M736.19,391.33c.88,3.06-3.87-1.43-2.09-2.64C736.4,389.2,734.57,392.3,736.19,391.33Z" transform="translate(760.54 639.24)"/><path class="cls-2" d="M712.73,355.74c1.78-.93,3,.91,3.95,2.5-.49.75-3.41-1.18-2.29.65-1.3-.64-3.17-2.3-2.24-4.5-2.34-.63-3,.51-3.57,2.16a1.8,1.8,0,0,0,2.36.28c-.65,3.61-3.33-.26-6.09,0" transform="translate(760.54 639.24)"/><path class="cls-2" d="M714.95,354.16" transform="translate(760.54 639.24)"/><path class="cls-2" d="M746.56,386.28c.2,1.83.52,2.93-1.56,3.87-1-.55-.61-1.2-.15-1.86a3.11,3.11,0,0,1-1.94-.78c1.32-1,2.77-.54,4.08-1.73C747.48,386.36,746.84,386.52,746.56,386.28Z" transform="translate(760.54 639.24)"/><path class="cls-2" d="M755.4,373.87a4.69,4.69,0,0,0,.65,2.29c-1.92,1-1.26-2-3-2.57.86-.9,2,1.07,2.79-.22C756.32,373.94,755.68,374.1,755.4,373.87Z" transform="translate(760.54 639.24)"/><path class="cls-2" d="M753.22,340.78c1.23,1.69,2.14-.56,3.37,1.14l-1.71,2c-.52-.58.36-1.28.78-1.94-1.61-.62-3,1.26-4.73-.56" transform="translate(760.54 639.24)"/><path class="cls-2" d="M274.25,740.18c.76-.23,1.6.47,2.29-.65-1.43,1.92-.33,5.3-2.35,5.8C274.28,743.62,275.31,741.82,274.25,740.18Z" transform="translate(760.54 639.24)"/><path class="cls-2" d="M280.11,737.37q-1.78-1.71-3.37-1.14c1.32-2.41,4.44,0,6.87-2,1.22,2.66-4.21.86-3,3.52C280,738.29,279.87,737.65,280.11,737.37Z" transform="translate(760.54 639.24)"/><path class="cls-2" d="M444.52,883.45c.49.59-.15.74-.43.5-1.15.87-.1,1.57.65,2.29-3.77,2.9-.72-2.2-4-3.43C441.91,882.07,443.35,884.49,444.52,883.45Z" transform="translate(760.54 639.24)"/><path class="cls-2" d="M398.68,717.46c1.11,1,3.24-1.63,3.51,1.58" transform="translate(760.54 639.24)"/><path class="cls-2" d="M312.95,586.9l-1.71,2c-1.23-1.15-2.51-2.3-1.23-3.65C311.07,586.88,311.91,585.66,312.95,586.9Z" transform="translate(760.54 639.24)"/><path class="cls-2" d="M261.2,666c1.2,1.28,2.24.71,3.22-.73.23.76-.46,1.6.65,2.29-2.61-.78-4.5,2.07-6,1-.48,2.82,2.43-.13,3.45,2.07-.94,1.87-2.2-.21-3.14,1.66l-2.52-2.14" transform="translate(760.54 639.24)"/><path class="cls-2" d="M468.45,838.14c-1.75,2.35-1.08,5.28-4.43,3.16.74-.51,1.56,0,2.29-.65-1.14-.61-2.32-1.66-3.29-.21" transform="translate(760.54 639.24)"/><path class="cls-2" d="M552.47,815" transform="translate(760.54 639.24)"/><path class="cls-2" d="M689.26,407.74c1.11-1.79,2.42-1,3.5-3.09-2-1.56-3.5,3.12-5.59.45,1.58-1.79,3.33-1.37,4.93-2.74,1.53.94,2.36,5.2,4.38,2,.5,1.21.44,2.46,1.23,3.65-.31,1.34-2.93.4-1.71,2C693.93,411.45,691.54,408.86,689.26,407.74Z" transform="translate(760.54 639.24)"/><path class="cls-2" d="M751.59,437.4l-2-1.71c1.8-2.4,1.83-3.64,4.36-4.09,1,.86-.53,1.91,1.15,2.72C754,435.64,752.84,437.34,751.59,437.4Z" transform="translate(760.54 639.24)"/><path class="cls-2" d="M756.54,417.33c-3.23-1.17-2.85-5-4.6-4.78-1.21-1.4,1.32-1.6,1.86-.15a5.94,5.94,0,0,0-.3-3.72c1.85-1.54,4.1,2,5,3.35C754.54,413.74,759.05,414.73,756.54,417.33Z" transform="translate(760.54 639.24)"/><path class="cls-2" d="M418.66,882.25c-.68,0-3.86,1.88-1.64,2.94-2.41,1.11-5,.19-7.52-.34-.23-.76.46-1.6-.65-2.29C412,881.29,415.14,879.22,418.66,882.25Z" transform="translate(760.54 639.24)"/><path class="cls-2" d="M765.17,840.07l-1.64-1.39c1.54.22,2.75-3.81,4.51-.87C766.15,838.41,766,837.84,765.17,840.07Z" transform="translate(760.54 639.24)"/><path class="cls-2" d="M759.1,815.1c-.53-1.32-2.56-2.5-2.35-3.88C758.7,808.88,760.9,813.9,759.1,815.1Z" transform="translate(760.54 639.24)"/><path class="cls-2" d="M765.57,819.68c-.43-1.32,1.38-2.83,1.7-4.21C769.81,817.66,767,817.91,765.57,819.68Z" transform="translate(760.54 639.24)"/><path class="cls-2" d="M778.36,826.79l-1.09-.93c3.43-3.74,7.36-1.43,11.29,1.13C785.31,828.75,781.53,823.92,778.36,826.79Z" transform="translate(760.54 639.24)"/><path class="cls-2" d="M764.85,810.57c1.21-2.44,3.73,1.46,3.74,2.25C767.73,813.43,764.22,812.31,764.85,810.57Z" transform="translate(760.54 639.24)"/><path class="cls-2" d="M781.22,817.91c-1.44-.66-.72,5.42-3.89,2.35-.8-1.69,3.32-1.52,2.25-3.74,4.78,1.48,2.79,3.12,5.54,5.66-1.15,2.54-2.79-.88-4,1.34C782,821.58,781.09,819.79,781.22,817.91Z" transform="translate(760.54 639.24)"/><path class="cls-2" d="M769,773.59c.32-1.21-1-2.29.22-3.58,1.37,2.29,1.12,2.33,2.35,3.88C770.79,774.57,769.79,772.69,769,773.59Z" transform="translate(760.54 639.24)"/><path class="cls-2" d="M771.29,852.81" transform="translate(760.54 639.24)"/><path class="cls-2" d="M772.28,846.12c-2.2-1.18.81-2.78-.32-4C773.65,841.29,775,845.58,772.28,846.12Z" transform="translate(760.54 639.24)"/><path class="cls-2" d="M786.42,812.92c1.24,3.6-4.07,4.68-6.54,1a4,4,0,0,0,2.41-1.72c3.95,3.41,4-3.47,7.71.91.79-1.25-.57-2.33.22-3.58,1.46-1.38.25,5.86,2.27,2.88,1.59,1.57-1.4,3.5-2.63,5.3-1-.68-.62-2.13-1.64-1.39-1.36-2.08,1.53-.56,1.94-1.17C790.75,812.92,787.33,813,786.42,812.92Z" transform="translate(760.54 639.24)"/><path class="cls-2" d="M714.63,580.54c.38-2.38,3-1.75,4.42-2.66,1.89.74-.84,1.3-.41,2.61C717.31,578.59,717,581.66,714.63,580.54Z" transform="translate(760.54 639.24)"/><path class="cls-2" d="M645.21,537c1-3.38,7.56.85,9-1.95C654.68,539,648.55,535.82,645.21,537Z" transform="translate(760.54 639.24)"/><path class="cls-2" d="M647.41,510c-2.08,0-1.87-1.72-1.45-3.57,1.06.76,1.66,1.87,3,2.47C648.65,509.53,647.56,509.09,647.41,510Z" transform="translate(760.54 639.24)"/><path class="cls-2" d="M620.5,580c-1.69.59-2.37,2.56-5,1.9C616.33,580.1,617.64,579,620.5,580Z" transform="translate(760.54 639.24)"/><path class="cls-2" d="M584.12,440a9.83,9.83,0,0,1,.81-5.22c2.39,1.86,4.16-.2,4.53-3.31C591.34,434,587.32,439.41,584.12,440Z" transform="translate(760.54 639.24)"/><path class="cls-2" d="M591.26,428.39c1.17-.78,1-3.32,3.12-2.86C594,427.44,593.57,429.17,591.26,428.39Z" transform="translate(760.54 639.24)"/><path class="cls-2" d="M641.6,633.4c2.25.73-.14,3.12-1.81,3.06.26-1.16-.59-1.5-.25-2.71C640.46,633.95,641.38,634.14,641.6,633.4Z" transform="translate(760.54 639.24)"/><path class="cls-2" d="M641,637.31l2,.3c.25,1.93-1.18,1.55-1.16,3.16C639.16,640.47,640.33,638.84,641,637.31Z" transform="translate(760.54 639.24)"/><path class="cls-2" d="M636.88,638c-.31,1.95-2,2-2.57,3.61-.75-.22-.36-1.27-.35-2.06.09-1.22-2.14-.74-2.41-1.71C632.88,637.18,635.78,636.61,636.88,638Z" transform="translate(760.54 639.24)"/><path class="cls-2" d="M729.12,655c-.07,1.75-1.24,2-2.92,1.55C726.28,654.82,727.44,654.57,729.12,655Z" transform="translate(760.54 639.24)"/><path class="cls-2" d="M762.75,662.25c2,.07,1,2.33,1.45,3.57C762.35,665.63,762.57,663.93,762.75,662.25Z" transform="translate(760.54 639.24)"/><path class="cls-2" d="M520,633.22c-.07,1.75-1.24,2-2.91,1.55C517.17,633,518.34,632.76,520,633.22Z" transform="translate(760.54 639.24)"/><path class="cls-2" d="M755.46,670.47c3,.22,4.46,2.95,5.71,6.24-2.66-.56-2.33-3.31-5.47-3.52C755.81,672.14,756.4,670.75,755.46,670.47Z" transform="translate(760.54 639.24)"/><path class="cls-2" d="M556.5,643.56c3,1.87-1.53,3.1-.16,5.32C553.33,648.28,556.65,645.25,556.5,643.56Z" transform="translate(760.54 639.24)"/><path class="cls-2" d="M548.41,648.31c1.61,0,1.24,1.41,3.16,1.16C551.1,652.87,548.16,650.27,548.41,648.31Z" transform="translate(760.54 639.24)"/><path class="cls-2" d="M524.11,649.89c-2.19-.09-3.5,1-5,1.9-1.3-.4-1-2-2.3-2.36C518.89,648.36,523.13,646.25,524.11,649.89Z" transform="translate(760.54 639.24)"/><path class="cls-2" d="M647.73,679.39c-.22-.68-.43-1.37-1.2-1.64-1.86-.11.78,1.37-.44,2.84-2.19-.08-1.11-2.54-1.58-3.87,1.38-1.07,2.28,1,5,.77-.24.8,0,1.29.49,1.53-.44,2-1.7,2.83-4,2.28C646.37,680.41,647.4,680.38,647.73,679.39Z" transform="translate(760.54 639.24)"/><path class="cls-2" d="M685.67,696.91l2.12.33c-1.32,2.09-.52,2.35-.77,5-2.4-1.33-2.6-.36-4.85-1.48C682.69,698.56,685.89,700.07,685.67,696.91Z" transform="translate(760.54 639.24)"/><path class="cls-2" d="M726.63,709.08c.66,1.48,1.05,4.81-.17,5.78C724.79,712.79,726.29,712.05,726.63,709.08Z" transform="translate(760.54 639.24)"/><path class="cls-2" d="M521.72,669.56c-.68,1.45-2.44,1.41-3.12,2.86-2.49-1.64,3.57-2.62-.9-2.81A2.66,2.66,0,0,1,521.72,669.56Z" transform="translate(760.54 639.24)"/><path class="cls-2" d="M672.86,723.24c-1,1.83-2.06-1.33-4.26-.66,2-2.27,1.95-4.09,1.92-7.69.81.24,1.29,0,1.53-.49C674,717.77,668.61,721.24,672.86,723.24Z" transform="translate(760.54 639.24)"/><path class="cls-2" d="M703.75,720.78c.33-1,6.09-.74,4.85,1.48C706.77,720.83,705.46,722.61,703.75,720.78Z" transform="translate(760.54 639.24)"/><path class="cls-2" d="M743.17,733.44" transform="translate(760.54 639.24)"/><path class="cls-2" d="M656.27,727.2c.47-2,.38-3.63-.76-4.48,1.2-2,2.63.92,3.44,1.26C658.1,725.12,658.38,727.79,656.27,727.2Z" transform="translate(760.54 639.24)"/><path class="cls-2" d="M714.8,738.47l.55-3.54c-2.52-.87-3,1.11-5.18.65.91-1.34,1.89-2.58,2.79-3.92,1.59,2.25,1.67-.6,3.66-.16-1.35,2.66,2.11,1.81.76,4.47l4.25.66c-.28,1.26.64,1.63.27,2.94-1.75,0-1.34-1.53-3.44-1.26C720.17,735.86,716.42,737.27,714.8,738.47Z" transform="translate(760.54 639.24)"/><path class="cls-2" d="M608,715.34c-.9,1.91.71,2,.16,3.66-2.24-2-2.56,1.13-4.25-.66C604.62,716.44,605.28,714.47,608,715.34Z" transform="translate(760.54 639.24)"/><path class="cls-2" d="M648.43,721.62l1.42.22c-.5,2.41,2.52.23,3.21,2.68-1.46,2.93-2.45-1.39-5.67-.88C647.37,722.46,648.25,722.52,648.43,721.62Z" transform="translate(760.54 639.24)"/><path class="cls-2" d="M708.7,731c.65.57.48,1.74,1.9,1.75,0,1.18-.86,1.12-1,2l-1.42-.22C707,733,708.77,733.32,708.7,731Z" transform="translate(760.54 639.24)"/><path class="cls-2" d="M643.73,723.8c1.41-1.79,3.37,1.25,3.21,2.68C644.67,726.47,645.37,724.27,643.73,723.8Z" transform="translate(760.54 639.24)"/><path class="cls-2" d="M699.75,732.5c3.5,0,1.52,3.92,4.41,4.32a3.41,3.41,0,0,0-1,2C700.76,737.63,701.28,734.32,699.75,732.5Z" transform="translate(760.54 639.24)"/><path class="cls-2" d="M684.2,734.44c1.1-.15-.14-1,.33-2.13,1.9.08,2.17,1.35,1.68,3.17l-5.67-.88c.2-1.78-1-2.4.55-3.55C682.21,732.12,682.81,733.58,684.2,734.44Z" transform="translate(760.54 639.24)"/><path class="cls-2" d="M702.19,740.15c.55-1.54,3.54.25,5.07.06C706.31,742.63,702.87,741.67,702.19,740.15Z" transform="translate(760.54 639.24)"/><path class="cls-2" d="M702.57,742.38c.13,2.76-1.39,3.26-1.59,5.56-3.17-2.72.59-4.64-3.71-4.21C697.88,741,700.66,741.15,702.57,742.38Z" transform="translate(760.54 639.24)"/><path class="cls-2" d="M635.92,732c-1,3.33-3.89-1.13-5.89.54C631,729.25,634.26,733.42,635.92,732Z" transform="translate(760.54 639.24)"/><path class="cls-2" d="M703.77,744c1.53.54,0,3.85-.66,4.25C701.57,747.73,703.13,744.43,703.77,744Z" transform="translate(760.54 639.24)"/><path class="cls-2" d="M611.14,732.53c-1,.82-2.38,1.08-.33,2.12.85,0,.8-1.2,1-2l2.84.44c-.12.69-1,.41-1.53.49.46,1.35-.3,3.58.76,4.48-.12,1.56-2.56-.07-3.66.16a5,5,0,0,0-3-4.1C608.34,733.05,609.89,730.81,611.14,732.53Z" transform="translate(760.54 639.24)"/><path class="cls-2" d="M726.37,582.36c-1.18-.1-1.25-1-2.51-1.06.94-.81,2.64-.6,3.57-1.45-.51-3-1.89.74-4.57-.71a6,6,0,0,1,3-2.21c-.13-1-.88.13-2-.3,1.62-3.37,4.2.58,7.17,1.12C730.73,580.95,726.6,579,726.37,582.36Z" transform="translate(760.54 639.24)"/><path class="cls-2" d="M656,536.67c1.37-1,2.76-2,5.52-1.15C660.81,537.51,657.54,535.94,656,536.67Z" transform="translate(760.54 639.24)"/><path class="cls-2" d="M639.55,564.92c.72.24.26.71-.1.66-.08.63.72.63,1.21.86-.64,2-3.13,1.52-3.87,3.4a3.11,3.11,0,0,0-1.86-1c.32-1.95,3.21-.36,4.22-1.35.08-.64-.72-.63-1.2-.85C638.31,565.86,639.25,565.83,639.55,564.92Z" transform="translate(760.54 639.24)"/><path class="cls-2" d="M633.62,568.68c0,1.9,1.61,2.68,2,4.32-4.63-.79-5.91,3-9.84,3.15C628.31,573.54,631.54,571.9,633.62,568.68Z" transform="translate(760.54 639.24)"/><path class="cls-2" d="M756,667.21c-.42,1.48-2,1.23-2.71.25-.18,1.86.77,2.9.59,4.77-1.41-.89-1.75-2.57-1.25-4.87A4.3,4.3,0,0,1,756,667.21Z" transform="translate(760.54 639.24)"/><path class="cls-2" d="M550.49,669.36c.86-1.84.74,1.66,2.51,1.05.2,1.86-1.5,1.11-1.71,2.41C548.73,672.44,551.68,669.52,550.49,669.36Z" transform="translate(760.54 639.24)"/><path class="cls-2" d="M729.12,721.09c-2.69-1.11-2.49,2.36-6.11,2,.27-2.21,1.39-3.25,2.19-4.75C725.46,721.3,727.13,719.36,729.12,721.09Z" transform="translate(760.54 639.24)"/><path class="cls-2" d="M733.37,721.75c-.29,1.33-2.42.13-2.46,1.8-.84-1.22-2.15-3.47-.76-4.48C734.34,719.63,729,723.21,733.37,721.75Z" transform="translate(760.54 639.24)"/><path class="cls-2" d="M706.5,745.17c.83-1.15,2-1.8,2.68-3.21a4,4,0,0,0,2.73,1.15c.5-1.83-2.66-1-1.68-3.17,2.64,2.37.54-.8,2.94-.27-.24,2.62.55,2.87-.77,5-1-.1-2-.19-2-1-.8.06-.7,1.34-1.64,1.2-.39,1.75.74,2.39,1.69,3.17-1.2.94-3,1.06-5.18.65.13-2.78,2.07.71,3.16-1.69A2,2,0,0,0,706.5,745.17Z" transform="translate(760.54 639.24)"/><path class="cls-2" d="M687.33,719c1.19,2.9,0,4.93,1.62,8.24-3.1-.81-4.14,1.21-4.31,4.41-1.62-.7-3.16-1.47-3.11-3.39,3.73,2.55-2.52-3.43,2.46-1.79,0-.85-1.2-.8-2-1,.78-1.31,2.88-2.16,3.77-.87C686.24,723.83,686.81,721.73,687.33,719Z" transform="translate(760.54 639.24)"/><path class="cls-1" d="M845.73,541.7l-8.06,2.45a329.3,329.3,0,0,1-45.25,252.11l7.17,4.38A337.78,337.78,0,0,0,845.73,541.7Z" transform="translate(760.54 639.24)"/><path class="cls-1" d="M197.18,616.79a329.67,329.67,0,0,1,8-72.4l-8.06-2.45A337.73,337.73,0,0,0,244,801.69l7.17-4.38A327.05,327.05,0,0,1,197.18,616.79Z" transform="translate(760.54 639.24)"/><path class="cls-1" d="M257.57,792.93l14.78-9a303.42,303.42,0,0,1-43.25-232l-16.63-5.06a320.81,320.81,0,0,0,45.1,246.09Z" transform="translate(760.54 639.24)"/><path class="cls-1" d="M822.21,616.79a301.46,301.46,0,0,1-49.56,166.05l14.78,9c27.85-42.57,52.09-118.22,52.09-175.09a321.27,321.27,0,0,0-7.73-70.18l-16.63,5.06A304,304,0,0,1,822.21,616.79Z" transform="translate(760.54 639.24)"/><path class="cls-1" d="M364.41,827.3a56.94,56.94,0,0,0-7.74-22,84.78,84.78,0,0,0-6.83-9.9,8.88,8.88,0,0,0-1.29-1.21c-1-.71-3.41-1.75-13.12-4.08a142.42,142.42,0,0,0-14.81-3l-1-.11c-9.37-.88-17.27-.56-23.46.95a50.58,50.58,0,0,0-17.91,7.85c-1,.7-1.95,1.49-2.9,2.33a53.53,53.53,0,0,0-10,12.36,56,56,0,0,0-7.63,26A81.31,81.31,0,0,0,261,863.68c.37,1.24,1.36,3.89,3,8.1,2.39,6.25,2.71,6.6,3.08,7l.55.62.81.15c7.14,1.32,13.89,2.37,20.07,3.12,21.29,2.58,36.67,1.82,47-2.3a43.11,43.11,0,0,0,13.38-8.17l.74-.66a50.28,50.28,0,0,0,10-13.09C364.52,849.42,366.1,838.93,364.41,827.3ZM289.65,870c-6.17-16.45-7.36-31.47-3.56-44.66a49.47,49.47,0,0,1,7.24-15.64,33,33,0,0,1,4.42-4.77,39.66,39.66,0,0,1,8.4-5.65,21,21,0,0,1,9.23-2.21,20,20,0,0,1,2.52.14,17.84,17.84,0,0,1,6.5,2.09,31.57,31.57,0,0,1,8.76,6.76c.63.71,1.24,1.47,1.69,2.1a22.51,22.51,0,0,1,2.27,4.56c4,13.65,3.95,25.83-.23,36.21a37.75,37.75,0,0,1-10.1,14.3,47.33,47.33,0,0,1-7.92,5.63c-4.68,2.65-12.42,3.34-23,2.06C293.9,870.67,291.81,870.36,289.65,870Zm150.7-2.89c4.24,5.58,5.78,14.44,4.72,27.11l-4.65.67c-1.24-3.2-6.61-9.39-25.16-20.75l-.44-.22a57.21,57.21,0,0,0-7.41,11.51c-.72,1.43-1.41,2.93-2.06,4.47l-3.73,9.36,1,.47a44.68,44.68,0,0,1,19.38,19l1.91,3.5-25.08.42-.34-2a17,17,0,0,0-2.25-6.35c-.81,2-1.66,3.84-2.53,5.58-5.48,10.93-12.27,17.86-20.18,20.58-7.73,2.63-14.31,3.65-19.56,3a21.21,21.21,0,0,1-4-.86l1.2-4.66.29,0a8.54,8.54,0,0,0,4.6-1.09,15.63,15.63,0,0,0,5-4,26.61,26.61,0,0,0,3.42-5.29,39.54,39.54,0,0,0,1.69-3.89l7-22.29A126.77,126.77,0,0,0,360,896.55l.59-4.7a131.66,131.66,0,0,1,15.66-.2,51.27,51.27,0,0,1,3.11-7.77,42,42,0,0,1,2.38-4.14,52.07,52.07,0,0,1,15.9-16.07A53.32,53.32,0,0,1,384.87,849c-4.26-7.12-6.07-15.73-5.37-25.58l4.81.31a1.27,1.27,0,0,0,0-.36c.05.2.5,1.43,4,6.05a47.44,47.44,0,0,0,11.7,10.67c1.87,1.31,8,4.8,18.23,10.4C428.92,856.34,436.17,861.78,440.35,867.09ZM600.92,921.2a50.22,50.22,0,0,0-4.18-16c-4.18-9.34-11.5-17-21.72-22.82a57.6,57.6,0,0,0-20.08-7.12c-.68-.1-1.36-.19-2.05-.26a84.49,84.49,0,0,0-12-.68,8.44,8.44,0,0,0-1.75.27c-1.19.38-3.47,1.62-11.27,7.86a128,128,0,0,0-12.09,10.57c-6.44,6.86-11,13.29-13.64,19.11a50.63,50.63,0,0,0-4.78,19c0,1.18,0,2.43.06,3.72A53.54,53.54,0,0,0,501,950.36a56.08,56.08,0,0,0,15.9,22,81.29,81.29,0,0,0,23.42,14c1.19.47,3.9,1.32,8.26,2.59a59.71,59.71,0,0,0,6.7,1.83l.47.05,1.08-.07.62-.55c24.14-21.49,37.8-38.67,41.77-52.47A42.91,42.91,0,0,0,601,922.19Zm-79.86-18.6a18.21,18.21,0,0,1,7.29-5.75,31.64,31.64,0,0,1,10.7-2.77c1-.06,1.94-.08,2.69-.05l1.29.17a19.25,19.25,0,0,1,3.71.83c13.25,5.19,22.83,12.73,28.46,22.39a37.77,37.77,0,0,1,5.1,16.75,47.31,47.31,0,0,1-.4,9.7c-.94,6.34-6.66,14.33-17,23.77-16.77-5.21-29.37-13.48-37.46-24.58a49.41,49.41,0,0,1-7.91-15.31,33,33,0,0,1-1.06-6.41,39.88,39.88,0,0,1,.68-10.11A21.07,21.07,0,0,1,521.06,902.61ZM696.74,925.8l3.8.21-13.64,25-1.95-.71a18,18,0,0,0-4-.95c-6.57-.8-15.23,1.33-25.73,6.33a167.41,167.41,0,0,0-19.12,10.93l-5.75,3.76,2.15-6.53c2.93-8.91,1.59-19.39-4-31.15-3.68-7.74-9.24-16.18-16.53-25.08a46.52,46.52,0,0,1-3.64-6.32,56,56,0,0,1-4.68-15.61C601,869.1,607,855.54,621.3,845.41a12.83,12.83,0,0,1,4.89-4,21.38,21.38,0,0,1,10.58-1.59c.58,0,1.16.09,1.75.16,6.5.79,12.61,3.73,18.19,8.74a16.12,16.12,0,0,1,3.85,5.1,18.64,18.64,0,0,1,1.68,8.25c0,2.75-1.07,8.35-9.93,25l-.38.63-.33.51-.34.45L647,886.48c1.88-6.36,1.89-11.57,0-15.49-1.7-3.57-4.92-6.18-9.87-8a22.59,22.59,0,0,0-5-1.19,27.83,27.83,0,0,0-11.94,1.38l-.85.23c.29,4.36,1.92,9.71,4.88,15.94,1.07,2.24,2.31,4.61,3.71,7,10.71,18.41,16.64,28.89,18.13,32l.14.3a42.26,42.26,0,0,1,3,21.41,91.26,91.26,0,0,1,12.91-7.91A71,71,0,0,1,696.74,925.8Zm91.4-77.32a44.49,44.49,0,0,0-1.82-12.83c-2.86-9.31-8.52-18.17-16.82-26.33a102.1,102.1,0,0,0-11.23-9.47c-7.67-5.73-15-9.23-21.92-10.39q-1-.17-2.06-.29a44.14,44.14,0,0,0-16.37,1c-8.16,2.16-16.78,7.48-25.59,15.82-8.46,8-13.7,12.79-15.59,14.25A47.61,47.61,0,0,1,663,828.11c-5.46,1.87-6.76,1.91-7,1.9l.26.06-.28.82-1.39,3.7.15.05a53.06,53.06,0,0,0,11.39,2.78,35.48,35.48,0,0,0,18.93-2.6A96.65,96.65,0,0,0,699.75,827a30.68,30.68,0,0,0,1.38,9.14,38.07,38.07,0,0,0,5.65,11.4,49.07,49.07,0,0,0,5.48,6.51,35.57,35.57,0,0,0,3.87,3.32l27.1,21.31c.92.75,1.75,1.5,2.49,2.23a22.76,22.76,0,0,1,2.54,2.92c-5.32,9.1-7.88,18-7.61,26.56l.25,8,4.2-6.79a92.21,92.21,0,0,1,12.53-16.16,71.91,71.91,0,0,1,13.87-11.07c5-3,9.26-4.85,12.75-5.5l.82-.2.53-.55c.69-.71,1-1,1.44-8.92l.22-3c0-.66,0-1.43.09-2.36.11-1.85.16-2.88.15-2.88h0C788,855.52,788.17,851.34,788.15,848.48ZM758,868.13a32.71,32.71,0,0,0-8.41-14l-.79-.78c-1.41-1.39-3.11-2.9-5-4.47l-5.91-4.86-13.67-11.31q-1.53-1.39-3-2.79c-4.46-4.38-7.49-8.6-9-12.57l2.89-2.26a13.31,13.31,0,0,1,5-2.58,20.31,20.31,0,0,1,5.94-.92c.55,0,1.1.06,1.66.13a29.6,29.6,0,0,1,10.53,3.72c1.74.95,3.74,2.18,5.92,3.65l2.85,2,2.81,2a134.91,134.91,0,0,1,17.3,14,58.38,58.38,0,0,1,6.75,7.77c2.19,3.05,3.21,7.5,3,13.24a69.52,69.52,0,0,0-18.21,12.42Q758.4,869.44,758,868.13ZM641.4,623.81l.05,0S641.51,623.86,641.4,623.81Z" transform="translate(760.54 639.24)"/><path class="cls-4" d="M-717.76-549.91s16.93-24.91-11-47.73-25.76-41.6-25.76-41.6S-769-613.35-753-594.54-715.67-567.82-717.76-549.91Z" transform="translate(760.54 639.24)"/><path class="cls-1" d="M741.75,739.89a3.49,3.49,0,0,0-.46-4.77c-5.75-5-19.94-17.65-24.15-20.89-1.48-1.14-5.36,2.36-7.12,3l-.05,0L650,662.32s3.11-5.54,1.1-9.12c-1.64-2.92-19.12-17.88-25.52-23.31a2.29,2.29,0,0,0-3.58.83l-1.44,2.63L558.24,567.7s-7.72,61.62-74.16,83.92l90.38,47.31-3.11,2.94a3.37,3.37,0,0,0,.41,5.23L595,719.2a8.33,8.33,0,0,0,8.78.39l4.79-4s54,33.33,68,42.65l-2,2.25a4.56,4.56,0,0,0,1.48,5.94l21.61,12.84c2.47,1.65,8.31,3.39,9.65,2.64.51-.28,1.36-.62,2.36-1.12,4.14-2.09,8.85-3.16,15.47-3.33h0a12.62,12.62,0,0,0,11.55-4.3l16.57-19.49-13.43-11.34Z" transform="translate(760.54 639.24)"/><path class="cls-1" d="M468.3,477.29q-.46,1-.87,2.1c-13.47,34.32-46,43.95-47.12,90.93a83.18,83.18,0,0,0,29.63,66.08l1.25,1c18.3,14.59,42.72,18.82,65.12,12.07,26.22-7.91,69.83-32.29,46.73-105.55-.34-1.09-.68-2.19-1-3.29-1.54-5.49-10-30.91-45.68-80.09-26.1-36-24.92-68.67-17.73-104.41,0,0-23.45,22.56-24.36,67.91C473.49,462.79,469.46,474.66,468.3,477.29Zm47.87,151.46c-6.22,5-11.27,6.64-17.83,8.14-27.17,6.21-49.68-10.84-59.56-35.24-14.26-35.21,22.75-79,22.75-79s-2.29,13.53,5.09,25.29c0,0-.18-11.53,13.69-36.81s10-42.69,7.89-48.82c0,0,28.08,29,19.1,69.35,0,0-7.16,25.31-3.33,39.5a38.44,38.44,0,0,1,8.8-27s-2.73,8.37,6,24.7S537.6,611.39,516.16,628.75Z" transform="translate(760.54 639.24)"/><path class="cls-1" d="M436.83,428.3s-5.16,16.24,9.88,29.35,12.09,20.43,12.09,20.43,8.51-14.07,0-24.75S442.55,440.11,436.83,428.3Z" transform="translate(760.54 639.24)"/><path class="cls-1" d="M510.67,435.12s-7-15.54,6.43-30.3,9.66-21.68,9.66-21.68,10.07,13,2.84,24.59S515,422.73,510.67,435.12Z" transform="translate(760.54 639.24)"/><path class="cls-1" d="M449.55,349s-7.83,15.14,4.77,30.6,8.47,22.18,8.47,22.18,10.77-12.43,4.17-24.4S453.19,361.57,449.55,349Z" transform="translate(760.54 639.24)"/></svg>